<svg width="2400" height="1096" viewBox="0 0 2400 1096" fill="none" xmlns="http://www.w3.org/2000/svg">
<rect width="2400" height="1096" fill="#2C2C2C"/>
<circle cx="388.5" cy="553.5" r="207.5" stroke="#1C1C1C" stroke-width="30"/>
<path d="M388.5 346C417.193 346 445.573 351.951 471.849 363.476C498.126 375.001 521.726 391.851 541.159 412.96C560.593 434.07 575.437 458.98 584.755 486.118C594.072 513.255 597.66 542.03 595.292 570.625C592.924 599.22 584.652 627.013 570.997 652.248C557.342 677.483 538.602 699.612 515.961 717.237C493.32 734.862 467.27 747.6 439.456 754.646C411.642 761.692 382.669 762.893 354.367 758.173" stroke="url(#paint0_linear)" stroke-width="30" stroke-linecap="round" stroke-linejoin="round"/>
<path d="M281.797 555.797L284.883 527.125H315.43V535.328H292.773L291.211 548.922C293.841 547.411 296.81 546.656 300.117 546.656C305.534 546.656 309.74 548.388 312.734 551.852C315.755 555.315 317.266 559.977 317.266 565.836C317.266 571.617 315.599 576.227 312.266 579.664C308.932 583.076 304.362 584.781 298.555 584.781C293.346 584.781 289.023 583.31 285.586 580.367C282.174 577.398 280.326 573.492 280.039 568.648H289.219C289.583 571.409 290.573 573.531 292.188 575.016C293.802 576.474 295.911 577.203 298.516 577.203C301.432 577.203 303.698 576.161 305.312 574.078C306.953 571.995 307.773 569.156 307.773 565.562C307.773 562.099 306.875 559.365 305.078 557.359C303.281 555.328 300.807 554.312 297.656 554.312C295.938 554.312 294.479 554.547 293.281 555.016C292.083 555.458 290.781 556.344 289.375 557.672L281.797 555.797ZM362.969 584H324.727V577.477L343.672 556.812C346.406 553.766 348.346 551.227 349.492 549.195C350.664 547.138 351.25 545.081 351.25 543.023C351.25 540.315 350.482 538.128 348.945 536.461C347.435 534.794 345.391 533.961 342.812 533.961C339.74 533.961 337.357 534.898 335.664 536.773C333.971 538.648 333.125 541.214 333.125 544.469H323.633C323.633 541.005 324.414 537.893 325.977 535.133C327.565 532.346 329.818 530.185 332.734 528.648C335.677 527.112 339.062 526.344 342.891 526.344C348.411 526.344 352.76 527.737 355.938 530.523C359.141 533.284 360.742 537.112 360.742 542.008C360.742 544.846 359.935 547.828 358.32 550.953C356.732 554.052 354.115 557.581 350.469 561.539L336.562 576.422H362.969V584ZM372.148 596.812L367.031 593.766C368.542 591.396 369.57 589.326 370.117 587.555C370.69 585.81 370.99 584.026 371.016 582.203V574.82H379.57L379.531 581.656C379.505 584.417 378.802 587.177 377.422 589.938C376.068 592.724 374.31 595.016 372.148 596.812ZM417.305 526.852V534.703H416.133C410.82 534.781 406.576 536.24 403.398 539.078C400.221 541.917 398.333 545.94 397.734 551.148C400.781 547.945 404.674 546.344 409.414 546.344C414.44 546.344 418.398 548.115 421.289 551.656C424.206 555.198 425.664 559.768 425.664 565.367C425.664 571.148 423.958 575.836 420.547 579.43C417.161 582.997 412.708 584.781 407.188 584.781C401.51 584.781 396.901 582.685 393.359 578.492C389.844 574.299 388.086 568.805 388.086 562.008V558.766C388.086 548.792 390.508 540.979 395.352 535.328C400.221 529.677 407.214 526.852 416.328 526.852H417.305ZM407.109 554C405.026 554 403.112 554.586 401.367 555.758C399.648 556.93 398.385 558.492 397.578 560.445V563.336C397.578 567.555 398.464 570.914 400.234 573.414C402.005 575.888 404.297 577.125 407.109 577.125C409.922 577.125 412.148 576.07 413.789 573.961C415.43 571.852 416.25 569.078 416.25 565.641C416.25 562.203 415.417 559.404 413.75 557.242C412.083 555.081 409.87 554 407.109 554ZM444.219 551.227H450C452.917 551.201 455.221 550.445 456.914 548.961C458.633 547.477 459.492 545.328 459.492 542.516C459.492 539.807 458.776 537.711 457.344 536.227C455.938 534.716 453.776 533.961 450.859 533.961C448.307 533.961 446.211 534.703 444.57 536.188C442.93 537.646 442.109 539.56 442.109 541.93H432.617C432.617 539.013 433.385 536.357 434.922 533.961C436.484 531.565 438.646 529.703 441.406 528.375C444.193 527.021 447.305 526.344 450.742 526.344C456.419 526.344 460.872 527.776 464.102 530.641C467.357 533.479 468.984 537.438 468.984 542.516C468.984 545.068 468.164 547.477 466.523 549.742C464.909 551.982 462.812 553.674 460.234 554.82C463.359 555.888 465.729 557.568 467.344 559.859C468.984 562.151 469.805 564.885 469.805 568.062C469.805 573.167 468.047 577.229 464.531 580.25C461.042 583.271 456.445 584.781 450.742 584.781C445.273 584.781 440.794 583.323 437.305 580.406C433.815 577.49 432.07 573.609 432.07 568.766H441.562C441.562 571.266 442.396 573.297 444.062 574.859C445.755 576.422 448.021 577.203 450.859 577.203C453.802 577.203 456.12 576.422 457.812 574.859C459.505 573.297 460.352 571.031 460.352 568.062C460.352 565.068 459.466 562.763 457.695 561.148C455.924 559.534 453.294 558.727 449.805 558.727H444.219V551.227ZM478.32 538.062C478.32 534.625 479.427 531.812 481.641 529.625C483.854 527.411 486.758 526.305 490.352 526.305C493.997 526.305 496.914 527.411 499.102 529.625C501.315 531.812 502.422 534.69 502.422 538.258V541.07C502.422 544.482 501.315 547.281 499.102 549.469C496.914 551.656 494.023 552.75 490.43 552.75C486.914 552.75 484.01 551.682 481.719 549.547C479.453 547.385 478.32 544.482 478.32 540.836V538.062ZM484.961 541.07C484.961 542.867 485.456 544.326 486.445 545.445C487.461 546.539 488.789 547.086 490.43 547.086C492.044 547.086 493.346 546.539 494.336 545.445C495.326 544.326 495.82 542.815 495.82 540.914V538.062C495.82 536.266 495.312 534.807 494.297 533.688C493.307 532.568 491.992 532.008 490.352 532.008C488.711 532.008 487.396 532.581 486.406 533.727C485.443 534.846 484.961 536.331 484.961 538.18V541.07ZM505.664 570.055C505.664 566.565 506.797 563.74 509.062 561.578C511.328 559.417 514.219 558.336 517.734 558.336C521.276 558.336 524.167 559.417 526.406 561.578C528.672 563.74 529.805 566.656 529.805 570.328V573.102C529.805 576.487 528.711 579.286 526.523 581.5C524.362 583.688 521.458 584.781 517.812 584.781C514.167 584.781 511.224 583.701 508.984 581.539C506.771 579.352 505.664 576.474 505.664 572.906V570.055ZM512.305 573.102C512.305 574.872 512.812 576.331 513.828 577.477C514.87 578.596 516.198 579.156 517.812 579.156C519.479 579.156 520.781 578.622 521.719 577.555C522.682 576.461 523.164 574.938 523.164 572.984V570.055C523.164 568.232 522.656 566.773 521.641 565.68C520.625 564.586 519.323 564.039 517.734 564.039C516.12 564.039 514.805 564.586 513.789 565.68C512.799 566.773 512.305 568.284 512.305 570.211V573.102ZM492.383 579.742L487.5 576.93L515.273 532.477L520.156 535.289L492.383 579.742Z" fill="#BCBCBC"/>
<path d="M287.773 863.688L298.405 841.789H307.292L291.804 870.988V888H283.742V870.988L268.222 841.789H277.141L287.773 863.688ZM308.022 870.512C308.022 867.148 308.688 864.122 310.021 861.435C311.354 858.727 313.227 856.653 315.639 855.214C318.051 853.754 320.823 853.024 323.955 853.024C328.588 853.024 332.344 854.516 335.222 857.5C338.12 860.483 339.686 864.44 339.919 869.37L339.951 871.179C339.951 874.564 339.295 877.59 337.983 880.256C336.692 882.922 334.83 884.985 332.397 886.445C329.985 887.905 327.192 888.635 324.018 888.635C319.173 888.635 315.29 887.027 312.37 883.811C309.471 880.573 308.022 876.267 308.022 870.893V870.512ZM315.734 871.179C315.734 874.712 316.464 877.484 317.924 879.494C319.384 881.483 321.416 882.478 324.018 882.478C326.621 882.478 328.641 881.462 330.08 879.431C331.54 877.399 332.27 874.427 332.27 870.512C332.27 867.042 331.519 864.292 330.017 862.26C328.535 860.229 326.515 859.213 323.955 859.213C321.437 859.213 319.437 860.218 317.956 862.229C316.475 864.217 315.734 867.201 315.734 871.179ZM367.277 884.636C365.013 887.302 361.797 888.635 357.629 888.635C353.905 888.635 351.08 887.545 349.155 885.366C347.25 883.186 346.298 880.034 346.298 875.908V853.659H354.011V875.812C354.011 880.171 355.82 882.351 359.438 882.351C363.183 882.351 365.712 881.007 367.023 878.32V853.659H374.736V888H367.468L367.277 884.636ZM392.255 845.312V853.659H398.317V859.372H392.255V878.542C392.255 879.854 392.509 880.806 393.017 881.398C393.546 881.97 394.477 882.255 395.81 882.255C396.699 882.255 397.598 882.15 398.508 881.938V887.905C396.752 888.391 395.059 888.635 393.43 888.635C387.505 888.635 384.543 885.366 384.543 878.828V859.372H378.894V853.659H384.543V845.312H392.255ZM425.041 884.636C422.777 887.302 419.561 888.635 415.393 888.635C411.669 888.635 408.844 887.545 406.918 885.366C405.014 883.186 404.062 880.034 404.062 875.908V853.659H411.774V875.812C411.774 880.171 413.583 882.351 417.202 882.351C420.947 882.351 423.475 881.007 424.787 878.32V853.659H432.5V888H425.231L425.041 884.636ZM470.49 871.179C470.49 876.511 469.295 880.753 466.904 883.906C464.534 887.058 461.265 888.635 457.097 888.635C453.076 888.635 449.945 887.185 447.702 884.287L447.321 888H440.339V839.25H448.051V856.96C450.273 854.336 453.267 853.024 457.033 853.024C461.223 853.024 464.513 854.58 466.904 857.69C469.295 860.8 470.49 865.148 470.49 870.734V871.179ZM462.778 870.512C462.778 866.788 462.122 863.995 460.81 862.133C459.498 860.271 457.594 859.34 455.097 859.34C451.754 859.34 449.405 860.8 448.051 863.72V877.875C449.427 880.859 451.796 882.351 455.161 882.351C457.573 882.351 459.435 881.451 460.747 879.653C462.058 877.854 462.736 875.135 462.778 871.496V870.512ZM492.104 888.635C487.216 888.635 483.249 887.101 480.202 884.033C477.176 880.944 475.664 876.839 475.664 871.718V870.766C475.664 867.338 476.319 864.281 477.631 861.594C478.964 858.885 480.826 856.78 483.217 855.278C485.608 853.776 488.274 853.024 491.215 853.024C495.891 853.024 499.499 854.516 502.038 857.5C504.598 860.483 505.878 864.704 505.878 870.163V873.273H483.439C483.672 876.109 484.614 878.352 486.264 880.002C487.936 881.652 490.03 882.478 492.548 882.478C496.082 882.478 498.959 881.049 501.181 878.193L505.339 882.16C503.964 884.213 502.123 885.81 499.816 886.953C497.531 888.074 494.96 888.635 492.104 888.635ZM491.184 859.213C489.068 859.213 487.354 859.954 486.042 861.435C484.751 862.916 483.926 864.979 483.566 867.624H498.261V867.053C498.092 864.471 497.404 862.525 496.198 861.213C494.992 859.88 493.321 859.213 491.184 859.213Z" fill="#BCBCBC"/>
<path d="M249.979 258.939L261.722 222.789H270.545L253.915 269H246.139L229.571 222.789H238.363L249.979 258.939ZM283.241 269H275.528V234.659H283.241V269ZM275.052 225.741C275.052 224.556 275.423 223.572 276.163 222.789C276.925 222.006 278.004 221.615 279.4 221.615C280.797 221.615 281.876 222.006 282.638 222.789C283.399 223.572 283.78 224.556 283.78 225.741C283.78 226.904 283.399 227.878 282.638 228.661C281.876 229.422 280.797 229.803 279.4 229.803C278.004 229.803 276.925 229.422 276.163 228.661C275.423 227.878 275.052 226.904 275.052 225.741ZM290.223 251.576C290.223 246.286 291.45 242.044 293.905 238.849C296.359 235.632 299.649 234.024 303.775 234.024C307.415 234.024 310.356 235.294 312.599 237.833V220.25H320.311V269H313.329L312.948 265.445C310.641 268.238 307.563 269.635 303.712 269.635C299.692 269.635 296.433 268.016 293.937 264.779C291.461 261.542 290.223 257.14 290.223 251.576ZM297.936 252.242C297.936 255.733 298.602 258.463 299.935 260.431C301.289 262.377 303.204 263.351 305.68 263.351C308.832 263.351 311.139 261.944 312.599 259.129V244.466C311.181 241.716 308.896 240.34 305.743 240.34C303.246 240.34 301.321 241.335 299.967 243.324C298.613 245.292 297.936 248.264 297.936 252.242ZM343.48 269.635C338.592 269.635 334.625 268.101 331.578 265.033C328.552 261.944 327.04 257.839 327.04 252.718V251.766C327.04 248.338 327.695 245.281 329.007 242.594C330.34 239.885 332.202 237.78 334.593 236.278C336.984 234.776 339.65 234.024 342.591 234.024C347.267 234.024 350.875 235.516 353.414 238.5C355.974 241.483 357.254 245.704 357.254 251.163V254.273H334.815C335.048 257.109 335.99 259.352 337.64 261.002C339.312 262.652 341.406 263.478 343.924 263.478C347.458 263.478 350.335 262.049 352.557 259.193L356.715 263.16C355.34 265.213 353.499 266.81 351.192 267.953C348.907 269.074 346.336 269.635 343.48 269.635ZM342.56 240.213C340.444 240.213 338.73 240.954 337.418 242.435C336.127 243.916 335.302 245.979 334.942 248.624H349.637V248.053C349.468 245.471 348.78 243.525 347.574 242.213C346.368 240.88 344.697 240.213 342.56 240.213ZM361.825 251.512C361.825 248.148 362.491 245.122 363.824 242.435C365.157 239.727 367.03 237.653 369.442 236.214C371.854 234.754 374.626 234.024 377.757 234.024C382.391 234.024 386.147 235.516 389.024 238.5C391.923 241.483 393.489 245.44 393.722 250.37L393.753 252.179C393.753 255.564 393.097 258.59 391.786 261.256C390.495 263.922 388.633 265.985 386.2 267.445C383.788 268.905 380.995 269.635 377.821 269.635C372.975 269.635 369.093 268.027 366.173 264.811C363.274 261.573 361.825 257.267 361.825 251.893V251.512ZM369.537 252.179C369.537 255.712 370.267 258.484 371.727 260.494C373.187 262.483 375.218 263.478 377.821 263.478C380.423 263.478 382.444 262.462 383.883 260.431C385.343 258.399 386.073 255.427 386.073 251.512C386.073 248.042 385.322 245.292 383.819 243.26C382.338 241.229 380.318 240.213 377.757 240.213C375.239 240.213 373.24 241.218 371.759 243.229C370.278 245.217 369.537 248.201 369.537 252.179ZM420.794 269C420.456 268.344 420.16 267.276 419.906 265.794C417.451 268.355 414.447 269.635 410.892 269.635C407.443 269.635 404.629 268.651 402.45 266.683C400.27 264.715 399.181 262.282 399.181 259.383C399.181 255.723 400.535 252.919 403.243 250.973C405.973 249.005 409.866 248.021 414.923 248.021H419.652V245.768C419.652 243.99 419.155 242.573 418.16 241.515C417.166 240.436 415.653 239.896 413.622 239.896C411.865 239.896 410.427 240.34 409.305 241.229C408.184 242.097 407.623 243.207 407.623 244.562H399.911C399.911 242.678 400.535 240.922 401.783 239.293C403.032 237.643 404.724 236.352 406.861 235.421C409.02 234.49 411.421 234.024 414.066 234.024C418.086 234.024 421.292 235.04 423.683 237.071C426.074 239.081 427.301 241.917 427.364 245.577V261.065C427.364 264.155 427.798 266.62 428.666 268.46V269H420.794ZM412.32 263.446C413.844 263.446 415.272 263.076 416.605 262.335C417.959 261.594 418.975 260.6 419.652 259.352V252.877H415.494C412.638 252.877 410.49 253.374 409.051 254.369C407.612 255.363 406.893 256.77 406.893 258.59C406.893 260.071 407.38 261.256 408.353 262.145C409.347 263.012 410.67 263.446 412.32 263.446ZM456.246 265.636C453.982 268.302 450.766 269.635 446.598 269.635C442.874 269.635 440.049 268.545 438.124 266.366C436.219 264.186 435.267 261.034 435.267 256.908V234.659H442.979V256.812C442.979 261.171 444.789 263.351 448.407 263.351C452.152 263.351 454.68 262.007 455.992 259.32V234.659H463.705V269H456.437L456.246 265.636ZM479.764 269H472.052V220.25H479.764V269ZM508.709 269C508.371 268.344 508.075 267.276 507.821 265.794C505.366 268.355 502.362 269.635 498.807 269.635C495.358 269.635 492.544 268.651 490.365 266.683C488.185 264.715 487.096 262.282 487.096 259.383C487.096 255.723 488.45 252.919 491.158 250.973C493.888 249.005 497.781 248.021 502.838 248.021H507.567V245.768C507.567 243.99 507.07 242.573 506.075 241.515C505.081 240.436 503.568 239.896 501.537 239.896C499.78 239.896 498.342 240.34 497.22 241.229C496.099 242.097 495.538 243.207 495.538 244.562H487.826C487.826 242.678 488.45 240.922 489.698 239.293C490.947 237.643 492.639 236.352 494.776 235.421C496.935 234.49 499.336 234.024 501.981 234.024C506.001 234.024 509.207 235.04 511.598 237.071C513.989 239.081 515.216 241.917 515.279 245.577V261.065C515.279 264.155 515.713 266.62 516.581 268.46V269H508.709ZM500.235 263.446C501.759 263.446 503.187 263.076 504.52 262.335C505.874 261.594 506.89 260.6 507.567 259.352V252.877H503.409C500.553 252.877 498.405 253.374 496.966 254.369C495.528 255.363 494.808 256.77 494.808 258.59C494.808 260.071 495.295 261.256 496.268 262.145C497.263 263.012 498.585 263.446 500.235 263.446ZM542.606 259.669C542.606 258.294 542.035 257.246 540.892 256.527C539.771 255.807 537.898 255.173 535.274 254.623C532.651 254.072 530.461 253.374 528.705 252.528C524.854 250.666 522.928 247.968 522.928 244.435C522.928 241.472 524.177 238.997 526.673 237.008C529.17 235.019 532.344 234.024 536.195 234.024C540.3 234.024 543.611 235.04 546.129 237.071C548.668 239.103 549.938 241.737 549.938 244.974H542.225C542.225 243.493 541.675 242.266 540.575 241.292C539.474 240.298 538.014 239.801 536.195 239.801C534.502 239.801 533.116 240.192 532.037 240.975C530.979 241.758 530.45 242.805 530.45 244.117C530.45 245.302 530.947 246.222 531.942 246.878C532.936 247.534 534.946 248.201 537.972 248.878C540.998 249.534 543.368 250.327 545.082 251.258C546.817 252.168 548.097 253.268 548.922 254.559C549.768 255.85 550.191 257.416 550.191 259.256C550.191 262.346 548.911 264.853 546.351 266.778C543.791 268.683 540.437 269.635 536.29 269.635C533.476 269.635 530.969 269.127 528.768 268.111C526.568 267.096 524.854 265.699 523.626 263.922C522.399 262.145 521.786 260.23 521.786 258.177H529.276C529.382 259.997 530.069 261.404 531.339 262.398C532.608 263.372 534.291 263.858 536.385 263.858C538.417 263.858 539.961 263.478 541.019 262.716C542.077 261.933 542.606 260.917 542.606 259.669Z" fill="#BCBCBC"/>
<circle cx="1181.5" cy="553.5" r="207.5" stroke="#1C1C1C" stroke-width="30"/>
<path d="M1181.5 346C1220.35 346 1258.42 356.906 1291.37 377.477C1324.33 398.048 1350.85 427.458 1367.91 462.359C1384.98 497.26 1391.9 536.25 1387.89 574.892C1383.89 613.535 1369.12 650.276 1345.26 680.936C1321.4 711.595 1289.41 734.941 1252.94 748.315C1216.46 761.69 1176.97 764.557 1138.94 756.589C1100.92 748.621 1065.9 730.139 1037.86 703.246C1009.82 676.354 989.901 642.13 980.358 604.472" stroke="url(#paint1_linear)" stroke-width="30" stroke-linecap="round" stroke-linejoin="round"/>
<path d="M1110.11 532.398L1087.38 584H1077.41L1100.11 534.742H1070.7V527.125H1110.11V532.398ZM1143.43 584H1133.98V538.336L1120.03 543.102V535.094L1142.22 526.93H1143.43V584ZM1165.15 596.812L1160.03 593.766C1161.54 591.396 1162.57 589.326 1163.12 587.555C1163.69 585.81 1163.99 584.026 1164.02 582.203V574.82H1172.57L1172.53 581.656C1172.51 584.417 1171.8 587.177 1170.42 589.938C1169.07 592.724 1167.31 595.016 1165.15 596.812ZM1217.84 560.055C1217.84 568.232 1216.31 574.404 1213.23 578.57C1210.19 582.711 1205.54 584.781 1199.29 584.781C1193.14 584.781 1188.51 582.763 1185.38 578.727C1182.28 574.664 1180.7 568.661 1180.62 560.719V550.875C1180.62 542.698 1182.14 536.565 1185.19 532.477C1188.26 528.388 1192.93 526.344 1199.21 526.344C1205.43 526.344 1210.07 528.336 1213.12 532.32C1216.19 536.305 1217.77 542.268 1217.84 550.211V560.055ZM1208.35 549.43C1208.35 544.091 1207.62 540.185 1206.16 537.711C1204.71 535.211 1202.39 533.961 1199.21 533.961C1196.11 533.961 1193.83 535.146 1192.38 537.516C1190.92 539.859 1190.15 543.531 1190.07 548.531V561.422C1190.07 566.734 1190.81 570.693 1192.3 573.297C1193.78 575.901 1196.11 577.203 1199.29 577.203C1202.34 577.203 1204.59 576.005 1206.05 573.609C1207.51 571.188 1208.27 567.411 1208.35 562.281V549.43ZM1228.78 555.797L1231.87 527.125H1262.41V535.328H1239.76L1238.2 548.922C1240.83 547.411 1243.79 546.656 1247.1 546.656C1252.52 546.656 1256.72 548.388 1259.72 551.852C1262.74 555.315 1264.25 559.977 1264.25 565.836C1264.25 571.617 1262.58 576.227 1259.25 579.664C1255.92 583.076 1251.35 584.781 1245.54 584.781C1240.33 584.781 1236.01 583.31 1232.57 580.367C1229.16 577.398 1227.31 573.492 1227.02 568.648H1236.2C1236.57 571.409 1237.56 573.531 1239.17 575.016C1240.79 576.474 1242.9 577.203 1245.5 577.203C1248.42 577.203 1250.68 576.161 1252.3 574.078C1253.94 571.995 1254.76 569.156 1254.76 565.562C1254.76 562.099 1253.86 559.365 1252.06 557.359C1250.27 555.328 1247.79 554.312 1244.64 554.312C1242.92 554.312 1241.46 554.547 1240.27 555.016C1239.07 555.458 1237.77 556.344 1236.36 557.672L1228.78 555.797ZM1271.32 538.062C1271.32 534.625 1272.43 531.812 1274.64 529.625C1276.85 527.411 1279.76 526.305 1283.35 526.305C1287 526.305 1289.91 527.411 1292.1 529.625C1294.32 531.812 1295.42 534.69 1295.42 538.258V541.07C1295.42 544.482 1294.32 547.281 1292.1 549.469C1289.91 551.656 1287.02 552.75 1283.43 552.75C1279.91 552.75 1277.01 551.682 1274.72 549.547C1272.45 547.385 1271.32 544.482 1271.32 540.836V538.062ZM1277.96 541.07C1277.96 542.867 1278.46 544.326 1279.45 545.445C1280.46 546.539 1281.79 547.086 1283.43 547.086C1285.04 547.086 1286.35 546.539 1287.34 545.445C1288.33 544.326 1288.82 542.815 1288.82 540.914V538.062C1288.82 536.266 1288.31 534.807 1287.3 533.688C1286.31 532.568 1284.99 532.008 1283.35 532.008C1281.71 532.008 1280.4 532.581 1279.41 533.727C1278.44 534.846 1277.96 536.331 1277.96 538.18V541.07ZM1298.66 570.055C1298.66 566.565 1299.8 563.74 1302.06 561.578C1304.33 559.417 1307.22 558.336 1310.73 558.336C1314.28 558.336 1317.17 559.417 1319.41 561.578C1321.67 563.74 1322.8 566.656 1322.8 570.328V573.102C1322.8 576.487 1321.71 579.286 1319.52 581.5C1317.36 583.688 1314.46 584.781 1310.81 584.781C1307.17 584.781 1304.22 583.701 1301.98 581.539C1299.77 579.352 1298.66 576.474 1298.66 572.906V570.055ZM1305.3 573.102C1305.3 574.872 1305.81 576.331 1306.83 577.477C1307.87 578.596 1309.2 579.156 1310.81 579.156C1312.48 579.156 1313.78 578.622 1314.72 577.555C1315.68 576.461 1316.16 574.938 1316.16 572.984V570.055C1316.16 568.232 1315.66 566.773 1314.64 565.68C1313.62 564.586 1312.32 564.039 1310.73 564.039C1309.12 564.039 1307.8 564.586 1306.79 565.68C1305.8 566.773 1305.3 568.284 1305.3 570.211V573.102ZM1285.38 579.742L1280.5 576.93L1308.27 532.477L1313.16 535.289L1285.38 579.742Z" fill="#BCBCBC"/>
<path d="M1068.94 876.574L1076.05 841.789H1084.02L1073.35 888H1065.67L1056.88 854.262L1047.9 888H1040.19L1029.52 841.789H1037.49L1044.66 876.511L1053.49 841.789H1060.21L1068.94 876.574ZM1096.75 857.404C1099.26 854.484 1102.45 853.024 1106.3 853.024C1113.62 853.024 1117.33 857.203 1117.44 865.561V888H1109.73V865.847C1109.73 863.477 1109.21 861.805 1108.17 860.832C1107.16 859.838 1105.65 859.34 1103.66 859.34C1100.57 859.34 1098.27 860.716 1096.75 863.466V888H1089.03V839.25H1096.75V857.404ZM1145.78 888C1145.44 887.344 1145.15 886.276 1144.89 884.794C1142.44 887.355 1139.43 888.635 1135.88 888.635C1132.43 888.635 1129.62 887.651 1127.44 885.683C1125.26 883.715 1124.17 881.282 1124.17 878.383C1124.17 874.723 1125.52 871.919 1128.23 869.973C1130.96 868.005 1134.85 867.021 1139.91 867.021H1144.64V864.768C1144.64 862.99 1144.14 861.573 1143.15 860.515C1142.15 859.436 1140.64 858.896 1138.61 858.896C1136.85 858.896 1135.41 859.34 1134.29 860.229C1133.17 861.097 1132.61 862.207 1132.61 863.562H1124.9C1124.9 861.678 1125.52 859.922 1126.77 858.293C1128.02 856.643 1129.71 855.352 1131.85 854.421C1134.01 853.49 1136.41 853.024 1139.05 853.024C1143.07 853.024 1146.28 854.04 1148.67 856.071C1151.06 858.081 1152.29 860.917 1152.35 864.577V880.065C1152.35 883.155 1152.78 885.62 1153.65 887.46V888H1145.78ZM1137.31 882.446C1138.83 882.446 1140.26 882.076 1141.59 881.335C1142.95 880.594 1143.96 879.6 1144.64 878.352V871.877H1140.48C1137.62 871.877 1135.48 872.374 1134.04 873.369C1132.6 874.363 1131.88 875.77 1131.88 877.59C1131.88 879.071 1132.37 880.256 1133.34 881.145C1134.33 882.012 1135.66 882.446 1137.31 882.446ZM1170.09 845.312V853.659H1176.15V859.372H1170.09V878.542C1170.09 879.854 1170.35 880.806 1170.85 881.398C1171.38 881.97 1172.31 882.255 1173.65 882.255C1174.54 882.255 1175.43 882.15 1176.34 881.938V887.905C1174.59 888.391 1172.9 888.635 1171.27 888.635C1165.34 888.635 1162.38 885.366 1162.38 878.828V859.372H1156.73V853.659H1162.38V845.312H1170.09ZM1201.32 878.669C1201.32 877.294 1200.75 876.246 1199.61 875.527C1198.49 874.807 1196.61 874.173 1193.99 873.623C1191.37 873.072 1189.18 872.374 1187.42 871.528C1183.57 869.666 1181.65 866.968 1181.65 863.435C1181.65 860.472 1182.89 857.997 1185.39 856.008C1187.89 854.019 1191.06 853.024 1194.91 853.024C1199.02 853.024 1202.33 854.04 1204.85 856.071C1207.38 858.103 1208.65 860.737 1208.65 863.974H1200.94C1200.94 862.493 1200.39 861.266 1199.29 860.292C1198.19 859.298 1196.73 858.801 1194.91 858.801C1193.22 858.801 1191.83 859.192 1190.75 859.975C1189.7 860.758 1189.17 861.805 1189.17 863.117C1189.17 864.302 1189.66 865.222 1190.66 865.878C1191.65 866.534 1193.66 867.201 1196.69 867.878C1199.71 868.534 1202.08 869.327 1203.8 870.258C1205.53 871.168 1206.81 872.268 1207.64 873.559C1208.49 874.85 1208.91 876.416 1208.91 878.256C1208.91 881.346 1207.63 883.853 1205.07 885.778C1202.51 887.683 1199.15 888.635 1195.01 888.635C1192.19 888.635 1189.69 888.127 1187.48 887.111C1185.28 886.096 1183.57 884.699 1182.34 882.922C1181.12 881.145 1180.5 879.23 1180.5 877.177H1187.99C1188.1 878.997 1188.79 880.404 1190.06 881.398C1191.33 882.372 1193.01 882.858 1195.1 882.858C1197.13 882.858 1198.68 882.478 1199.74 881.716C1200.79 880.933 1201.32 879.917 1201.32 878.669ZM1236.17 888C1235.83 887.344 1235.54 886.276 1235.28 884.794C1232.83 887.355 1229.82 888.635 1226.27 888.635C1222.82 888.635 1220.01 887.651 1217.83 885.683C1215.65 883.715 1214.56 881.282 1214.56 878.383C1214.56 874.723 1215.91 871.919 1218.62 869.973C1221.35 868.005 1225.24 867.021 1230.3 867.021H1235.03V864.768C1235.03 862.99 1234.53 861.573 1233.54 860.515C1232.54 859.436 1231.03 858.896 1229 858.896C1227.24 858.896 1225.8 859.34 1224.68 860.229C1223.56 861.097 1223 862.207 1223 863.562H1215.29C1215.29 861.678 1215.91 859.922 1217.16 858.293C1218.41 856.643 1220.1 855.352 1222.24 854.421C1224.4 853.49 1226.8 853.024 1229.44 853.024C1233.46 853.024 1236.67 854.04 1239.06 856.071C1241.45 858.081 1242.68 860.917 1242.74 864.577V880.065C1242.74 883.155 1243.17 885.62 1244.04 887.46V888H1236.17ZM1227.7 882.446C1229.22 882.446 1230.65 882.076 1231.98 881.335C1233.34 880.594 1234.35 879.6 1235.03 878.352V871.877H1230.87C1228.01 871.877 1225.87 872.374 1224.43 873.369C1222.99 874.363 1222.27 875.77 1222.27 877.59C1222.27 879.071 1222.76 880.256 1223.73 881.145C1224.72 882.012 1226.05 882.446 1227.7 882.446ZM1280.89 871.179C1280.89 876.49 1279.68 880.732 1277.27 883.906C1274.86 887.058 1271.62 888.635 1267.56 888.635C1263.79 888.635 1260.78 887.397 1258.52 884.921V901.203H1250.8V853.659H1257.91L1258.23 857.15C1260.49 854.4 1263.57 853.024 1267.47 853.024C1271.65 853.024 1274.93 854.59 1277.3 857.722C1279.7 860.832 1280.89 865.159 1280.89 870.703V871.179ZM1273.21 870.512C1273.21 867.084 1272.52 864.366 1271.15 862.355C1269.79 860.345 1267.85 859.34 1265.31 859.34C1262.15 859.34 1259.89 860.642 1258.52 863.244V878.479C1259.91 881.145 1262.2 882.478 1265.37 882.478C1267.83 882.478 1269.74 881.494 1271.12 879.526C1272.51 877.537 1273.21 874.532 1273.21 870.512ZM1317.52 871.179C1317.52 876.49 1316.31 880.732 1313.9 883.906C1311.49 887.058 1308.25 888.635 1304.19 888.635C1300.42 888.635 1297.41 887.397 1295.14 884.921V901.203H1287.43V853.659H1294.54L1294.86 857.15C1297.12 854.4 1300.2 853.024 1304.09 853.024C1308.28 853.024 1311.56 854.59 1313.93 857.722C1316.32 860.832 1317.52 865.159 1317.52 870.703V871.179ZM1309.84 870.512C1309.84 867.084 1309.15 864.366 1307.77 862.355C1306.42 860.345 1304.47 859.34 1301.93 859.34C1298.78 859.34 1296.52 860.642 1295.14 863.244V878.479C1296.54 881.145 1298.82 882.478 1302 882.478C1304.45 882.478 1306.37 881.494 1307.74 879.526C1309.14 877.537 1309.84 874.532 1309.84 870.512Z" fill="#BCBCBC"/>
<path d="M979.564 258.241H961.664L957.918 269H949.571L967.027 222.789H974.232L991.72 269H983.341L979.564 258.241ZM963.917 251.766H977.311L970.614 232.596L963.917 251.766ZM1005.34 226.312V234.659H1011.4V240.372H1005.34V259.542C1005.34 260.854 1005.59 261.806 1006.1 262.398C1006.63 262.97 1007.56 263.255 1008.89 263.255C1009.78 263.255 1010.68 263.15 1011.59 262.938V268.905C1009.83 269.391 1008.14 269.635 1006.51 269.635C1000.59 269.635 997.623 266.366 997.623 259.828V240.372H991.974V234.659H997.623V226.312H1005.34ZM1025.52 269H1017.81V234.659H1025.52V269ZM1017.33 225.741C1017.33 224.556 1017.7 223.572 1018.44 222.789C1019.21 222.006 1020.28 221.615 1021.68 221.615C1023.08 221.615 1024.16 222.006 1024.92 222.789C1025.68 223.572 1026.06 224.556 1026.06 225.741C1026.06 226.904 1025.68 227.878 1024.92 228.661C1024.16 229.422 1023.08 229.803 1021.68 229.803C1020.28 229.803 1019.21 229.422 1018.44 228.661C1017.7 227.878 1017.33 226.904 1017.33 225.741ZM1046.06 259.225L1053.32 234.659H1061.29L1049.39 269H1042.69L1030.69 234.659H1038.69L1046.06 259.225ZM1074.33 269H1066.62V234.659H1074.33V269ZM1066.15 225.741C1066.15 224.556 1066.52 223.572 1067.26 222.789C1068.02 222.006 1069.1 221.615 1070.49 221.615C1071.89 221.615 1072.97 222.006 1073.73 222.789C1074.49 223.572 1074.87 224.556 1074.87 225.741C1074.87 226.904 1074.49 227.878 1073.73 228.661C1072.97 229.422 1071.89 229.803 1070.49 229.803C1069.1 229.803 1068.02 229.422 1067.26 228.661C1066.52 227.878 1066.15 226.904 1066.15 225.741ZM1081.32 251.576C1081.32 246.286 1082.54 242.044 1085 238.849C1087.45 235.632 1090.74 234.024 1094.87 234.024C1098.51 234.024 1101.45 235.294 1103.69 237.833V220.25H1111.4V269H1104.42L1104.04 265.445C1101.74 268.238 1098.66 269.635 1094.81 269.635C1090.79 269.635 1087.53 268.016 1085.03 264.779C1082.55 261.542 1081.32 257.14 1081.32 251.576ZM1089.03 252.242C1089.03 255.733 1089.7 258.463 1091.03 260.431C1092.38 262.377 1094.3 263.351 1096.77 263.351C1099.93 263.351 1102.23 261.944 1103.69 259.129V244.466C1102.27 241.716 1099.99 240.34 1096.84 240.34C1094.34 240.34 1092.41 241.335 1091.06 243.324C1089.71 245.292 1089.03 248.264 1089.03 252.242ZM1139.97 269C1139.63 268.344 1139.33 267.276 1139.08 265.794C1136.63 268.355 1133.62 269.635 1130.07 269.635C1126.62 269.635 1123.8 268.651 1121.62 266.683C1119.45 264.715 1118.36 262.282 1118.36 259.383C1118.36 255.723 1119.71 252.919 1122.42 250.973C1125.15 249.005 1129.04 248.021 1134.1 248.021H1138.83V245.768C1138.83 243.99 1138.33 242.573 1137.33 241.515C1136.34 240.436 1134.83 239.896 1132.8 239.896C1131.04 239.896 1129.6 240.34 1128.48 241.229C1127.36 242.097 1126.8 243.207 1126.8 244.562H1119.09C1119.09 242.678 1119.71 240.922 1120.96 239.293C1122.21 237.643 1123.9 236.352 1126.04 235.421C1128.19 234.49 1130.6 234.024 1133.24 234.024C1137.26 234.024 1140.47 235.04 1142.86 237.071C1145.25 239.081 1146.48 241.917 1146.54 245.577V261.065C1146.54 264.155 1146.97 266.62 1147.84 268.46V269H1139.97ZM1131.5 263.446C1133.02 263.446 1134.45 263.076 1135.78 262.335C1137.13 261.594 1138.15 260.6 1138.83 259.352V252.877H1134.67C1131.81 252.877 1129.66 253.374 1128.23 254.369C1126.79 255.363 1126.07 256.77 1126.07 258.59C1126.07 260.071 1126.55 261.256 1127.53 262.145C1128.52 263.012 1129.84 263.446 1131.5 263.446ZM1153.17 251.576C1153.17 246.286 1154.4 242.044 1156.85 238.849C1159.31 235.632 1162.6 234.024 1166.72 234.024C1170.36 234.024 1173.31 235.294 1175.55 237.833V220.25H1183.26V269H1176.28L1175.9 265.445C1173.59 268.238 1170.51 269.635 1166.66 269.635C1162.64 269.635 1159.38 268.016 1156.89 264.779C1154.41 261.542 1153.17 257.14 1153.17 251.576ZM1160.88 252.242C1160.88 255.733 1161.55 258.463 1162.88 260.431C1164.24 262.377 1166.15 263.351 1168.63 263.351C1171.78 263.351 1174.09 261.944 1175.55 259.129V244.466C1174.13 241.716 1171.85 240.34 1168.69 240.34C1166.2 240.34 1164.27 241.335 1162.92 243.324C1161.56 245.292 1160.88 248.264 1160.88 252.242ZM1206.43 269.635C1201.54 269.635 1197.57 268.101 1194.53 265.033C1191.5 261.944 1189.99 257.839 1189.99 252.718V251.766C1189.99 248.338 1190.64 245.281 1191.96 242.594C1193.29 239.885 1195.15 237.78 1197.54 236.278C1199.93 234.776 1202.6 234.024 1205.54 234.024C1210.22 234.024 1213.82 235.516 1216.36 238.5C1218.92 241.483 1220.2 245.704 1220.2 251.163V254.273H1197.76C1198 257.109 1198.94 259.352 1200.59 261.002C1202.26 262.652 1204.36 263.478 1206.87 263.478C1210.41 263.478 1213.28 262.049 1215.51 259.193L1219.66 263.16C1218.29 265.213 1216.45 266.81 1214.14 267.953C1211.86 269.074 1209.29 269.635 1206.43 269.635ZM1205.51 240.213C1203.39 240.213 1201.68 240.954 1200.37 242.435C1199.08 243.916 1198.25 245.979 1197.89 248.624H1212.59V248.053C1212.42 245.471 1211.73 243.525 1210.52 242.213C1209.32 240.88 1207.65 240.213 1205.51 240.213ZM1245.47 259.669C1245.47 258.294 1244.9 257.246 1243.75 256.527C1242.63 255.807 1240.76 255.173 1238.14 254.623C1235.51 254.072 1233.32 253.374 1231.57 252.528C1227.72 250.666 1225.79 247.968 1225.79 244.435C1225.79 241.472 1227.04 238.997 1229.53 237.008C1232.03 235.019 1235.21 234.024 1239.06 234.024C1243.16 234.024 1246.47 235.04 1248.99 237.071C1251.53 239.103 1252.8 241.737 1252.8 244.974H1245.09C1245.09 243.493 1244.54 242.266 1243.44 241.292C1242.34 240.298 1240.88 239.801 1239.06 239.801C1237.36 239.801 1235.98 240.192 1234.9 240.975C1233.84 241.758 1233.31 242.805 1233.31 244.117C1233.31 245.302 1233.81 246.222 1234.8 246.878C1235.8 247.534 1237.81 248.201 1240.83 248.878C1243.86 249.534 1246.23 250.327 1247.94 251.258C1249.68 252.168 1250.96 253.268 1251.78 254.559C1252.63 255.85 1253.05 257.416 1253.05 259.256C1253.05 262.346 1251.77 264.853 1249.21 266.778C1246.65 268.683 1243.3 269.635 1239.15 269.635C1236.34 269.635 1233.83 269.127 1231.63 268.111C1229.43 267.096 1227.72 265.699 1226.49 263.922C1225.26 262.145 1224.65 260.23 1224.65 258.177H1232.14C1232.24 259.997 1232.93 261.404 1234.2 262.398C1235.47 263.372 1237.15 263.858 1239.25 263.858C1241.28 263.858 1242.82 263.478 1243.88 262.716C1244.94 261.933 1245.47 260.917 1245.47 259.669ZM1261.97 272.967H1255.91L1274.1 222.789H1280.16L1261.97 272.967ZM1292.32 254.471V269H1285.53V229.898H1300.49C1304.86 229.898 1308.32 231.035 1310.88 233.309C1313.46 235.583 1314.75 238.591 1314.75 242.333C1314.75 246.164 1313.48 249.145 1310.96 251.275C1308.45 253.406 1304.94 254.471 1300.41 254.471H1292.32ZM1292.32 249.02H1300.49C1302.9 249.02 1304.75 248.456 1306.02 247.328C1307.29 246.182 1307.93 244.535 1307.93 242.386C1307.93 240.274 1307.28 238.591 1305.99 237.337C1304.7 236.066 1302.93 235.413 1300.67 235.377H1292.32V249.02ZM1320.71 269V229.898H1332.26C1335.71 229.898 1338.77 230.668 1341.44 232.208C1344.13 233.748 1346.2 235.932 1347.67 238.761C1349.14 241.59 1349.87 244.83 1349.87 248.482V250.443C1349.87 254.149 1349.13 257.407 1347.65 260.218C1346.18 263.029 1344.07 265.195 1341.33 266.717C1338.61 268.239 1335.49 269 1331.96 269H1320.71ZM1327.5 235.377V263.575H1331.93C1335.5 263.575 1338.23 262.465 1340.13 260.245C1342.04 258.007 1343.02 254.802 1343.05 250.631V248.456C1343.05 244.212 1342.13 240.972 1340.29 238.734C1338.44 236.496 1335.77 235.377 1332.26 235.377H1327.5ZM1379.17 252.43H1363.44V269H1356.64V229.898H1381.48V235.377H1363.44V247.005H1379.17V252.43Z" fill="#BCBCBC"/>
<circle cx="1975.5" cy="553.5" r="207.5" stroke="#1C1C1C" stroke-width="30"/>
<path d="M1975.5 346C2004.86 346 2033.89 352.232 2060.67 364.283C2087.44 376.335 2111.35 393.932 2130.82 415.911C2150.29 437.891 2164.88 463.752 2173.61 491.786C2182.34 519.82 2185.03 549.388 2181.48 578.536C2177.94 607.684 2168.25 635.749 2153.06 660.874C2137.86 686 2117.51 707.615 2093.34 724.291C2069.17 740.966 2041.74 752.322 2012.86 757.609C1983.98 762.896 1954.3 761.992 1925.79 754.958" stroke="url(#paint2_linear)" stroke-width="30" stroke-linecap="round" stroke-linejoin="round"/>
<path d="M1868.8 555.797L1871.88 527.125H1902.43V535.328H1879.77L1878.21 548.922C1880.84 547.411 1883.81 546.656 1887.12 546.656C1892.53 546.656 1896.74 548.388 1899.73 551.852C1902.76 555.315 1904.27 559.977 1904.27 565.836C1904.27 571.617 1902.6 576.227 1899.27 579.664C1895.93 583.076 1891.36 584.781 1885.55 584.781C1880.35 584.781 1876.02 583.31 1872.59 580.367C1869.17 577.398 1867.33 573.492 1867.04 568.648H1876.22C1876.58 571.409 1877.57 573.531 1879.19 575.016C1880.8 576.474 1882.91 577.203 1885.52 577.203C1888.43 577.203 1890.7 576.161 1892.31 574.078C1893.95 571.995 1894.77 569.156 1894.77 565.562C1894.77 562.099 1893.88 559.365 1892.08 557.359C1890.28 555.328 1887.81 554.312 1884.66 554.312C1882.94 554.312 1881.48 554.547 1880.28 555.016C1879.08 555.458 1877.78 556.344 1876.38 557.672L1868.8 555.797ZM1922.7 551.227H1928.48C1931.4 551.201 1933.71 550.445 1935.4 548.961C1937.12 547.477 1937.98 545.328 1937.98 542.516C1937.98 539.807 1937.26 537.711 1935.83 536.227C1934.42 534.716 1932.26 533.961 1929.34 533.961C1926.79 533.961 1924.7 534.703 1923.05 536.188C1921.41 537.646 1920.59 539.56 1920.59 541.93H1911.1C1911.1 539.013 1911.87 536.357 1913.41 533.961C1914.97 531.565 1917.13 529.703 1919.89 528.375C1922.68 527.021 1925.79 526.344 1929.23 526.344C1934.9 526.344 1939.36 527.776 1942.59 530.641C1945.84 533.479 1947.47 537.438 1947.47 542.516C1947.47 545.068 1946.65 547.477 1945.01 549.742C1943.39 551.982 1941.3 553.674 1938.72 554.82C1941.84 555.888 1944.21 557.568 1945.83 559.859C1947.47 562.151 1948.29 564.885 1948.29 568.062C1948.29 573.167 1946.53 577.229 1943.02 580.25C1939.53 583.271 1934.93 584.781 1929.23 584.781C1923.76 584.781 1919.28 583.323 1915.79 580.406C1912.3 577.49 1910.55 573.609 1910.55 568.766H1920.05C1920.05 571.266 1920.88 573.297 1922.55 574.859C1924.24 576.422 1926.51 577.203 1929.34 577.203C1932.29 577.203 1934.6 576.422 1936.3 574.859C1937.99 573.297 1938.84 571.031 1938.84 568.062C1938.84 565.068 1937.95 562.763 1936.18 561.148C1934.41 559.534 1931.78 558.727 1928.29 558.727H1922.7V551.227ZM1959.15 596.812L1954.03 593.766C1955.54 591.396 1956.57 589.326 1957.12 587.555C1957.69 585.81 1957.99 584.026 1958.02 582.203V574.82H1966.57L1966.53 581.656C1966.51 584.417 1965.8 587.177 1964.42 589.938C1963.07 592.724 1961.31 595.016 1959.15 596.812ZM2010.59 542.125C2010.59 544.911 2009.88 547.398 2008.45 549.586C2007.01 551.747 2005.06 553.453 2002.59 554.703C2005.55 556.083 2007.83 557.971 2009.42 560.367C2011.04 562.763 2011.84 565.471 2011.84 568.492C2011.84 573.492 2010.15 577.464 2006.77 580.406C2003.38 583.323 1998.88 584.781 1993.25 584.781C1987.6 584.781 1983.07 583.31 1979.66 580.367C1976.27 577.424 1974.58 573.466 1974.58 568.492C1974.58 565.445 1975.39 562.711 1977 560.289C1978.61 557.867 1980.88 556.005 1983.8 554.703C1981.35 553.453 1979.41 551.747 1977.98 549.586C1976.57 547.398 1975.87 544.911 1975.87 542.125C1975.87 537.281 1977.43 533.44 1980.55 530.602C1983.68 527.763 1987.9 526.344 1993.21 526.344C1998.55 526.344 2002.78 527.763 2005.91 530.602C2009.03 533.44 2010.59 537.281 2010.59 542.125ZM2002.35 568.023C2002.35 565.211 2001.51 562.945 1999.81 561.227C1998.15 559.482 1995.93 558.609 1993.17 558.609C1990.41 558.609 1988.2 559.469 1986.53 561.188C1984.89 562.906 1984.07 565.185 1984.07 568.023C1984.07 570.81 1984.88 573.036 1986.49 574.703C1988.13 576.37 1990.39 577.203 1993.25 577.203C1996.11 577.203 1998.34 576.396 1999.93 574.781C2001.54 573.167 2002.35 570.914 2002.35 568.023ZM2001.14 542.477C2001.14 540.003 2000.42 537.971 1998.99 536.383C1997.56 534.768 1995.63 533.961 1993.21 533.961C1990.79 533.961 1988.88 534.729 1987.47 536.266C1986.06 537.776 1985.36 539.846 1985.36 542.477C1985.36 545.081 1986.06 547.151 1987.47 548.688C1988.9 550.224 1990.83 550.992 1993.25 550.992C1995.67 550.992 1997.59 550.224 1998.99 548.688C2000.42 547.151 2001.14 545.081 2001.14 542.477ZM2022.78 555.797L2025.87 527.125H2056.41V535.328H2033.76L2032.2 548.922C2034.83 547.411 2037.79 546.656 2041.1 546.656C2046.52 546.656 2050.72 548.388 2053.72 551.852C2056.74 555.315 2058.25 559.977 2058.25 565.836C2058.25 571.617 2056.58 576.227 2053.25 579.664C2049.92 583.076 2045.35 584.781 2039.54 584.781C2034.33 584.781 2030.01 583.31 2026.57 580.367C2023.16 577.398 2021.31 573.492 2021.02 568.648H2030.2C2030.57 571.409 2031.56 573.531 2033.17 575.016C2034.79 576.474 2036.9 577.203 2039.5 577.203C2042.42 577.203 2044.68 576.161 2046.3 574.078C2047.94 571.995 2048.76 569.156 2048.76 565.562C2048.76 562.099 2047.86 559.365 2046.06 557.359C2044.27 555.328 2041.79 554.312 2038.64 554.312C2036.92 554.312 2035.46 554.547 2034.27 555.016C2033.07 555.458 2031.77 556.344 2030.36 557.672L2022.78 555.797ZM2065.32 538.062C2065.32 534.625 2066.43 531.812 2068.64 529.625C2070.85 527.411 2073.76 526.305 2077.35 526.305C2081 526.305 2083.91 527.411 2086.1 529.625C2088.32 531.812 2089.42 534.69 2089.42 538.258V541.07C2089.42 544.482 2088.32 547.281 2086.1 549.469C2083.91 551.656 2081.02 552.75 2077.43 552.75C2073.91 552.75 2071.01 551.682 2068.72 549.547C2066.45 547.385 2065.32 544.482 2065.32 540.836V538.062ZM2071.96 541.07C2071.96 542.867 2072.46 544.326 2073.45 545.445C2074.46 546.539 2075.79 547.086 2077.43 547.086C2079.04 547.086 2080.35 546.539 2081.34 545.445C2082.33 544.326 2082.82 542.815 2082.82 540.914V538.062C2082.82 536.266 2082.31 534.807 2081.3 533.688C2080.31 532.568 2078.99 532.008 2077.35 532.008C2075.71 532.008 2074.4 532.581 2073.41 533.727C2072.44 534.846 2071.96 536.331 2071.96 538.18V541.07ZM2092.66 570.055C2092.66 566.565 2093.8 563.74 2096.06 561.578C2098.33 559.417 2101.22 558.336 2104.73 558.336C2108.28 558.336 2111.17 559.417 2113.41 561.578C2115.67 563.74 2116.8 566.656 2116.8 570.328V573.102C2116.8 576.487 2115.71 579.286 2113.52 581.5C2111.36 583.688 2108.46 584.781 2104.81 584.781C2101.17 584.781 2098.22 583.701 2095.98 581.539C2093.77 579.352 2092.66 576.474 2092.66 572.906V570.055ZM2099.3 573.102C2099.3 574.872 2099.81 576.331 2100.83 577.477C2101.87 578.596 2103.2 579.156 2104.81 579.156C2106.48 579.156 2107.78 578.622 2108.72 577.555C2109.68 576.461 2110.16 574.938 2110.16 572.984V570.055C2110.16 568.232 2109.66 566.773 2108.64 565.68C2107.62 564.586 2106.32 564.039 2104.73 564.039C2103.12 564.039 2101.8 564.586 2100.79 565.68C2099.8 566.773 2099.3 568.284 2099.3 570.211V573.102ZM2079.38 579.742L2074.5 576.93L2102.27 532.477L2107.16 535.289L2079.38 579.742Z" fill="#BCBCBC"/>
<path d="M1867.94 876.574L1875.05 841.789H1883.02L1872.35 888H1864.67L1855.88 854.262L1846.9 888H1839.19L1828.52 841.789H1836.49L1843.66 876.511L1852.49 841.789H1859.21L1867.94 876.574ZM1895.75 857.404C1898.26 854.484 1901.45 853.024 1905.3 853.024C1912.62 853.024 1916.33 857.203 1916.44 865.561V888H1908.73V865.847C1908.73 863.477 1908.21 861.805 1907.17 860.832C1906.16 859.838 1904.65 859.34 1902.66 859.34C1899.57 859.34 1897.27 860.716 1895.75 863.466V888H1888.03V839.25H1895.75V857.404ZM1944.78 888C1944.44 887.344 1944.15 886.276 1943.89 884.794C1941.44 887.355 1938.43 888.635 1934.88 888.635C1931.43 888.635 1928.62 887.651 1926.44 885.683C1924.26 883.715 1923.17 881.282 1923.17 878.383C1923.17 874.723 1924.52 871.919 1927.23 869.973C1929.96 868.005 1933.85 867.021 1938.91 867.021H1943.64V864.768C1943.64 862.99 1943.14 861.573 1942.15 860.515C1941.15 859.436 1939.64 858.896 1937.61 858.896C1935.85 858.896 1934.41 859.34 1933.29 860.229C1932.17 861.097 1931.61 862.207 1931.61 863.562H1923.9C1923.9 861.678 1924.52 859.922 1925.77 858.293C1927.02 856.643 1928.71 855.352 1930.85 854.421C1933.01 853.49 1935.41 853.024 1938.05 853.024C1942.07 853.024 1945.28 854.04 1947.67 856.071C1950.06 858.081 1951.29 860.917 1951.35 864.577V880.065C1951.35 883.155 1951.78 885.62 1952.65 887.46V888H1944.78ZM1936.31 882.446C1937.83 882.446 1939.26 882.076 1940.59 881.335C1941.95 880.594 1942.96 879.6 1943.64 878.352V871.877H1939.48C1936.62 871.877 1934.48 872.374 1933.04 873.369C1931.6 874.363 1930.88 875.77 1930.88 877.59C1930.88 879.071 1931.37 880.256 1932.34 881.145C1933.33 882.012 1934.66 882.446 1936.31 882.446ZM1969.09 845.312V853.659H1975.15V859.372H1969.09V878.542C1969.09 879.854 1969.35 880.806 1969.85 881.398C1970.38 881.97 1971.31 882.255 1972.65 882.255C1973.54 882.255 1974.43 882.15 1975.34 881.938V887.905C1973.59 888.391 1971.9 888.635 1970.27 888.635C1964.34 888.635 1961.38 885.366 1961.38 878.828V859.372H1955.73V853.659H1961.38V845.312H1969.09ZM2000.32 878.669C2000.32 877.294 1999.75 876.246 1998.61 875.527C1997.49 874.807 1995.61 874.173 1992.99 873.623C1990.37 873.072 1988.18 872.374 1986.42 871.528C1982.57 869.666 1980.65 866.968 1980.65 863.435C1980.65 860.472 1981.89 857.997 1984.39 856.008C1986.89 854.019 1990.06 853.024 1993.91 853.024C1998.02 853.024 2001.33 854.04 2003.85 856.071C2006.38 858.103 2007.65 860.737 2007.65 863.974H1999.94C1999.94 862.493 1999.39 861.266 1998.29 860.292C1997.19 859.298 1995.73 858.801 1993.91 858.801C1992.22 858.801 1990.83 859.192 1989.75 859.975C1988.7 860.758 1988.17 861.805 1988.17 863.117C1988.17 864.302 1988.66 865.222 1989.66 865.878C1990.65 866.534 1992.66 867.201 1995.69 867.878C1998.71 868.534 2001.08 869.327 2002.8 870.258C2004.53 871.168 2005.81 872.268 2006.64 873.559C2007.49 874.85 2007.91 876.416 2007.91 878.256C2007.91 881.346 2006.63 883.853 2004.07 885.778C2001.51 887.683 1998.15 888.635 1994.01 888.635C1991.19 888.635 1988.69 888.127 1986.48 887.111C1984.28 886.096 1982.57 884.699 1981.34 882.922C1980.12 881.145 1979.5 879.23 1979.5 877.177H1986.99C1987.1 878.997 1987.79 880.404 1989.06 881.398C1990.33 882.372 1992.01 882.858 1994.1 882.858C1996.13 882.858 1997.68 882.478 1998.74 881.716C1999.79 880.933 2000.32 879.917 2000.32 878.669ZM2035.17 888C2034.83 887.344 2034.54 886.276 2034.28 884.794C2031.83 887.355 2028.82 888.635 2025.27 888.635C2021.82 888.635 2019.01 887.651 2016.83 885.683C2014.65 883.715 2013.56 881.282 2013.56 878.383C2013.56 874.723 2014.91 871.919 2017.62 869.973C2020.35 868.005 2024.24 867.021 2029.3 867.021H2034.03V864.768C2034.03 862.99 2033.53 861.573 2032.54 860.515C2031.54 859.436 2030.03 858.896 2028 858.896C2026.24 858.896 2024.8 859.34 2023.68 860.229C2022.56 861.097 2022 862.207 2022 863.562H2014.29C2014.29 861.678 2014.91 859.922 2016.16 858.293C2017.41 856.643 2019.1 855.352 2021.24 854.421C2023.4 853.49 2025.8 853.024 2028.44 853.024C2032.46 853.024 2035.67 854.04 2038.06 856.071C2040.45 858.081 2041.68 860.917 2041.74 864.577V880.065C2041.74 883.155 2042.17 885.62 2043.04 887.46V888H2035.17ZM2026.7 882.446C2028.22 882.446 2029.65 882.076 2030.98 881.335C2032.34 880.594 2033.35 879.6 2034.03 878.352V871.877H2029.87C2027.01 871.877 2024.87 872.374 2023.43 873.369C2021.99 874.363 2021.27 875.77 2021.27 877.59C2021.27 879.071 2021.76 880.256 2022.73 881.145C2023.72 882.012 2025.05 882.446 2026.7 882.446ZM2079.89 871.179C2079.89 876.49 2078.68 880.732 2076.27 883.906C2073.86 887.058 2070.62 888.635 2066.56 888.635C2062.79 888.635 2059.78 887.397 2057.52 884.921V901.203H2049.8V853.659H2056.91L2057.23 857.15C2059.49 854.4 2062.57 853.024 2066.47 853.024C2070.65 853.024 2073.93 854.59 2076.3 857.722C2078.7 860.832 2079.89 865.159 2079.89 870.703V871.179ZM2072.21 870.512C2072.21 867.084 2071.52 864.366 2070.15 862.355C2068.79 860.345 2066.85 859.34 2064.31 859.34C2061.15 859.34 2058.89 860.642 2057.52 863.244V878.479C2058.91 881.145 2061.2 882.478 2064.37 882.478C2066.83 882.478 2068.74 881.494 2070.12 879.526C2071.51 877.537 2072.21 874.532 2072.21 870.512ZM2116.52 871.179C2116.52 876.49 2115.31 880.732 2112.9 883.906C2110.49 887.058 2107.25 888.635 2103.19 888.635C2099.42 888.635 2096.41 887.397 2094.14 884.921V901.203H2086.43V853.659H2093.54L2093.86 857.15C2096.12 854.4 2099.2 853.024 2103.09 853.024C2107.28 853.024 2110.56 854.59 2112.93 857.722C2115.32 860.832 2116.52 865.159 2116.52 870.703V871.179ZM2108.84 870.512C2108.84 867.084 2108.15 864.366 2106.77 862.355C2105.42 860.345 2103.47 859.34 2100.93 859.34C2097.78 859.34 2095.52 860.642 2094.14 863.244V878.479C2095.54 881.145 2097.82 882.478 2101 882.478C2103.45 882.478 2105.37 881.494 2106.74 879.526C2108.14 877.537 2108.84 874.532 2108.84 870.512Z" fill="#BCBCBC"/>
<path d="M1786.85 257.098C1786.85 255.067 1786.13 253.501 1784.69 252.401C1783.27 251.301 1780.7 250.19 1776.98 249.068C1773.26 247.947 1770.29 246.699 1768.09 245.323C1763.88 242.678 1761.78 239.229 1761.78 234.977C1761.78 231.253 1763.29 228.185 1766.32 225.772C1769.36 223.36 1773.31 222.154 1778.15 222.154C1781.37 222.154 1784.24 222.747 1786.75 223.932C1789.27 225.117 1791.25 226.809 1792.69 229.01C1794.13 231.189 1794.85 233.612 1794.85 236.278H1786.85C1786.85 233.866 1786.09 231.983 1784.56 230.628C1783.06 229.253 1780.9 228.565 1778.09 228.565C1775.47 228.565 1773.42 229.126 1771.96 230.248C1770.53 231.369 1769.81 232.935 1769.81 234.945C1769.81 236.638 1770.59 238.055 1772.16 239.198C1773.72 240.319 1776.3 241.419 1779.9 242.499C1783.5 243.556 1786.38 244.773 1788.56 246.148C1790.74 247.503 1792.34 249.068 1793.36 250.846C1794.37 252.602 1794.88 254.665 1794.88 257.035C1794.88 260.886 1793.4 263.954 1790.44 266.239C1787.5 268.503 1783.5 269.635 1778.44 269.635C1775.1 269.635 1772.02 269.021 1769.2 267.794C1766.41 266.546 1764.23 264.832 1762.67 262.652C1761.12 260.473 1760.35 257.934 1760.35 255.035H1768.38C1768.38 257.659 1769.25 259.69 1770.98 261.129C1772.72 262.568 1775.2 263.287 1778.44 263.287C1781.23 263.287 1783.33 262.726 1784.72 261.605C1786.14 260.462 1786.85 258.96 1786.85 257.098ZM1809.38 269H1801.67V234.659H1809.38V269ZM1801.2 225.741C1801.2 224.556 1801.57 223.572 1802.31 222.789C1803.07 222.006 1804.15 221.615 1805.54 221.615C1806.94 221.615 1808.02 222.006 1808.78 222.789C1809.54 223.572 1809.92 224.556 1809.92 225.741C1809.92 226.904 1809.54 227.878 1808.78 228.661C1808.02 229.422 1806.94 229.803 1805.54 229.803C1804.15 229.803 1803.07 229.422 1802.31 228.661C1801.57 227.878 1801.2 226.904 1801.2 225.741ZM1825.06 234.659L1825.29 238.246C1827.7 235.431 1831 234.024 1835.19 234.024C1839.78 234.024 1842.92 235.781 1844.61 239.293C1847.11 235.781 1850.62 234.024 1855.15 234.024C1858.94 234.024 1861.75 235.072 1863.59 237.167C1865.46 239.261 1866.41 242.35 1866.45 246.434V269H1858.74V246.656C1858.74 244.477 1858.26 242.879 1857.31 241.864C1856.36 240.848 1854.78 240.34 1852.58 240.34C1850.82 240.34 1849.39 240.816 1848.26 241.769C1847.16 242.7 1846.39 243.927 1845.95 245.45L1845.98 269H1838.27V246.402C1838.16 242.361 1836.1 240.34 1832.08 240.34C1828.99 240.34 1826.8 241.599 1825.51 244.117V269H1817.79V234.659H1825.06ZM1895.17 265.636C1892.91 268.302 1889.69 269.635 1885.52 269.635C1881.8 269.635 1878.98 268.545 1877.05 266.366C1875.15 264.186 1874.19 261.034 1874.19 256.908V234.659H1881.91V256.812C1881.91 261.171 1883.72 263.351 1887.33 263.351C1891.08 263.351 1893.61 262.007 1894.92 259.32V234.659H1902.63V269H1895.36L1895.17 265.636ZM1918.69 269H1910.98V220.25H1918.69V269ZM1947.64 269C1947.3 268.344 1947 267.276 1946.75 265.794C1944.29 268.355 1941.29 269.635 1937.73 269.635C1934.28 269.635 1931.47 268.651 1929.29 266.683C1927.11 264.715 1926.02 262.282 1926.02 259.383C1926.02 255.723 1927.38 252.919 1930.08 250.973C1932.81 249.005 1936.71 248.021 1941.76 248.021H1946.49V245.768C1946.49 243.99 1946 242.573 1945 241.515C1944.01 240.436 1942.49 239.896 1940.46 239.896C1938.71 239.896 1937.27 240.34 1936.15 241.229C1935.03 242.097 1934.46 243.207 1934.46 244.562H1926.75C1926.75 242.678 1927.38 240.922 1928.62 239.293C1929.87 237.643 1931.57 236.352 1933.7 235.421C1935.86 234.49 1938.26 234.024 1940.91 234.024C1944.93 234.024 1948.13 235.04 1950.52 237.071C1952.92 239.081 1954.14 241.917 1954.21 245.577V261.065C1954.21 264.155 1954.64 266.62 1955.51 268.46V269H1947.64ZM1939.16 263.446C1940.69 263.446 1942.11 263.076 1943.45 262.335C1944.8 261.594 1945.82 260.6 1946.49 259.352V252.877H1942.34C1939.48 252.877 1937.33 253.374 1935.89 254.369C1934.45 255.363 1933.73 256.77 1933.73 258.59C1933.73 260.071 1934.22 261.256 1935.19 262.145C1936.19 263.012 1937.51 263.446 1939.16 263.446ZM1960.84 251.576C1960.84 246.286 1962.07 242.044 1964.52 238.849C1966.98 235.632 1970.27 234.024 1974.39 234.024C1978.03 234.024 1980.97 235.294 1983.21 237.833V220.25H1990.93V269H1983.94L1983.56 265.445C1981.26 268.238 1978.18 269.635 1974.33 269.635C1970.31 269.635 1967.05 268.016 1964.55 264.779C1962.08 261.542 1960.84 257.14 1960.84 251.576ZM1968.55 252.242C1968.55 255.733 1969.22 258.463 1970.55 260.431C1971.91 262.377 1973.82 263.351 1976.3 263.351C1979.45 263.351 1981.75 261.944 1983.21 259.129V244.466C1981.8 241.716 1979.51 240.34 1976.36 240.34C1973.86 240.34 1971.94 241.335 1970.58 243.324C1969.23 245.292 1968.55 248.264 1968.55 252.242ZM1997.53 251.512C1997.53 248.148 1998.2 245.122 1999.53 242.435C2000.86 239.727 2002.73 237.653 2005.15 236.214C2007.56 234.754 2010.33 234.024 2013.46 234.024C2018.1 234.024 2021.85 235.516 2024.73 238.5C2027.63 241.483 2029.19 245.44 2029.43 250.37L2029.46 252.179C2029.46 255.564 2028.8 258.59 2027.49 261.256C2026.2 263.922 2024.34 265.985 2021.9 267.445C2019.49 268.905 2016.7 269.635 2013.52 269.635C2008.68 269.635 2004.8 268.027 2001.88 264.811C1998.98 261.573 1997.53 257.267 1997.53 251.893V251.512ZM2005.24 252.179C2005.24 255.712 2005.97 258.484 2007.43 260.494C2008.89 262.483 2010.92 263.478 2013.52 263.478C2016.13 263.478 2018.15 262.462 2019.59 260.431C2021.05 258.399 2021.78 255.427 2021.78 251.512C2021.78 248.042 2021.03 245.292 2019.52 243.26C2018.04 241.229 2016.02 240.213 2013.46 240.213C2010.94 240.213 2008.94 241.218 2007.46 243.229C2005.98 245.217 2005.24 248.201 2005.24 252.179ZM2038.15 272.967H2032.09L2050.28 222.789H2056.34L2038.15 272.967ZM2068.51 263.575H2086.26V269H2061.71V229.898H2068.51V263.575ZM2097.78 269H2091.25V239.942H2097.78V269ZM2090.85 232.396C2090.85 231.393 2091.16 230.561 2091.79 229.898C2092.43 229.236 2093.35 228.905 2094.53 228.905C2095.71 228.905 2096.62 229.236 2097.27 229.898C2097.91 230.561 2098.23 231.393 2098.23 232.396C2098.23 233.381 2097.91 234.204 2097.27 234.867C2096.62 235.511 2095.71 235.833 2094.53 235.833C2093.35 235.833 2092.43 235.511 2091.79 234.867C2091.16 234.204 2090.85 233.381 2090.85 232.396ZM2110.96 239.942L2111.15 243.299C2113.3 240.703 2116.12 239.405 2119.61 239.405C2125.66 239.405 2128.74 242.87 2128.85 249.798V269H2122.32V250.174C2122.32 248.33 2121.92 246.97 2121.12 246.092C2120.33 245.197 2119.03 244.75 2117.22 244.75C2114.59 244.75 2112.63 245.94 2111.34 248.321V269H2104.81V239.942H2110.96ZM2144.96 256.539L2142.06 259.52V269H2135.54V227.75H2142.06V251.544L2144.1 248.993L2152.13 239.942H2159.98L2149.18 252.054L2161.13 269H2153.58L2144.96 256.539Z" fill="#BCBCBC"/>
<defs>
<linearGradient id="paint0_linear" x1="388.5" y1="346" x2="388.5" y2="761" gradientUnits="userSpaceOnUse">
<stop stop-color="#C90C00"/>
<stop offset="1" stop-color="#EC5703"/>
</linearGradient>
<linearGradient id="paint1_linear" x1="1181.5" y1="346" x2="1181.5" y2="761" gradientUnits="userSpaceOnUse">
<stop stop-color="#58C900"/>
<stop offset="1" stop-color="#CBEC03"/>
</linearGradient>
<linearGradient id="paint2_linear" x1="1975.5" y1="346" x2="1975.5" y2="761" gradientUnits="userSpaceOnUse">
<stop stop-color="#59C901"/>
<stop offset="1" stop-color="#A1DF02"/>
</linearGradient>
</defs>
</svg>
