<svg width="2400" height="1096" viewBox="0 0 2400 1096" fill="none" xmlns="http://www.w3.org/2000/svg">
<rect width="2400" height="1096" rx="20" fill="#E2ECF7"/>
<circle cx="388.5" cy="553.5" r="207.5" stroke="#1C1C1C" stroke-width="30"/>
<path d="M388.5 346C417.193 346 445.573 351.951 471.849 363.476C498.126 375.001 521.726 391.851 541.159 412.96C560.593 434.07 575.437 458.98 584.755 486.118C594.072 513.255 597.66 542.03 595.292 570.625C592.924 599.22 584.652 627.013 570.997 652.248C557.342 677.483 538.602 699.612 515.961 717.237C493.32 734.862 467.27 747.6 439.456 754.646C411.642 761.692 382.669 762.893 354.367 758.173" stroke="url(#paint0_linear_906_72)" stroke-width="30" stroke-linecap="round" stroke-linejoin="round"/>
<path d="M289.18 557.555L281.68 555.719L284.766 527.125H315.43V535.094H292.578L291.016 549.039C291.901 548.518 293.125 548.01 294.688 547.516C296.25 546.995 298.034 546.734 300.039 546.734C302.721 546.734 305.117 547.177 307.227 548.062C309.362 548.922 311.172 550.185 312.656 551.852C314.141 553.492 315.273 555.497 316.055 557.867C316.836 560.211 317.227 562.854 317.227 565.797C317.227 568.427 316.836 570.888 316.055 573.18C315.299 575.471 314.154 577.49 312.617 579.234C311.081 580.979 309.141 582.346 306.797 583.336C304.479 584.299 301.732 584.781 298.555 584.781C296.185 584.781 293.906 584.443 291.719 583.766C289.557 583.062 287.617 582.034 285.898 580.68C284.18 579.299 282.799 577.607 281.758 575.602C280.716 573.57 280.117 571.24 279.961 568.609H289.18C289.414 570.458 289.922 572.034 290.703 573.336C291.51 574.612 292.578 575.589 293.906 576.266C295.234 576.943 296.771 577.281 298.516 577.281C300.104 577.281 301.471 577.008 302.617 576.461C303.763 575.888 304.714 575.081 305.469 574.039C306.25 572.971 306.823 571.721 307.188 570.289C307.578 568.857 307.773 567.268 307.773 565.523C307.773 563.857 307.552 562.333 307.109 560.953C306.693 559.573 306.055 558.375 305.195 557.359C304.362 556.344 303.307 555.562 302.031 555.016C300.755 554.443 299.284 554.156 297.617 554.156C295.378 554.156 293.659 554.482 292.461 555.133C291.289 555.784 290.195 556.591 289.18 557.555ZM362.891 576.5V584H324.766V577.555L343.281 557.359C345.312 555.068 346.914 553.089 348.086 551.422C349.258 549.755 350.078 548.258 350.547 546.93C351.042 545.576 351.289 544.26 351.289 542.984C351.289 541.188 350.951 539.612 350.273 538.258C349.622 536.878 348.659 535.797 347.383 535.016C346.107 534.208 344.557 533.805 342.734 533.805C340.625 533.805 338.854 534.26 337.422 535.172C335.99 536.083 334.909 537.346 334.18 538.961C333.451 540.549 333.086 542.372 333.086 544.43H323.672C323.672 541.122 324.427 538.102 325.938 535.367C327.448 532.607 329.635 530.419 332.5 528.805C335.365 527.164 338.815 526.344 342.852 526.344C346.654 526.344 349.883 526.982 352.539 528.258C355.195 529.534 357.214 531.344 358.594 533.688C360 536.031 360.703 538.805 360.703 542.008C360.703 543.779 360.417 545.536 359.844 547.281C359.271 549.026 358.451 550.771 357.383 552.516C356.341 554.234 355.104 555.966 353.672 557.711C352.24 559.43 350.664 561.174 348.945 562.945L336.641 576.5H362.891ZM379.609 574.938L379.57 581.656C379.57 584.312 378.906 587.047 377.578 589.859C376.25 592.672 374.492 594.99 372.305 596.812L367.266 593.883C367.995 592.711 368.659 591.526 369.258 590.328C369.857 589.13 370.339 587.854 370.703 586.5C371.068 585.146 371.25 583.648 371.25 582.008V574.938H379.609ZM416.562 526.773H417.734V534.469H417.07C413.711 534.469 410.807 534.99 408.359 536.031C405.938 537.073 403.945 538.505 402.383 540.328C400.82 542.151 399.648 544.286 398.867 546.734C398.112 549.156 397.734 551.734 397.734 554.469V563.414C397.734 565.68 397.982 567.685 398.477 569.43C398.971 571.148 399.661 572.594 400.547 573.766C401.458 574.911 402.5 575.784 403.672 576.383C404.844 576.982 406.107 577.281 407.461 577.281C408.867 577.281 410.143 576.995 411.289 576.422C412.435 575.823 413.411 575.003 414.219 573.961C415.026 572.919 415.638 571.682 416.055 570.25C416.471 568.818 416.68 567.255 416.68 565.562C416.68 563.948 416.471 562.438 416.055 561.031C415.664 559.599 415.078 558.349 414.297 557.281C413.516 556.188 412.539 555.341 411.367 554.742C410.221 554.117 408.893 553.805 407.383 553.805C405.508 553.805 403.802 554.247 402.266 555.133C400.755 556.018 399.531 557.177 398.594 558.609C397.682 560.016 397.188 561.513 397.109 563.102L393.516 561.93C393.724 559.508 394.258 557.333 395.117 555.406C396.003 553.479 397.161 551.839 398.594 550.484C400.026 549.13 401.68 548.102 403.555 547.398C405.456 546.669 407.539 546.305 409.805 546.305C412.565 546.305 414.961 546.826 416.992 547.867C419.023 548.909 420.703 550.328 422.031 552.125C423.385 553.896 424.388 555.927 425.039 558.219C425.716 560.484 426.055 562.854 426.055 565.328C426.055 568.062 425.638 570.615 424.805 572.984C423.971 575.328 422.747 577.385 421.133 579.156C419.544 580.927 417.604 582.307 415.312 583.297C413.047 584.286 410.469 584.781 407.578 584.781C404.531 584.781 401.81 584.195 399.414 583.023C397.044 581.852 395.026 580.237 393.359 578.18C391.719 576.122 390.469 573.753 389.609 571.07C388.75 568.388 388.32 565.549 388.32 562.555V558.648C388.32 554.326 388.867 550.25 389.961 546.422C391.055 542.568 392.734 539.169 395 536.227C397.292 533.284 400.221 530.979 403.789 529.312C407.357 527.62 411.615 526.773 416.562 526.773ZM444.648 551.305H450.273C452.461 551.305 454.271 550.927 455.703 550.172C457.161 549.417 458.242 548.375 458.945 547.047C459.648 545.719 460 544.195 460 542.477C460 540.68 459.674 539.143 459.023 537.867C458.398 536.565 457.435 535.562 456.133 534.859C454.857 534.156 453.229 533.805 451.25 533.805C449.583 533.805 448.073 534.143 446.719 534.82C445.391 535.471 444.336 536.409 443.555 537.633C442.773 538.831 442.383 540.263 442.383 541.93H432.93C432.93 538.909 433.724 536.227 435.312 533.883C436.901 531.539 439.062 529.703 441.797 528.375C444.557 527.021 447.656 526.344 451.094 526.344C454.766 526.344 457.969 526.956 460.703 528.18C463.464 529.378 465.612 531.174 467.148 533.57C468.685 535.966 469.453 538.935 469.453 542.477C469.453 544.091 469.076 545.732 468.32 547.398C467.565 549.065 466.445 550.589 464.961 551.969C463.477 553.323 461.628 554.43 459.414 555.289C457.201 556.122 454.635 556.539 451.719 556.539H444.648V551.305ZM444.648 558.648V553.492H451.719C455.052 553.492 457.891 553.883 460.234 554.664C462.604 555.445 464.531 556.526 466.016 557.906C467.5 559.26 468.581 560.81 469.258 562.555C469.961 564.299 470.312 566.148 470.312 568.102C470.312 570.758 469.831 573.128 468.867 575.211C467.93 577.268 466.589 579.013 464.844 580.445C463.099 581.878 461.055 582.958 458.711 583.688C456.393 584.417 453.867 584.781 451.133 584.781C448.685 584.781 446.341 584.443 444.102 583.766C441.862 583.089 439.857 582.086 438.086 580.758C436.315 579.404 434.909 577.724 433.867 575.719C432.852 573.688 432.344 571.344 432.344 568.688H441.758C441.758 570.38 442.148 571.878 442.93 573.18C443.737 574.456 444.857 575.458 446.289 576.188C447.747 576.917 449.414 577.281 451.289 577.281C453.268 577.281 454.974 576.93 456.406 576.227C457.839 575.523 458.932 574.482 459.688 573.102C460.469 571.721 460.859 570.055 460.859 568.102C460.859 565.888 460.43 564.091 459.57 562.711C458.711 561.331 457.487 560.315 455.898 559.664C454.31 558.987 452.435 558.648 450.273 558.648H444.648ZM478.672 541.07V538.062C478.672 535.901 479.141 533.935 480.078 532.164C481.016 530.393 482.383 528.974 484.18 527.906C485.977 526.839 488.138 526.305 490.664 526.305C493.268 526.305 495.456 526.839 497.227 527.906C499.023 528.974 500.391 530.393 501.328 532.164C502.266 533.935 502.734 535.901 502.734 538.062V541.07C502.734 543.18 502.266 545.12 501.328 546.891C500.417 548.661 499.062 550.081 497.266 551.148C495.495 552.216 493.32 552.75 490.742 552.75C488.19 552.75 486.003 552.216 484.18 551.148C482.383 550.081 481.016 548.661 480.078 546.891C479.141 545.12 478.672 543.18 478.672 541.07ZM485.195 538.062V541.07C485.195 542.112 485.391 543.102 485.781 544.039C486.198 544.977 486.823 545.732 487.656 546.305C488.49 546.878 489.518 547.164 490.742 547.164C491.992 547.164 493.008 546.878 493.789 546.305C494.596 545.732 495.195 544.977 495.586 544.039C495.977 543.102 496.172 542.112 496.172 541.07V538.062C496.172 536.995 495.964 535.992 495.547 535.055C495.156 534.091 494.557 533.323 493.75 532.75C492.943 532.177 491.914 531.891 490.664 531.891C489.466 531.891 488.451 532.177 487.617 532.75C486.81 533.323 486.198 534.091 485.781 535.055C485.391 535.992 485.195 536.995 485.195 538.062ZM506.094 573.102V570.055C506.094 567.919 506.562 565.966 507.5 564.195C508.464 562.424 509.844 561.005 511.641 559.938C513.438 558.87 515.599 558.336 518.125 558.336C520.729 558.336 522.917 558.87 524.688 559.938C526.484 561.005 527.839 562.424 528.75 564.195C529.688 565.966 530.156 567.919 530.156 570.055V573.102C530.156 575.237 529.688 577.19 528.75 578.961C527.839 580.732 526.497 582.151 524.727 583.219C522.956 584.286 520.794 584.82 518.242 584.82C515.664 584.82 513.464 584.286 511.641 583.219C509.844 582.151 508.464 580.732 507.5 578.961C506.562 577.19 506.094 575.237 506.094 573.102ZM512.656 570.055V573.102C512.656 574.143 512.865 575.133 513.281 576.07C513.724 577.008 514.362 577.776 515.195 578.375C516.029 578.948 517.031 579.234 518.203 579.234C519.531 579.234 520.599 578.948 521.406 578.375C522.214 577.776 522.786 577.021 523.125 576.109C523.49 575.172 523.672 574.169 523.672 573.102V570.055C523.672 568.987 523.464 567.984 523.047 567.047C522.656 566.109 522.044 565.354 521.211 564.781C520.404 564.208 519.375 563.922 518.125 563.922C516.901 563.922 515.885 564.208 515.078 564.781C514.271 565.354 513.659 566.109 513.242 567.047C512.852 567.984 512.656 568.987 512.656 570.055ZM520.469 535.25L492.695 579.703L487.891 576.93L515.664 532.477L520.469 535.25Z" fill="#1C1C1C"/>
<path d="M277.109 841.789L287.836 863.847L298.564 841.789H307.387L291.835 870.988V888H283.806V870.988L268.254 841.789H277.109ZM308.117 871.21V870.48C308.117 868.005 308.477 865.709 309.196 863.593C309.916 861.456 310.952 859.605 312.307 858.039C313.682 856.452 315.354 855.225 317.321 854.357C319.31 853.469 321.553 853.024 324.05 853.024C326.568 853.024 328.811 853.469 330.778 854.357C332.767 855.225 334.449 856.452 335.825 858.039C337.2 859.605 338.247 861.456 338.967 863.593C339.686 865.709 340.046 868.005 340.046 870.48V871.21C340.046 873.686 339.686 875.982 338.967 878.098C338.247 880.214 337.2 882.065 335.825 883.652C334.449 885.218 332.778 886.445 330.81 887.333C328.842 888.201 326.61 888.635 324.113 888.635C321.595 888.635 319.342 888.201 317.353 887.333C315.385 886.445 313.714 885.218 312.338 883.652C310.963 882.065 309.916 880.214 309.196 878.098C308.477 875.982 308.117 873.686 308.117 871.21ZM315.766 870.48V871.21C315.766 872.755 315.925 874.215 316.242 875.59C316.56 876.966 317.057 878.172 317.734 879.208C318.411 880.245 319.278 881.06 320.336 881.652C321.394 882.245 322.653 882.541 324.113 882.541C325.531 882.541 326.758 882.245 327.795 881.652C328.853 881.06 329.72 880.245 330.397 879.208C331.075 878.172 331.572 876.966 331.889 875.59C332.228 874.215 332.397 872.755 332.397 871.21V870.48C332.397 868.957 332.228 867.518 331.889 866.164C331.572 864.789 331.064 863.572 330.366 862.514C329.689 861.456 328.821 860.631 327.763 860.039C326.726 859.425 325.489 859.118 324.05 859.118C322.611 859.118 321.363 859.425 320.305 860.039C319.268 860.631 318.411 861.456 317.734 862.514C317.057 863.572 316.56 864.789 316.242 866.164C315.925 867.518 315.766 868.957 315.766 870.48ZM367.119 879.907V853.659H374.799V888H367.563L367.119 879.907ZM368.198 872.766L370.769 872.702C370.769 875.008 370.515 877.135 370.007 879.082C369.499 881.007 368.716 882.689 367.658 884.128C366.6 885.546 365.246 886.656 363.596 887.46C361.945 888.243 359.967 888.635 357.661 888.635C355.989 888.635 354.455 888.391 353.059 887.905C351.662 887.418 350.456 886.667 349.44 885.651C348.446 884.636 347.674 883.313 347.124 881.684C346.573 880.055 346.298 878.108 346.298 875.844V853.659H353.947V875.908C353.947 877.156 354.095 878.203 354.392 879.05C354.688 879.875 355.09 880.542 355.598 881.049C356.105 881.557 356.698 881.917 357.375 882.128C358.052 882.34 358.771 882.446 359.533 882.446C361.713 882.446 363.426 882.023 364.675 881.176C365.944 880.309 366.844 879.145 367.373 877.685C367.923 876.225 368.198 874.585 368.198 872.766ZM398.381 853.659V859.245H379.021V853.659H398.381ZM384.606 845.249H392.255V878.51C392.255 879.568 392.403 880.383 392.7 880.954C393.017 881.504 393.451 881.875 394.001 882.065C394.551 882.255 395.196 882.351 395.937 882.351C396.466 882.351 396.974 882.319 397.46 882.255C397.947 882.192 398.339 882.128 398.635 882.065L398.667 887.905C398.032 888.095 397.291 888.264 396.445 888.413C395.62 888.561 394.667 888.635 393.588 888.635C391.832 888.635 390.277 888.328 388.923 887.714C387.569 887.08 386.511 886.053 385.749 884.636C384.987 883.218 384.606 881.335 384.606 878.986V845.249ZM424.946 879.907V853.659H432.626V888H425.39L424.946 879.907ZM426.025 872.766L428.596 872.702C428.596 875.008 428.342 877.135 427.834 879.082C427.326 881.007 426.543 882.689 425.485 884.128C424.427 885.546 423.073 886.656 421.423 887.46C419.772 888.243 417.794 888.635 415.488 888.635C413.816 888.635 412.282 888.391 410.886 887.905C409.489 887.418 408.283 886.667 407.268 885.651C406.273 884.636 405.501 883.313 404.951 881.684C404.401 880.055 404.125 878.108 404.125 875.844V853.659H411.774V875.908C411.774 877.156 411.923 878.203 412.219 879.05C412.515 879.875 412.917 880.542 413.425 881.049C413.933 881.557 414.525 881.917 415.202 882.128C415.879 882.34 416.599 882.446 417.36 882.446C419.54 882.446 421.254 882.023 422.502 881.176C423.771 880.309 424.671 879.145 425.2 877.685C425.75 876.225 426.025 874.585 426.025 872.766ZM440.498 839.25H448.146V880.668L447.417 888H440.498V839.25ZM470.554 870.512V871.179C470.554 873.718 470.268 876.056 469.697 878.193C469.147 880.309 468.3 882.15 467.158 883.715C466.036 885.281 464.64 886.498 462.968 887.365C461.318 888.212 459.403 888.635 457.224 888.635C455.087 888.635 453.225 888.233 451.638 887.429C450.051 886.625 448.718 885.482 447.639 884.001C446.581 882.52 445.724 880.753 445.068 878.701C444.412 876.648 443.946 874.384 443.671 871.909V869.782C443.946 867.285 444.412 865.021 445.068 862.99C445.724 860.938 446.581 859.171 447.639 857.69C448.718 856.188 450.04 855.035 451.606 854.23C453.193 853.426 455.044 853.024 457.16 853.024C459.361 853.024 461.297 853.448 462.968 854.294C464.661 855.14 466.068 856.346 467.189 857.912C468.311 859.457 469.147 861.298 469.697 863.435C470.268 865.572 470.554 867.931 470.554 870.512ZM462.905 871.179V870.512C462.905 868.968 462.778 867.518 462.524 866.164C462.27 864.789 461.847 863.583 461.254 862.546C460.683 861.509 459.9 860.694 458.906 860.102C457.932 859.488 456.716 859.182 455.256 859.182C453.902 859.182 452.738 859.414 451.765 859.88C450.791 860.345 449.977 860.98 449.321 861.784C448.665 862.588 448.146 863.519 447.766 864.577C447.406 865.635 447.163 866.778 447.036 868.005V873.75C447.226 875.336 447.628 876.796 448.242 878.129C448.876 879.441 449.765 880.499 450.908 881.303C452.05 882.086 453.521 882.478 455.319 882.478C456.737 882.478 457.932 882.192 458.906 881.621C459.879 881.049 460.651 880.256 461.223 879.24C461.815 878.203 462.238 876.997 462.492 875.622C462.767 874.247 462.905 872.766 462.905 871.179ZM492.167 888.635C489.628 888.635 487.333 888.222 485.28 887.397C483.249 886.551 481.514 885.376 480.075 883.874C478.658 882.372 477.568 880.605 476.806 878.574C476.044 876.542 475.664 874.353 475.664 872.004V870.734C475.664 868.047 476.055 865.614 476.838 863.435C477.621 861.255 478.71 859.393 480.107 857.849C481.503 856.283 483.154 855.087 485.058 854.262C486.962 853.437 489.025 853.024 491.247 853.024C493.701 853.024 495.849 853.437 497.69 854.262C499.531 855.087 501.054 856.251 502.26 857.753C503.487 859.235 504.397 861.001 504.99 863.054C505.603 865.106 505.91 867.37 505.91 869.846V873.115H479.377V867.624H498.356V867.021C498.314 865.646 498.039 864.355 497.531 863.149C497.045 861.943 496.293 860.97 495.278 860.229C494.262 859.488 492.908 859.118 491.215 859.118C489.946 859.118 488.814 859.393 487.819 859.943C486.846 860.472 486.031 861.245 485.375 862.26C484.72 863.276 484.212 864.503 483.852 865.942C483.514 867.36 483.344 868.957 483.344 870.734V872.004C483.344 873.506 483.545 874.903 483.947 876.193C484.37 877.463 484.984 878.574 485.788 879.526C486.592 880.478 487.565 881.229 488.708 881.779C489.851 882.308 491.152 882.573 492.612 882.573C494.453 882.573 496.092 882.202 497.531 881.462C498.97 880.721 500.218 879.674 501.276 878.32L505.307 882.224C504.567 883.303 503.604 884.34 502.419 885.334C501.234 886.307 499.785 887.101 498.071 887.714C496.378 888.328 494.41 888.635 492.167 888.635Z" fill="#1C1C1C"/>
<path d="M249.535 260.558L261.69 222.789H270.482L253.915 269H247.979L249.535 260.558ZM238.299 222.789L250.36 260.558L252.01 269H246.043L229.54 222.789H238.299ZM283.082 234.659V269H275.401V234.659H283.082ZM274.894 225.646C274.894 224.482 275.274 223.519 276.036 222.757C276.819 221.974 277.898 221.583 279.273 221.583C280.628 221.583 281.696 221.974 282.479 222.757C283.262 223.519 283.653 224.482 283.653 225.646C283.653 226.788 283.262 227.74 282.479 228.502C281.696 229.264 280.628 229.645 279.273 229.645C277.898 229.645 276.819 229.264 276.036 228.502C275.274 227.74 274.894 226.788 274.894 225.646ZM312.408 261.891V220.25H320.089V269H313.138L312.408 261.891ZM290.064 252.21V251.544C290.064 248.941 290.371 246.572 290.985 244.435C291.598 242.276 292.487 240.425 293.651 238.88C294.815 237.315 296.232 236.119 297.904 235.294C299.575 234.448 301.458 234.024 303.553 234.024C305.627 234.024 307.446 234.426 309.012 235.23C310.578 236.035 311.911 237.188 313.011 238.69C314.111 240.171 314.99 241.948 315.646 244.022C316.301 246.074 316.767 248.36 317.042 250.877V253.004C316.767 255.458 316.301 257.701 315.646 259.732C314.99 261.764 314.111 263.52 313.011 265.001C311.911 266.482 310.567 267.625 308.98 268.429C307.415 269.233 305.584 269.635 303.49 269.635C301.416 269.635 299.544 269.201 297.872 268.333C296.222 267.466 294.815 266.249 293.651 264.684C292.487 263.118 291.598 261.277 290.985 259.161C290.371 257.024 290.064 254.707 290.064 252.21ZM297.713 251.544V252.21C297.713 253.776 297.851 255.236 298.126 256.59C298.422 257.944 298.877 259.14 299.491 260.177C300.104 261.192 300.898 261.996 301.871 262.589C302.866 263.16 304.05 263.446 305.426 263.446C307.161 263.446 308.589 263.065 309.71 262.303C310.832 261.542 311.71 260.515 312.345 259.225C313.001 257.913 313.445 256.453 313.678 254.845V249.1C313.551 247.852 313.286 246.688 312.884 245.609C312.503 244.53 311.985 243.588 311.329 242.784C310.673 241.959 309.859 241.324 308.885 240.88C307.933 240.414 306.801 240.182 305.489 240.182C304.093 240.182 302.908 240.478 301.935 241.07C300.961 241.663 300.157 242.477 299.522 243.514C298.909 244.551 298.454 245.757 298.158 247.132C297.861 248.508 297.713 249.978 297.713 251.544ZM343.226 269.635C340.687 269.635 338.391 269.222 336.339 268.397C334.308 267.551 332.573 266.376 331.134 264.874C329.716 263.372 328.626 261.605 327.865 259.574C327.103 257.542 326.722 255.353 326.722 253.004V251.734C326.722 249.047 327.114 246.614 327.896 244.435C328.679 242.255 329.769 240.393 331.166 238.849C332.562 237.283 334.212 236.087 336.117 235.262C338.021 234.437 340.084 234.024 342.306 234.024C344.76 234.024 346.908 234.437 348.749 235.262C350.589 236.087 352.113 237.251 353.319 238.753C354.546 240.235 355.456 242.001 356.048 244.054C356.662 246.106 356.969 248.37 356.969 250.846V254.115H330.436V248.624H349.415V248.021C349.373 246.646 349.098 245.355 348.59 244.149C348.103 242.943 347.352 241.97 346.336 241.229C345.321 240.488 343.967 240.118 342.274 240.118C341.004 240.118 339.872 240.393 338.878 240.943C337.905 241.472 337.09 242.245 336.434 243.26C335.778 244.276 335.27 245.503 334.911 246.942C334.572 248.36 334.403 249.957 334.403 251.734V253.004C334.403 254.506 334.604 255.903 335.006 257.193C335.429 258.463 336.043 259.574 336.847 260.526C337.651 261.478 338.624 262.229 339.767 262.779C340.909 263.308 342.21 263.573 343.67 263.573C345.511 263.573 347.151 263.202 348.59 262.462C350.029 261.721 351.277 260.674 352.335 259.32L356.366 263.224C355.625 264.303 354.662 265.34 353.478 266.334C352.293 267.307 350.843 268.101 349.129 268.714C347.437 269.328 345.469 269.635 343.226 269.635ZM361.476 252.21V251.48C361.476 249.005 361.835 246.709 362.555 244.593C363.274 242.456 364.311 240.605 365.665 239.039C367.04 237.452 368.712 236.225 370.68 235.357C372.669 234.469 374.911 234.024 377.408 234.024C379.926 234.024 382.169 234.469 384.137 235.357C386.126 236.225 387.808 237.452 389.183 239.039C390.558 240.605 391.606 242.456 392.325 244.593C393.045 246.709 393.404 249.005 393.404 251.48V252.21C393.404 254.686 393.045 256.982 392.325 259.098C391.606 261.214 390.558 263.065 389.183 264.652C387.808 266.218 386.136 267.445 384.168 268.333C382.201 269.201 379.968 269.635 377.472 269.635C374.954 269.635 372.7 269.201 370.711 268.333C368.744 267.445 367.072 266.218 365.697 264.652C364.321 263.065 363.274 261.214 362.555 259.098C361.835 256.982 361.476 254.686 361.476 252.21ZM369.125 251.48V252.21C369.125 253.755 369.283 255.215 369.601 256.59C369.918 257.966 370.415 259.172 371.092 260.208C371.769 261.245 372.637 262.06 373.695 262.652C374.753 263.245 376.012 263.541 377.472 263.541C378.889 263.541 380.117 263.245 381.153 262.652C382.211 262.06 383.079 261.245 383.756 260.208C384.433 259.172 384.93 257.966 385.248 256.59C385.586 255.215 385.755 253.755 385.755 252.21V251.48C385.755 249.957 385.586 248.518 385.248 247.164C384.93 245.789 384.422 244.572 383.724 243.514C383.047 242.456 382.18 241.631 381.122 241.039C380.085 240.425 378.847 240.118 377.408 240.118C375.969 240.118 374.721 240.425 373.663 241.039C372.626 241.631 371.769 242.456 371.092 243.514C370.415 244.572 369.918 245.789 369.601 247.164C369.283 248.518 369.125 249.957 369.125 251.48ZM419.176 262.113V245.736C419.176 244.509 418.954 243.451 418.509 242.562C418.065 241.673 417.388 240.986 416.478 240.499C415.589 240.012 414.468 239.769 413.114 239.769C411.865 239.769 410.786 239.981 409.876 240.404C408.967 240.827 408.258 241.398 407.75 242.118C407.242 242.837 406.988 243.652 406.988 244.562H399.371C399.371 243.207 399.699 241.896 400.355 240.626C401.011 239.356 401.963 238.224 403.211 237.23C404.46 236.236 405.951 235.453 407.687 234.881C409.422 234.31 411.368 234.024 413.526 234.024C416.108 234.024 418.393 234.458 420.382 235.326C422.392 236.193 423.968 237.505 425.111 239.261C426.275 240.996 426.856 243.176 426.856 245.799V261.065C426.856 262.631 426.962 264.038 427.174 265.287C427.407 266.514 427.735 267.582 428.158 268.492V269H420.318C419.959 268.175 419.673 267.127 419.461 265.858C419.271 264.567 419.176 263.319 419.176 262.113ZM420.287 248.116L420.35 252.845H414.859C413.442 252.845 412.193 252.983 411.114 253.258C410.035 253.512 409.136 253.893 408.417 254.4C407.697 254.908 407.158 255.522 406.798 256.241C406.438 256.961 406.258 257.775 406.258 258.685C406.258 259.595 406.47 260.431 406.893 261.192C407.316 261.933 407.93 262.515 408.734 262.938C409.559 263.361 410.554 263.573 411.717 263.573C413.283 263.573 414.648 263.255 415.812 262.621C416.996 261.965 417.927 261.171 418.604 260.24C419.282 259.288 419.641 258.389 419.684 257.542L422.159 260.938C421.905 261.806 421.472 262.737 420.858 263.731C420.244 264.726 419.44 265.678 418.446 266.588C417.472 267.477 416.298 268.207 414.923 268.778C413.569 269.349 412.003 269.635 410.226 269.635C407.983 269.635 405.983 269.19 404.227 268.302C402.471 267.392 401.096 266.175 400.101 264.652C399.107 263.107 398.609 261.362 398.609 259.415C398.609 257.595 398.948 255.987 399.625 254.591C400.323 253.173 401.339 251.988 402.672 251.036C404.026 250.084 405.676 249.365 407.623 248.878C409.57 248.37 411.791 248.116 414.288 248.116H420.287ZM455.516 260.907V234.659H463.197V269H455.96L455.516 260.907ZM456.595 253.766L459.166 253.702C459.166 256.008 458.912 258.135 458.404 260.082C457.896 262.007 457.114 263.689 456.056 265.128C454.998 266.546 453.644 267.656 451.993 268.46C450.343 269.243 448.364 269.635 446.058 269.635C444.387 269.635 442.853 269.391 441.456 268.905C440.06 268.418 438.854 267.667 437.838 266.651C436.843 265.636 436.071 264.313 435.521 262.684C434.971 261.055 434.696 259.108 434.696 256.844V234.659H442.345V256.908C442.345 258.156 442.493 259.203 442.789 260.05C443.085 260.875 443.487 261.542 443.995 262.049C444.503 262.557 445.095 262.917 445.772 263.128C446.45 263.34 447.169 263.446 447.931 263.446C450.11 263.446 451.824 263.023 453.072 262.176C454.342 261.309 455.241 260.145 455.77 258.685C456.32 257.225 456.595 255.585 456.595 253.766ZM479.225 220.25V269H471.544V220.25H479.225ZM506.964 262.113V245.736C506.964 244.509 506.742 243.451 506.297 242.562C505.853 241.673 505.176 240.986 504.266 240.499C503.377 240.012 502.256 239.769 500.902 239.769C499.653 239.769 498.574 239.981 497.665 240.404C496.755 240.827 496.046 241.398 495.538 242.118C495.03 242.837 494.776 243.652 494.776 244.562H487.159C487.159 243.207 487.487 241.896 488.143 240.626C488.799 239.356 489.751 238.224 491 237.23C492.248 236.236 493.74 235.453 495.475 234.881C497.21 234.31 499.156 234.024 501.314 234.024C503.896 234.024 506.181 234.458 508.17 235.326C510.18 236.193 511.756 237.505 512.899 239.261C514.063 240.996 514.645 243.176 514.645 245.799V261.065C514.645 262.631 514.75 264.038 514.962 265.287C515.195 266.514 515.523 267.582 515.946 268.492V269H508.106C507.747 268.175 507.461 267.127 507.25 265.858C507.059 264.567 506.964 263.319 506.964 262.113ZM508.075 248.116L508.138 252.845H502.647C501.23 252.845 499.981 252.983 498.902 253.258C497.823 253.512 496.924 253.893 496.205 254.4C495.485 254.908 494.946 255.522 494.586 256.241C494.226 256.961 494.046 257.775 494.046 258.685C494.046 259.595 494.258 260.431 494.681 261.192C495.104 261.933 495.718 262.515 496.522 262.938C497.347 263.361 498.342 263.573 499.505 263.573C501.071 263.573 502.436 263.255 503.6 262.621C504.785 261.965 505.715 261.171 506.393 260.24C507.07 259.288 507.429 258.389 507.472 257.542L509.947 260.938C509.693 261.806 509.26 262.737 508.646 263.731C508.032 264.726 507.228 265.678 506.234 266.588C505.261 267.477 504.086 268.207 502.711 268.778C501.357 269.349 499.791 269.635 498.014 269.635C495.771 269.635 493.771 269.19 492.015 268.302C490.259 267.392 488.884 266.175 487.889 264.652C486.895 263.107 486.397 261.362 486.397 259.415C486.397 257.595 486.736 255.987 487.413 254.591C488.111 253.173 489.127 251.988 490.46 251.036C491.814 250.084 493.465 249.365 495.411 248.878C497.358 248.37 499.579 248.116 502.076 248.116H508.075ZM541.908 259.701C541.908 258.939 541.717 258.251 541.336 257.638C540.956 257.003 540.226 256.432 539.146 255.924C538.089 255.416 536.523 254.951 534.449 254.527C532.63 254.125 530.958 253.649 529.435 253.099C527.932 252.528 526.642 251.84 525.562 251.036C524.483 250.232 523.648 249.28 523.055 248.18C522.463 247.079 522.167 245.81 522.167 244.371C522.167 242.975 522.473 241.652 523.087 240.404C523.701 239.155 524.579 238.055 525.721 237.103C526.864 236.151 528.25 235.4 529.879 234.85C531.529 234.299 533.37 234.024 535.401 234.024C538.279 234.024 540.744 234.511 542.796 235.484C544.87 236.437 546.457 237.738 547.557 239.388C548.657 241.017 549.208 242.858 549.208 244.911H541.559C541.559 244.001 541.326 243.154 540.86 242.372C540.416 241.568 539.739 240.922 538.829 240.436C537.919 239.928 536.777 239.674 535.401 239.674C534.09 239.674 533 239.885 532.132 240.309C531.286 240.711 530.651 241.24 530.228 241.896C529.826 242.551 529.625 243.271 529.625 244.054C529.625 244.625 529.731 245.143 529.942 245.609C530.175 246.053 530.556 246.466 531.085 246.847C531.614 247.206 532.333 247.545 533.243 247.862C534.174 248.18 535.338 248.486 536.734 248.783C539.358 249.333 541.611 250.042 543.495 250.909C545.399 251.756 546.859 252.856 547.875 254.21C548.89 255.543 549.398 257.236 549.398 259.288C549.398 260.812 549.07 262.208 548.414 263.478C547.779 264.726 546.848 265.816 545.621 266.747C544.394 267.656 542.923 268.365 541.209 268.873C539.517 269.381 537.612 269.635 535.497 269.635C532.386 269.635 529.752 269.085 527.594 267.984C525.436 266.863 523.796 265.435 522.674 263.7C521.574 261.944 521.024 260.124 521.024 258.241H528.419C528.504 259.658 528.895 260.79 529.593 261.637C530.313 262.462 531.201 263.065 532.259 263.446C533.338 263.806 534.449 263.985 535.592 263.985C536.967 263.985 538.12 263.806 539.051 263.446C539.982 263.065 540.691 262.557 541.178 261.922C541.664 261.266 541.908 260.526 541.908 259.701Z" fill="#1C1C1C"/>
<circle cx="1181.5" cy="553.5" r="207.5" stroke="#1C1C1C" stroke-width="30"/>
<path d="M1181.5 346C1220.35 346 1258.42 356.906 1291.37 377.477C1324.33 398.048 1350.85 427.458 1367.91 462.359C1384.98 497.26 1391.9 536.25 1387.89 574.892C1383.89 613.535 1369.12 650.276 1345.26 680.936C1321.4 711.595 1289.41 734.941 1252.94 748.315C1216.46 761.69 1176.97 764.557 1138.94 756.589C1100.92 748.621 1065.9 730.139 1037.86 703.246C1009.82 676.354 989.901 642.13 980.358 604.472" stroke="url(#paint1_linear_906_72)" stroke-width="30" stroke-linecap="round" stroke-linejoin="round"/>
<path d="M1110.07 527.125V532.281L1087.34 584H1077.41L1100.11 534.625H1070.66V527.125H1110.07ZM1143.47 526.93V584H1134.05V538.102L1120.11 542.828V535.055L1142.34 526.93H1143.47ZM1172.61 574.938L1172.57 581.656C1172.57 584.312 1171.91 587.047 1170.58 589.859C1169.25 592.672 1167.49 594.99 1165.3 596.812L1160.27 593.883C1160.99 592.711 1161.66 591.526 1162.26 590.328C1162.86 589.13 1163.34 587.854 1163.7 586.5C1164.07 585.146 1164.25 583.648 1164.25 582.008V574.938H1172.61ZM1218.2 550.797V560.094C1218.2 564.547 1217.75 568.349 1216.87 571.5C1216.01 574.625 1214.76 577.164 1213.12 579.117C1211.48 581.07 1209.51 582.503 1207.22 583.414C1204.95 584.326 1202.41 584.781 1199.6 584.781C1197.36 584.781 1195.28 584.495 1193.35 583.922C1191.45 583.349 1189.73 582.451 1188.2 581.227C1186.66 580.003 1185.34 578.427 1184.25 576.5C1183.18 574.547 1182.35 572.216 1181.75 569.508C1181.18 566.799 1180.89 563.661 1180.89 560.094V550.797C1180.89 546.318 1181.33 542.542 1182.22 539.469C1183.1 536.37 1184.37 533.857 1186.01 531.93C1187.65 529.977 1189.6 528.557 1191.87 527.672C1194.16 526.786 1196.71 526.344 1199.52 526.344C1201.79 526.344 1203.87 526.63 1205.77 527.203C1207.7 527.75 1209.42 528.622 1210.93 529.82C1212.47 531.018 1213.77 532.581 1214.84 534.508C1215.93 536.409 1216.76 538.714 1217.34 541.422C1217.91 544.104 1218.2 547.229 1218.2 550.797ZM1208.78 561.422V549.391C1208.78 547.125 1208.65 545.133 1208.39 543.414C1208.13 541.669 1207.74 540.198 1207.22 539C1206.72 537.776 1206.1 536.786 1205.34 536.031C1204.59 535.25 1203.73 534.69 1202.77 534.352C1201.8 533.987 1200.72 533.805 1199.52 533.805C1198.07 533.805 1196.76 534.091 1195.62 534.664C1194.47 535.211 1193.51 536.096 1192.73 537.32C1191.95 538.544 1191.35 540.159 1190.93 542.164C1190.54 544.143 1190.34 546.552 1190.34 549.391V561.422C1190.34 563.714 1190.47 565.732 1190.73 567.477C1190.99 569.221 1191.39 570.719 1191.91 571.969C1192.43 573.193 1193.05 574.208 1193.78 575.016C1194.54 575.797 1195.4 576.37 1196.36 576.734C1197.35 577.099 1198.43 577.281 1199.6 577.281C1201.09 577.281 1202.4 576.995 1203.55 576.422C1204.69 575.849 1205.66 574.938 1206.44 573.688C1207.22 572.411 1207.8 570.758 1208.2 568.727C1208.59 566.695 1208.78 564.26 1208.78 561.422ZM1236.48 557.555L1228.98 555.719L1232.06 527.125H1262.73V535.094H1239.88L1238.31 549.039C1239.2 548.518 1240.42 548.01 1241.98 547.516C1243.55 546.995 1245.33 546.734 1247.34 546.734C1250.02 546.734 1252.41 547.177 1254.52 548.062C1256.66 548.922 1258.47 550.185 1259.95 551.852C1261.44 553.492 1262.57 555.497 1263.35 557.867C1264.13 560.211 1264.52 562.854 1264.52 565.797C1264.52 568.427 1264.13 570.888 1263.35 573.18C1262.6 575.471 1261.45 577.49 1259.91 579.234C1258.38 580.979 1256.44 582.346 1254.09 583.336C1251.78 584.299 1249.03 584.781 1245.85 584.781C1243.48 584.781 1241.2 584.443 1239.02 583.766C1236.85 583.062 1234.91 582.034 1233.2 580.68C1231.48 579.299 1230.1 577.607 1229.05 575.602C1228.01 573.57 1227.41 571.24 1227.26 568.609H1236.48C1236.71 570.458 1237.22 572.034 1238 573.336C1238.81 574.612 1239.88 575.589 1241.2 576.266C1242.53 576.943 1244.07 577.281 1245.81 577.281C1247.4 577.281 1248.77 577.008 1249.91 576.461C1251.06 575.888 1252.01 575.081 1252.77 574.039C1253.55 572.971 1254.12 571.721 1254.48 570.289C1254.88 568.857 1255.07 567.268 1255.07 565.523C1255.07 563.857 1254.85 562.333 1254.41 560.953C1253.99 559.573 1253.35 558.375 1252.49 557.359C1251.66 556.344 1250.6 555.562 1249.33 555.016C1248.05 554.443 1246.58 554.156 1244.91 554.156C1242.67 554.156 1240.96 554.482 1239.76 555.133C1238.59 555.784 1237.49 556.591 1236.48 557.555ZM1271.67 541.07V538.062C1271.67 535.901 1272.14 533.935 1273.08 532.164C1274.02 530.393 1275.38 528.974 1277.18 527.906C1278.98 526.839 1281.14 526.305 1283.66 526.305C1286.27 526.305 1288.46 526.839 1290.23 527.906C1292.02 528.974 1293.39 530.393 1294.33 532.164C1295.27 533.935 1295.73 535.901 1295.73 538.062V541.07C1295.73 543.18 1295.27 545.12 1294.33 546.891C1293.42 548.661 1292.06 550.081 1290.27 551.148C1288.49 552.216 1286.32 552.75 1283.74 552.75C1281.19 552.75 1279 552.216 1277.18 551.148C1275.38 550.081 1274.02 548.661 1273.08 546.891C1272.14 545.12 1271.67 543.18 1271.67 541.07ZM1278.2 538.062V541.07C1278.2 542.112 1278.39 543.102 1278.78 544.039C1279.2 544.977 1279.82 545.732 1280.66 546.305C1281.49 546.878 1282.52 547.164 1283.74 547.164C1284.99 547.164 1286.01 546.878 1286.79 546.305C1287.6 545.732 1288.2 544.977 1288.59 544.039C1288.98 543.102 1289.17 542.112 1289.17 541.07V538.062C1289.17 536.995 1288.96 535.992 1288.55 535.055C1288.16 534.091 1287.56 533.323 1286.75 532.75C1285.94 532.177 1284.91 531.891 1283.66 531.891C1282.47 531.891 1281.45 532.177 1280.62 532.75C1279.81 533.323 1279.2 534.091 1278.78 535.055C1278.39 535.992 1278.2 536.995 1278.2 538.062ZM1299.09 573.102V570.055C1299.09 567.919 1299.56 565.966 1300.5 564.195C1301.46 562.424 1302.84 561.005 1304.64 559.938C1306.44 558.87 1308.6 558.336 1311.12 558.336C1313.73 558.336 1315.92 558.87 1317.69 559.938C1319.48 561.005 1320.84 562.424 1321.75 564.195C1322.69 565.966 1323.16 567.919 1323.16 570.055V573.102C1323.16 575.237 1322.69 577.19 1321.75 578.961C1320.84 580.732 1319.5 582.151 1317.73 583.219C1315.96 584.286 1313.79 584.82 1311.24 584.82C1308.66 584.82 1306.46 584.286 1304.64 583.219C1302.84 582.151 1301.46 580.732 1300.5 578.961C1299.56 577.19 1299.09 575.237 1299.09 573.102ZM1305.66 570.055V573.102C1305.66 574.143 1305.86 575.133 1306.28 576.07C1306.72 577.008 1307.36 577.776 1308.2 578.375C1309.03 578.948 1310.03 579.234 1311.2 579.234C1312.53 579.234 1313.6 578.948 1314.41 578.375C1315.21 577.776 1315.79 577.021 1316.12 576.109C1316.49 575.172 1316.67 574.169 1316.67 573.102V570.055C1316.67 568.987 1316.46 567.984 1316.05 567.047C1315.66 566.109 1315.04 565.354 1314.21 564.781C1313.4 564.208 1312.38 563.922 1311.12 563.922C1309.9 563.922 1308.89 564.208 1308.08 564.781C1307.27 565.354 1306.66 566.109 1306.24 567.047C1305.85 567.984 1305.66 568.987 1305.66 570.055ZM1313.47 535.25L1285.7 579.703L1280.89 576.93L1308.66 532.477L1313.47 535.25Z" fill="#1C1C1C"/>
<path d="M1044.28 877.622L1053.49 841.789H1058.31L1057.77 851.025L1047.93 888H1042.92L1044.28 877.622ZM1037.39 841.789L1044.85 877.336L1045.52 888H1040.19L1029.49 841.789H1037.39ZM1068.75 877.241L1076.12 841.789H1084.05L1073.35 888H1068.02L1068.75 877.241ZM1060.18 841.789L1069.29 877.717L1070.62 888H1065.61L1055.93 851.025L1055.42 841.789H1060.18ZM1096.75 839.25V888H1089.13V839.25H1096.75ZM1095.41 869.56L1092.94 869.528C1092.96 867.159 1093.29 864.969 1093.92 862.958C1094.58 860.948 1095.49 859.203 1096.65 857.722C1097.83 856.219 1099.25 855.066 1100.9 854.262C1102.55 853.437 1104.38 853.024 1106.39 853.024C1108.09 853.024 1109.61 853.257 1110.96 853.723C1112.34 854.188 1113.52 854.939 1114.52 855.976C1115.51 856.992 1116.26 858.325 1116.77 859.975C1117.3 861.604 1117.57 863.593 1117.57 865.942V888H1109.88V865.878C1109.88 864.228 1109.64 862.916 1109.15 861.943C1108.69 860.97 1108 860.271 1107.09 859.848C1106.18 859.404 1105.07 859.182 1103.76 859.182C1102.38 859.182 1101.17 859.457 1100.11 860.007C1099.07 860.557 1098.21 861.308 1097.51 862.26C1096.81 863.212 1096.28 864.313 1095.92 865.561C1095.58 866.809 1095.41 868.142 1095.41 869.56ZM1144.67 881.113V864.736C1144.67 863.509 1144.45 862.451 1144 861.562C1143.56 860.673 1142.88 859.986 1141.97 859.499C1141.08 859.012 1139.96 858.769 1138.61 858.769C1137.36 858.769 1136.28 858.981 1135.37 859.404C1134.46 859.827 1133.75 860.398 1133.24 861.118C1132.74 861.837 1132.48 862.652 1132.48 863.562H1124.87C1124.87 862.207 1125.19 860.896 1125.85 859.626C1126.51 858.356 1127.46 857.224 1128.71 856.23C1129.95 855.236 1131.45 854.453 1133.18 853.881C1134.92 853.31 1136.86 853.024 1139.02 853.024C1141.6 853.024 1143.89 853.458 1145.88 854.326C1147.89 855.193 1149.46 856.505 1150.6 858.261C1151.77 859.996 1152.35 862.176 1152.35 864.799V880.065C1152.35 881.631 1152.46 883.038 1152.67 884.287C1152.9 885.514 1153.23 886.582 1153.65 887.492V888H1145.81C1145.45 887.175 1145.17 886.127 1144.96 884.858C1144.77 883.567 1144.67 882.319 1144.67 881.113ZM1145.78 867.116L1145.84 871.845H1140.35C1138.94 871.845 1137.69 871.983 1136.61 872.258C1135.53 872.512 1134.63 872.893 1133.91 873.4C1133.19 873.908 1132.65 874.522 1132.29 875.241C1131.93 875.961 1131.75 876.775 1131.75 877.685C1131.75 878.595 1131.96 879.431 1132.39 880.192C1132.81 880.933 1133.42 881.515 1134.23 881.938C1135.05 882.361 1136.05 882.573 1137.21 882.573C1138.78 882.573 1140.14 882.255 1141.31 881.621C1142.49 880.965 1143.42 880.171 1144.1 879.24C1144.78 878.288 1145.14 877.389 1145.18 876.542L1147.65 879.938C1147.4 880.806 1146.97 881.737 1146.35 882.731C1145.74 883.726 1144.93 884.678 1143.94 885.588C1142.97 886.477 1141.79 887.207 1140.42 887.778C1139.06 888.349 1137.5 888.635 1135.72 888.635C1133.48 888.635 1131.48 888.19 1129.72 887.302C1127.97 886.392 1126.59 885.175 1125.6 883.652C1124.6 882.107 1124.1 880.362 1124.1 878.415C1124.1 876.595 1124.44 874.987 1125.12 873.591C1125.82 872.173 1126.83 870.988 1128.17 870.036C1129.52 869.084 1131.17 868.365 1133.12 867.878C1135.06 867.37 1137.29 867.116 1139.78 867.116H1145.78ZM1176.09 853.659V859.245H1156.73V853.659H1176.09ZM1162.32 845.249H1169.97V878.51C1169.97 879.568 1170.11 880.383 1170.41 880.954C1170.73 881.504 1171.16 881.875 1171.71 882.065C1172.26 882.255 1172.91 882.351 1173.65 882.351C1174.18 882.351 1174.68 882.319 1175.17 882.255C1175.66 882.192 1176.05 882.128 1176.34 882.065L1176.38 887.905C1175.74 888.095 1175 888.264 1174.15 888.413C1173.33 888.561 1172.38 888.635 1171.3 888.635C1169.54 888.635 1167.99 888.328 1166.63 887.714C1165.28 887.08 1164.22 886.053 1163.46 884.636C1162.7 883.218 1162.32 881.335 1162.32 878.986V845.249ZM1201.26 878.701C1201.26 877.939 1201.07 877.251 1200.69 876.638C1200.31 876.003 1199.58 875.432 1198.5 874.924C1197.44 874.416 1195.87 873.951 1193.8 873.527C1191.98 873.125 1190.31 872.649 1188.79 872.099C1187.28 871.528 1185.99 870.84 1184.91 870.036C1183.83 869.232 1183 868.28 1182.41 867.18C1181.81 866.079 1181.52 864.81 1181.52 863.371C1181.52 861.975 1181.82 860.652 1182.44 859.404C1183.05 858.155 1183.93 857.055 1185.07 856.103C1186.22 855.151 1187.6 854.4 1189.23 853.85C1190.88 853.299 1192.72 853.024 1194.75 853.024C1197.63 853.024 1200.1 853.511 1202.15 854.484C1204.22 855.437 1205.81 856.738 1206.91 858.388C1208.01 860.017 1208.56 861.858 1208.56 863.911H1200.91C1200.91 863.001 1200.68 862.154 1200.21 861.372C1199.77 860.568 1199.09 859.922 1198.18 859.436C1197.27 858.928 1196.13 858.674 1194.75 858.674C1193.44 858.674 1192.35 858.885 1191.48 859.309C1190.64 859.711 1190 860.24 1189.58 860.896C1189.18 861.551 1188.98 862.271 1188.98 863.054C1188.98 863.625 1189.08 864.143 1189.29 864.609C1189.53 865.053 1189.91 865.466 1190.44 865.847C1190.97 866.206 1191.68 866.545 1192.59 866.862C1193.53 867.18 1194.69 867.486 1196.09 867.783C1198.71 868.333 1200.96 869.042 1202.85 869.909C1204.75 870.756 1206.21 871.856 1207.23 873.21C1208.24 874.543 1208.75 876.236 1208.75 878.288C1208.75 879.812 1208.42 881.208 1207.77 882.478C1207.13 883.726 1206.2 884.816 1204.97 885.747C1203.75 886.656 1202.27 887.365 1200.56 887.873C1198.87 888.381 1196.96 888.635 1194.85 888.635C1191.74 888.635 1189.1 888.085 1186.95 886.984C1184.79 885.863 1183.15 884.435 1182.03 882.7C1180.93 880.944 1180.38 879.124 1180.38 877.241H1187.77C1187.86 878.658 1188.25 879.79 1188.94 880.637C1189.66 881.462 1190.55 882.065 1191.61 882.446C1192.69 882.806 1193.8 882.985 1194.94 882.985C1196.32 882.985 1197.47 882.806 1198.4 882.446C1199.33 882.065 1200.04 881.557 1200.53 880.922C1201.02 880.266 1201.26 879.526 1201.26 878.701ZM1234.81 881.113V864.736C1234.81 863.509 1234.58 862.451 1234.14 861.562C1233.7 860.673 1233.02 859.986 1232.11 859.499C1231.22 859.012 1230.1 858.769 1228.74 858.769C1227.5 858.769 1226.42 858.981 1225.51 859.404C1224.6 859.827 1223.89 860.398 1223.38 861.118C1222.87 861.837 1222.62 862.652 1222.62 863.562H1215C1215 862.207 1215.33 860.896 1215.99 859.626C1216.64 858.356 1217.59 857.224 1218.84 856.23C1220.09 855.236 1221.58 854.453 1223.32 853.881C1225.05 853.31 1227 853.024 1229.16 853.024C1231.74 853.024 1234.02 853.458 1236.01 854.326C1238.02 855.193 1239.6 856.505 1240.74 858.261C1241.91 859.996 1242.49 862.176 1242.49 864.799V880.065C1242.49 881.631 1242.59 883.038 1242.8 884.287C1243.04 885.514 1243.37 886.582 1243.79 887.492V888H1235.95C1235.59 887.175 1235.3 886.127 1235.09 884.858C1234.9 883.567 1234.81 882.319 1234.81 881.113ZM1235.92 867.116L1235.98 871.845H1230.49C1229.07 871.845 1227.82 871.983 1226.75 872.258C1225.67 872.512 1224.77 872.893 1224.05 873.4C1223.33 873.908 1222.79 874.522 1222.43 875.241C1222.07 875.961 1221.89 876.775 1221.89 877.685C1221.89 878.595 1222.1 879.431 1222.52 880.192C1222.95 880.933 1223.56 881.515 1224.36 881.938C1225.19 882.361 1226.18 882.573 1227.35 882.573C1228.91 882.573 1230.28 882.255 1231.44 881.621C1232.63 880.965 1233.56 880.171 1234.24 879.24C1234.91 878.288 1235.27 877.389 1235.31 876.542L1237.79 879.938C1237.54 880.806 1237.1 881.737 1236.49 882.731C1235.88 883.726 1235.07 884.678 1234.08 885.588C1233.1 886.477 1231.93 887.207 1230.55 887.778C1229.2 888.349 1227.63 888.635 1225.86 888.635C1223.61 888.635 1221.61 888.19 1219.86 887.302C1218.1 886.392 1216.73 885.175 1215.73 883.652C1214.74 882.107 1214.24 880.362 1214.24 878.415C1214.24 876.595 1214.58 874.987 1215.26 873.591C1215.95 872.173 1216.97 870.988 1218.3 870.036C1219.66 869.084 1221.31 868.365 1223.25 867.878C1225.2 867.37 1227.42 867.116 1229.92 867.116H1235.92ZM1258.17 860.261V901.203H1250.52V853.659H1257.56L1258.17 860.261ZM1280.54 870.512V871.179C1280.54 873.675 1280.25 875.992 1279.65 878.129C1279.08 880.245 1278.22 882.097 1277.08 883.684C1275.96 885.249 1274.57 886.466 1272.92 887.333C1271.27 888.201 1269.37 888.635 1267.21 888.635C1265.07 888.635 1263.2 888.243 1261.59 887.46C1260.01 886.656 1258.66 885.524 1257.56 884.064C1256.46 882.604 1255.57 880.891 1254.9 878.923C1254.24 876.934 1253.78 874.755 1253.5 872.385V869.814C1253.78 867.296 1254.24 865.011 1254.9 862.958C1255.57 860.906 1256.46 859.139 1257.56 857.658C1258.66 856.177 1260.01 855.035 1261.59 854.23C1263.18 853.426 1265.03 853.024 1267.15 853.024C1269.31 853.024 1271.22 853.448 1272.89 854.294C1274.56 855.119 1275.97 856.304 1277.11 857.849C1278.26 859.372 1279.11 861.213 1279.68 863.371C1280.26 865.508 1280.54 867.889 1280.54 870.512ZM1272.89 871.179V870.512C1272.89 868.925 1272.74 867.455 1272.45 866.101C1272.15 864.725 1271.69 863.519 1271.05 862.482C1270.42 861.446 1269.6 860.642 1268.61 860.07C1267.63 859.478 1266.46 859.182 1265.08 859.182C1263.73 859.182 1262.57 859.414 1261.59 859.88C1260.62 860.324 1259.81 860.948 1259.15 861.752C1258.49 862.556 1257.99 863.498 1257.63 864.577C1257.27 865.635 1257.01 866.788 1256.86 868.037V874.194C1257.12 875.717 1257.55 877.114 1258.17 878.383C1258.78 879.653 1259.65 880.668 1260.77 881.43C1261.91 882.171 1263.37 882.541 1265.15 882.541C1266.52 882.541 1267.7 882.245 1268.67 881.652C1269.64 881.06 1270.44 880.245 1271.05 879.208C1271.69 878.151 1272.15 876.934 1272.45 875.559C1272.74 874.183 1272.89 872.723 1272.89 871.179ZM1294.73 860.261V901.203H1287.08V853.659H1294.13L1294.73 860.261ZM1317.1 870.512V871.179C1317.1 873.675 1316.81 875.992 1316.22 878.129C1315.64 880.245 1314.79 882.097 1313.64 883.684C1312.52 885.249 1311.14 886.466 1309.49 887.333C1307.84 888.201 1305.93 888.635 1303.77 888.635C1301.64 888.635 1299.76 888.243 1298.16 887.46C1296.57 886.656 1295.23 885.524 1294.13 884.064C1293.03 882.604 1292.14 880.891 1291.46 878.923C1290.8 876.934 1290.34 874.755 1290.06 872.385V869.814C1290.34 867.296 1290.8 865.011 1291.46 862.958C1292.14 860.906 1293.03 859.139 1294.13 857.658C1295.23 856.177 1296.57 855.035 1298.16 854.23C1299.74 853.426 1301.59 853.024 1303.71 853.024C1305.87 853.024 1307.78 853.448 1309.46 854.294C1311.13 855.119 1312.53 856.304 1313.68 857.849C1314.82 859.372 1315.68 861.213 1316.25 863.371C1316.82 865.508 1317.1 867.889 1317.1 870.512ZM1309.46 871.179V870.512C1309.46 868.925 1309.31 867.455 1309.01 866.101C1308.71 864.725 1308.25 863.519 1307.61 862.482C1306.98 861.446 1306.16 860.642 1305.17 860.07C1304.2 859.478 1303.02 859.182 1301.65 859.182C1300.29 859.182 1299.13 859.414 1298.16 859.88C1297.18 860.324 1296.37 860.948 1295.71 861.752C1295.06 862.556 1294.55 863.498 1294.19 864.577C1293.83 865.635 1293.58 866.788 1293.43 868.037V874.194C1293.68 875.717 1294.11 877.114 1294.73 878.383C1295.34 879.653 1296.21 880.668 1297.33 881.43C1298.47 882.171 1299.93 882.541 1301.71 882.541C1303.09 882.541 1304.26 882.245 1305.23 881.652C1306.21 881.06 1307 880.245 1307.61 879.208C1308.25 878.151 1308.71 876.934 1309.01 875.559C1309.31 874.183 1309.46 872.723 1309.46 871.179Z" fill="#1C1C1C"/>
<path d="M971.693 228.946L957.887 269H949.54L966.932 222.789H972.264L971.693 228.946ZM983.246 269L969.408 228.946L968.805 222.789H974.168L991.625 269H983.246ZM982.579 251.861V258.177H957.442V251.861H982.579ZM1011.21 234.659V240.245H991.847V234.659H1011.21ZM997.433 226.249H1005.08V259.51C1005.08 260.568 1005.23 261.383 1005.53 261.954C1005.84 262.504 1006.28 262.875 1006.83 263.065C1007.38 263.255 1008.02 263.351 1008.76 263.351C1009.29 263.351 1009.8 263.319 1010.29 263.255C1010.77 263.192 1011.16 263.128 1011.46 263.065L1011.49 268.905C1010.86 269.095 1010.12 269.264 1009.27 269.413C1008.45 269.561 1007.49 269.635 1006.41 269.635C1004.66 269.635 1003.1 269.328 1001.75 268.714C1000.39 268.08 999.337 267.053 998.575 265.636C997.813 264.218 997.433 262.335 997.433 259.986V226.249ZM1025.3 234.659V269H1017.62V234.659H1025.3ZM1017.11 225.646C1017.11 224.482 1017.49 223.519 1018.25 222.757C1019.04 221.974 1020.11 221.583 1021.49 221.583C1022.84 221.583 1023.91 221.974 1024.7 222.757C1025.48 223.519 1025.87 224.482 1025.87 225.646C1025.87 226.788 1025.48 227.74 1024.7 228.502C1023.91 229.264 1022.84 229.645 1021.49 229.645C1020.11 229.645 1019.04 229.264 1018.25 228.502C1017.49 227.74 1017.11 226.788 1017.11 225.646ZM1044.85 262.938L1053.26 234.659H1061.19L1049.26 269H1044.31L1044.85 262.938ZM1038.41 234.659L1046.98 263.065L1047.39 269H1042.44L1030.44 234.659H1038.41ZM1074.11 234.659V269H1066.43V234.659H1074.11ZM1065.92 225.646C1065.92 224.482 1066.3 223.519 1067.07 222.757C1067.85 221.974 1068.93 221.583 1070.3 221.583C1071.66 221.583 1072.73 221.974 1073.51 222.757C1074.29 223.519 1074.68 224.482 1074.68 225.646C1074.68 226.788 1074.29 227.74 1073.51 228.502C1072.73 229.264 1071.66 229.645 1070.3 229.645C1068.93 229.645 1067.85 229.264 1067.07 228.502C1066.3 227.74 1065.92 226.788 1065.92 225.646ZM1103.44 261.891V220.25H1111.12V269H1104.17L1103.44 261.891ZM1081.09 252.21V251.544C1081.09 248.941 1081.4 246.572 1082.02 244.435C1082.63 242.276 1083.52 240.425 1084.68 238.88C1085.84 237.315 1087.26 236.119 1088.93 235.294C1090.61 234.448 1092.49 234.024 1094.58 234.024C1096.66 234.024 1098.48 234.426 1100.04 235.23C1101.61 236.035 1102.94 237.188 1104.04 238.69C1105.14 240.171 1106.02 241.948 1106.68 244.022C1107.33 246.074 1107.8 248.36 1108.07 250.877V253.004C1107.8 255.458 1107.33 257.701 1106.68 259.732C1106.02 261.764 1105.14 263.52 1104.04 265.001C1102.94 266.482 1101.6 267.625 1100.01 268.429C1098.44 269.233 1096.61 269.635 1094.52 269.635C1092.45 269.635 1090.57 269.201 1088.9 268.333C1087.25 267.466 1085.84 266.249 1084.68 264.684C1083.52 263.118 1082.63 261.277 1082.02 259.161C1081.4 257.024 1081.09 254.707 1081.09 252.21ZM1088.74 251.544V252.21C1088.74 253.776 1088.88 255.236 1089.16 256.59C1089.45 257.944 1089.91 259.14 1090.52 260.177C1091.13 261.192 1091.93 261.996 1092.9 262.589C1093.9 263.16 1095.08 263.446 1096.46 263.446C1098.19 263.446 1099.62 263.065 1100.74 262.303C1101.86 261.542 1102.74 260.515 1103.38 259.225C1104.03 257.913 1104.48 256.453 1104.71 254.845V249.1C1104.58 247.852 1104.32 246.688 1103.91 245.609C1103.53 244.53 1103.02 243.588 1102.36 242.784C1101.7 241.959 1100.89 241.324 1099.92 240.88C1098.96 240.414 1097.83 240.182 1096.52 240.182C1095.12 240.182 1093.94 240.478 1092.96 241.07C1091.99 241.663 1091.19 242.477 1090.55 243.514C1089.94 244.551 1089.48 245.757 1089.19 247.132C1088.89 248.508 1088.74 249.978 1088.74 251.544ZM1138.48 262.113V245.736C1138.48 244.509 1138.26 243.451 1137.81 242.562C1137.37 241.673 1136.69 240.986 1135.78 240.499C1134.89 240.012 1133.77 239.769 1132.42 239.769C1131.17 239.769 1130.09 239.981 1129.18 240.404C1128.27 240.827 1127.56 241.398 1127.05 242.118C1126.54 242.837 1126.29 243.652 1126.29 244.562H1118.67C1118.67 243.207 1119 241.896 1119.66 240.626C1120.31 239.356 1121.26 238.224 1122.51 237.23C1123.76 236.236 1125.25 235.453 1126.99 234.881C1128.72 234.31 1130.67 234.024 1132.83 234.024C1135.41 234.024 1137.69 234.458 1139.68 235.326C1141.69 236.193 1143.27 237.505 1144.41 239.261C1145.58 240.996 1146.16 243.176 1146.16 245.799V261.065C1146.16 262.631 1146.26 264.038 1146.48 265.287C1146.71 266.514 1147.04 267.582 1147.46 268.492V269H1139.62C1139.26 268.175 1138.97 267.127 1138.76 265.858C1138.57 264.567 1138.48 263.319 1138.48 262.113ZM1139.59 248.116L1139.65 252.845H1134.16C1132.74 252.845 1131.5 252.983 1130.42 253.258C1129.34 253.512 1128.44 253.893 1127.72 254.4C1127 254.908 1126.46 255.522 1126.1 256.241C1125.74 256.961 1125.56 257.775 1125.56 258.685C1125.56 259.595 1125.77 260.431 1126.19 261.192C1126.62 261.933 1127.23 262.515 1128.04 262.938C1128.86 263.361 1129.86 263.573 1131.02 263.573C1132.58 263.573 1133.95 263.255 1135.11 262.621C1136.3 261.965 1137.23 261.171 1137.91 260.24C1138.58 259.288 1138.94 258.389 1138.99 257.542L1141.46 260.938C1141.21 261.806 1140.77 262.737 1140.16 263.731C1139.55 264.726 1138.74 265.678 1137.75 266.588C1136.77 267.477 1135.6 268.207 1134.22 268.778C1132.87 269.349 1131.3 269.635 1129.53 269.635C1127.28 269.635 1125.28 269.19 1123.53 268.302C1121.77 267.392 1120.4 266.175 1119.4 264.652C1118.41 263.107 1117.91 261.362 1117.91 259.415C1117.91 257.595 1118.25 255.987 1118.93 254.591C1119.62 253.173 1120.64 251.988 1121.97 251.036C1123.33 250.084 1124.98 249.365 1126.92 248.878C1128.87 248.37 1131.09 248.116 1133.59 248.116H1139.59ZM1175.1 261.891V220.25H1182.78V269H1175.83L1175.1 261.891ZM1152.76 252.21V251.544C1152.76 248.941 1153.07 246.572 1153.68 244.435C1154.29 242.276 1155.18 240.425 1156.35 238.88C1157.51 237.315 1158.93 236.119 1160.6 235.294C1162.27 234.448 1164.15 234.024 1166.25 234.024C1168.32 234.024 1170.14 234.426 1171.71 235.23C1173.27 236.035 1174.61 237.188 1175.71 238.69C1176.81 240.171 1177.68 241.948 1178.34 244.022C1179 246.074 1179.46 248.36 1179.74 250.877V253.004C1179.46 255.458 1179 257.701 1178.34 259.732C1177.68 261.764 1176.81 263.52 1175.71 265.001C1174.61 266.482 1173.26 267.625 1171.68 268.429C1170.11 269.233 1168.28 269.635 1166.19 269.635C1164.11 269.635 1162.24 269.201 1160.57 268.333C1158.92 267.466 1157.51 266.249 1156.35 264.684C1155.18 263.118 1154.29 261.277 1153.68 259.161C1153.07 257.024 1152.76 254.707 1152.76 252.21ZM1160.41 251.544V252.21C1160.41 253.776 1160.55 255.236 1160.82 256.59C1161.12 257.944 1161.57 259.14 1162.19 260.177C1162.8 261.192 1163.59 261.996 1164.57 262.589C1165.56 263.16 1166.75 263.446 1168.12 263.446C1169.86 263.446 1171.28 263.065 1172.41 262.303C1173.53 261.542 1174.41 260.515 1175.04 259.225C1175.7 257.913 1176.14 256.453 1176.37 254.845V249.1C1176.25 247.852 1175.98 246.688 1175.58 245.609C1175.2 244.53 1174.68 243.588 1174.02 242.784C1173.37 241.959 1172.55 241.324 1171.58 240.88C1170.63 240.414 1169.5 240.182 1168.18 240.182C1166.79 240.182 1165.6 240.478 1164.63 241.07C1163.66 241.663 1162.85 242.477 1162.22 243.514C1161.6 244.551 1161.15 245.757 1160.85 247.132C1160.56 248.508 1160.41 249.978 1160.41 251.544ZM1205.92 269.635C1203.38 269.635 1201.09 269.222 1199.03 268.397C1197 267.551 1195.27 266.376 1193.83 264.874C1192.41 263.372 1191.32 261.605 1190.56 259.574C1189.8 257.542 1189.42 255.353 1189.42 253.004V251.734C1189.42 249.047 1189.81 246.614 1190.59 244.435C1191.37 242.255 1192.46 240.393 1193.86 238.849C1195.26 237.283 1196.91 236.087 1198.81 235.262C1200.72 234.437 1202.78 234.024 1205 234.024C1207.46 234.024 1209.6 234.437 1211.44 235.262C1213.28 236.087 1214.81 237.251 1216.01 238.753C1217.24 240.235 1218.15 242.001 1218.74 244.054C1219.36 246.106 1219.66 248.37 1219.66 250.846V254.115H1193.13V248.624H1212.11V248.021C1212.07 246.646 1211.79 245.355 1211.29 244.149C1210.8 242.943 1210.05 241.97 1209.03 241.229C1208.02 240.488 1206.66 240.118 1204.97 240.118C1203.7 240.118 1202.57 240.393 1201.57 240.943C1200.6 241.472 1199.79 242.245 1199.13 243.26C1198.47 244.276 1197.97 245.503 1197.61 246.942C1197.27 248.36 1197.1 249.957 1197.1 251.734V253.004C1197.1 254.506 1197.3 255.903 1197.7 257.193C1198.12 258.463 1198.74 259.574 1199.54 260.526C1200.35 261.478 1201.32 262.229 1202.46 262.779C1203.6 263.308 1204.91 263.573 1206.37 263.573C1208.21 263.573 1209.85 263.202 1211.29 262.462C1212.72 261.721 1213.97 260.674 1215.03 259.32L1219.06 263.224C1218.32 264.303 1217.36 265.34 1216.17 266.334C1214.99 267.307 1213.54 268.101 1211.82 268.714C1210.13 269.328 1208.16 269.635 1205.92 269.635ZM1244.9 259.701C1244.9 258.939 1244.71 258.251 1244.32 257.638C1243.94 257.003 1243.21 256.432 1242.13 255.924C1241.08 255.416 1239.51 254.951 1237.44 254.527C1235.62 254.125 1233.95 253.649 1232.42 253.099C1230.92 252.528 1229.63 251.84 1228.55 251.036C1227.47 250.232 1226.64 249.28 1226.04 248.18C1225.45 247.079 1225.15 245.81 1225.15 244.371C1225.15 242.975 1225.46 241.652 1226.08 240.404C1226.69 239.155 1227.57 238.055 1228.71 237.103C1229.85 236.151 1231.24 235.4 1232.87 234.85C1234.52 234.299 1236.36 234.024 1238.39 234.024C1241.27 234.024 1243.73 234.511 1245.78 235.484C1247.86 236.437 1249.45 237.738 1250.55 239.388C1251.65 241.017 1252.2 242.858 1252.2 244.911H1244.55C1244.55 244.001 1244.31 243.154 1243.85 242.372C1243.4 241.568 1242.73 240.922 1241.82 240.436C1240.91 239.928 1239.76 239.674 1238.39 239.674C1237.08 239.674 1235.99 239.885 1235.12 240.309C1234.27 240.711 1233.64 241.24 1233.22 241.896C1232.81 242.551 1232.61 243.271 1232.61 244.054C1232.61 244.625 1232.72 245.143 1232.93 245.609C1233.16 246.053 1233.54 246.466 1234.07 246.847C1234.6 247.206 1235.32 247.545 1236.23 247.862C1237.16 248.18 1238.33 248.486 1239.72 248.783C1242.35 249.333 1244.6 250.042 1246.48 250.909C1248.39 251.756 1249.85 252.856 1250.86 254.21C1251.88 255.543 1252.39 257.236 1252.39 259.288C1252.39 260.812 1252.06 262.208 1251.4 263.478C1250.77 264.726 1249.84 265.816 1248.61 266.747C1247.38 267.656 1245.91 268.365 1244.2 268.873C1242.51 269.381 1240.6 269.635 1238.48 269.635C1235.37 269.635 1232.74 269.085 1230.58 267.984C1228.42 266.863 1226.78 265.435 1225.66 263.7C1224.56 261.944 1224.01 260.124 1224.01 258.241H1231.41C1231.49 259.658 1231.88 260.79 1232.58 261.637C1233.3 262.462 1234.19 263.065 1235.25 263.446C1236.33 263.806 1237.44 263.985 1238.58 263.985C1239.96 263.985 1241.11 263.806 1242.04 263.446C1242.97 263.065 1243.68 262.557 1244.17 261.922C1244.65 261.266 1244.9 260.526 1244.9 259.701ZM1279.17 222.789L1261.18 272.967H1255.18L1273.21 222.789H1279.17ZM1299.36 254.417H1289.19V249.073H1299.36C1301.14 249.073 1302.57 248.787 1303.66 248.214C1304.75 247.641 1305.55 246.853 1306.05 245.851C1306.57 244.83 1306.83 243.666 1306.83 242.359C1306.83 241.124 1306.57 239.969 1306.05 238.895C1305.55 237.803 1304.75 236.926 1303.66 236.263C1302.57 235.601 1301.14 235.27 1299.36 235.27H1291.25V269H1284.51V229.898H1299.36C1302.39 229.898 1304.96 230.436 1307.07 231.51C1309.2 232.566 1310.82 234.034 1311.93 235.914C1313.04 237.776 1313.6 239.907 1313.6 242.306C1313.6 244.83 1313.04 246.996 1311.93 248.805C1310.82 250.613 1309.2 252 1307.07 252.967C1304.96 253.934 1302.39 254.417 1299.36 254.417ZM1331 269H1322.65L1322.7 263.656H1331C1333.42 263.656 1335.44 263.128 1337.07 262.071C1338.72 261.015 1339.95 259.502 1340.77 257.533C1341.62 255.563 1342.04 253.218 1342.04 250.497V248.375C1342.04 246.262 1341.8 244.391 1341.31 242.762C1340.85 241.133 1340.15 239.763 1339.22 238.653C1338.3 237.543 1337.18 236.702 1335.83 236.129C1334.51 235.556 1332.98 235.27 1331.24 235.27H1322.49V229.898H1331.24C1333.84 229.898 1336.21 230.337 1338.36 231.214C1340.51 232.074 1342.36 233.318 1343.92 234.947C1345.49 236.576 1346.7 238.528 1347.54 240.802C1348.38 243.076 1348.8 245.618 1348.8 248.429V250.497C1348.8 253.307 1348.38 255.85 1347.54 258.124C1346.7 260.397 1345.49 262.349 1343.92 263.978C1342.34 265.589 1340.46 266.834 1338.28 267.711C1336.11 268.57 1333.69 269 1331 269ZM1326.38 229.898V269H1319.64V229.898H1326.38ZM1362.31 229.898V269H1355.57V229.898H1362.31ZM1378.27 247.005V252.35H1360.59V247.005H1378.27ZM1380.49 229.898V235.27H1360.59V229.898H1380.49Z" fill="#1C1C1C"/>
<circle cx="1975.5" cy="553.5" r="207.5" stroke="#1C1C1C" stroke-width="30"/>
<path d="M1975.5 346C2004.86 346 2033.89 352.232 2060.67 364.283C2087.44 376.335 2111.35 393.932 2130.82 415.911C2150.29 437.891 2164.88 463.752 2173.61 491.786C2182.34 519.82 2185.03 549.388 2181.48 578.536C2177.94 607.684 2168.25 635.749 2153.06 660.874C2137.86 686 2117.51 707.615 2093.34 724.291C2069.17 740.966 2041.74 752.322 2012.86 757.609C1983.98 762.896 1954.3 761.992 1925.79 754.958" stroke="url(#paint2_linear_906_72)" stroke-width="30" stroke-linecap="round" stroke-linejoin="round"/>
<path d="M1876.18 557.555L1868.68 555.719L1871.77 527.125H1902.43V535.094H1879.58L1878.02 549.039C1878.9 548.518 1880.12 548.01 1881.69 547.516C1883.25 546.995 1885.03 546.734 1887.04 546.734C1889.72 546.734 1892.12 547.177 1894.23 548.062C1896.36 548.922 1898.17 550.185 1899.66 551.852C1901.14 553.492 1902.27 555.497 1903.05 557.867C1903.84 560.211 1904.23 562.854 1904.23 565.797C1904.23 568.427 1903.84 570.888 1903.05 573.18C1902.3 575.471 1901.15 577.49 1899.62 579.234C1898.08 580.979 1896.14 582.346 1893.8 583.336C1891.48 584.299 1888.73 584.781 1885.55 584.781C1883.18 584.781 1880.91 584.443 1878.72 583.766C1876.56 583.062 1874.62 582.034 1872.9 580.68C1871.18 579.299 1869.8 577.607 1868.76 575.602C1867.72 573.57 1867.12 571.24 1866.96 568.609H1876.18C1876.41 570.458 1876.92 572.034 1877.7 573.336C1878.51 574.612 1879.58 575.589 1880.91 576.266C1882.23 576.943 1883.77 577.281 1885.52 577.281C1887.1 577.281 1888.47 577.008 1889.62 576.461C1890.76 575.888 1891.71 575.081 1892.47 574.039C1893.25 572.971 1893.82 571.721 1894.19 570.289C1894.58 568.857 1894.77 567.268 1894.77 565.523C1894.77 563.857 1894.55 562.333 1894.11 560.953C1893.69 559.573 1893.05 558.375 1892.2 557.359C1891.36 556.344 1890.31 555.562 1889.03 555.016C1887.76 554.443 1886.28 554.156 1884.62 554.156C1882.38 554.156 1880.66 554.482 1879.46 555.133C1878.29 555.784 1877.2 556.591 1876.18 557.555ZM1922.82 551.305H1928.45C1930.63 551.305 1932.44 550.927 1933.88 550.172C1935.33 549.417 1936.41 548.375 1937.12 547.047C1937.82 545.719 1938.17 544.195 1938.17 542.477C1938.17 540.68 1937.85 539.143 1937.2 537.867C1936.57 536.565 1935.61 535.562 1934.3 534.859C1933.03 534.156 1931.4 533.805 1929.42 533.805C1927.76 533.805 1926.24 534.143 1924.89 534.82C1923.56 535.471 1922.51 536.409 1921.73 537.633C1920.95 538.831 1920.55 540.263 1920.55 541.93H1911.1C1911.1 538.909 1911.9 536.227 1913.48 533.883C1915.07 531.539 1917.23 529.703 1919.97 528.375C1922.73 527.021 1925.83 526.344 1929.27 526.344C1932.94 526.344 1936.14 526.956 1938.88 528.18C1941.64 529.378 1943.78 531.174 1945.32 533.57C1946.86 535.966 1947.62 538.935 1947.62 542.477C1947.62 544.091 1947.25 545.732 1946.49 547.398C1945.74 549.065 1944.62 550.589 1943.13 551.969C1941.65 553.323 1939.8 554.43 1937.59 555.289C1935.37 556.122 1932.81 556.539 1929.89 556.539H1922.82V551.305ZM1922.82 558.648V553.492H1929.89C1933.22 553.492 1936.06 553.883 1938.41 554.664C1940.78 555.445 1942.7 556.526 1944.19 557.906C1945.67 559.26 1946.75 560.81 1947.43 562.555C1948.13 564.299 1948.48 566.148 1948.48 568.102C1948.48 570.758 1948 573.128 1947.04 575.211C1946.1 577.268 1944.76 579.013 1943.02 580.445C1941.27 581.878 1939.23 582.958 1936.88 583.688C1934.57 584.417 1932.04 584.781 1929.3 584.781C1926.86 584.781 1924.51 584.443 1922.27 583.766C1920.03 583.089 1918.03 582.086 1916.26 580.758C1914.49 579.404 1913.08 577.724 1912.04 575.719C1911.02 573.688 1910.52 571.344 1910.52 568.688H1919.93C1919.93 570.38 1920.32 571.878 1921.1 573.18C1921.91 574.456 1923.03 575.458 1924.46 576.188C1925.92 576.917 1927.59 577.281 1929.46 577.281C1931.44 577.281 1933.15 576.93 1934.58 576.227C1936.01 575.523 1937.1 574.482 1937.86 573.102C1938.64 571.721 1939.03 570.055 1939.03 568.102C1939.03 565.888 1938.6 564.091 1937.74 562.711C1936.88 561.331 1935.66 560.315 1934.07 559.664C1932.48 558.987 1930.61 558.648 1928.45 558.648H1922.82ZM1966.61 574.938L1966.57 581.656C1966.57 584.312 1965.91 587.047 1964.58 589.859C1963.25 592.672 1961.49 594.99 1959.3 596.812L1954.27 593.883C1954.99 592.711 1955.66 591.526 1956.26 590.328C1956.86 589.13 1957.34 587.854 1957.7 586.5C1958.07 585.146 1958.25 583.648 1958.25 582.008V574.938H1966.61ZM2012.31 568.492C2012.31 572.034 2011.49 575.016 2009.85 577.438C2008.21 579.859 2005.97 581.695 2003.13 582.945C2000.32 584.169 1997.14 584.781 1993.6 584.781C1990.06 584.781 1986.87 584.169 1984.03 582.945C1981.19 581.695 1978.95 579.859 1977.31 577.438C1975.67 575.016 1974.85 572.034 1974.85 568.492C1974.85 566.148 1975.31 564.026 1976.22 562.125C1977.13 560.198 1978.42 558.544 1980.09 557.164C1981.78 555.758 1983.76 554.677 1986.02 553.922C1988.32 553.167 1990.82 552.789 1993.52 552.789C1997.12 552.789 2000.33 553.453 2003.17 554.781C2006.01 556.109 2008.24 557.945 2009.85 560.289C2011.49 562.633 2012.31 565.367 2012.31 568.492ZM2002.86 568.023C2002.86 566.122 2002.47 564.456 2001.69 563.023C2000.91 561.591 1999.81 560.484 1998.41 559.703C1997 558.922 1995.37 558.531 1993.52 558.531C1991.65 558.531 1990.02 558.922 1988.64 559.703C1987.26 560.484 1986.18 561.591 1985.4 563.023C1984.64 564.456 1984.27 566.122 1984.27 568.023C1984.27 569.951 1984.64 571.617 1985.4 573.023C1986.15 574.404 1987.23 575.458 1988.64 576.188C1990.05 576.917 1991.7 577.281 1993.6 577.281C1995.5 577.281 1997.14 576.917 1998.52 576.188C1999.9 575.458 2000.97 574.404 2001.73 573.023C2002.48 571.617 2002.86 569.951 2002.86 568.023ZM2011.02 542.086C2011.02 544.924 2010.27 547.451 2008.76 549.664C2007.27 551.878 2005.22 553.622 2002.59 554.898C1999.96 556.148 1996.96 556.773 1993.6 556.773C1990.22 556.773 1987.2 556.148 1984.54 554.898C1981.91 553.622 1979.84 551.878 1978.33 549.664C1976.84 547.451 1976.1 544.924 1976.1 542.086C1976.1 538.701 1976.84 535.849 1978.33 533.531C1979.84 531.188 1981.91 529.404 1984.54 528.18C1987.17 526.956 1990.18 526.344 1993.56 526.344C1996.95 526.344 1999.96 526.956 2002.59 528.18C2005.22 529.404 2007.27 531.188 2008.76 533.531C2010.27 535.849 2011.02 538.701 2011.02 542.086ZM2001.61 542.398C2001.61 540.706 2001.27 539.221 2000.59 537.945C1999.94 536.643 1999.02 535.628 1997.82 534.898C1996.62 534.169 1995.2 533.805 1993.56 533.805C1991.92 533.805 1990.5 534.156 1989.3 534.859C1988.11 535.562 1987.18 536.552 1986.53 537.828C1985.88 539.104 1985.55 540.628 1985.55 542.398C1985.55 544.143 1985.88 545.667 1986.53 546.969C1987.18 548.245 1988.11 549.247 1989.3 549.977C1990.53 550.706 1991.96 551.07 1993.6 551.07C1995.24 551.07 1996.66 550.706 1997.86 549.977C1999.06 549.247 1999.98 548.245 2000.63 546.969C2001.28 545.667 2001.61 544.143 2001.61 542.398ZM2030.48 557.555L2022.98 555.719L2026.06 527.125H2056.73V535.094H2033.88L2032.31 549.039C2033.2 548.518 2034.42 548.01 2035.98 547.516C2037.55 546.995 2039.33 546.734 2041.34 546.734C2044.02 546.734 2046.41 547.177 2048.52 548.062C2050.66 548.922 2052.47 550.185 2053.95 551.852C2055.44 553.492 2056.57 555.497 2057.35 557.867C2058.13 560.211 2058.52 562.854 2058.52 565.797C2058.52 568.427 2058.13 570.888 2057.35 573.18C2056.6 575.471 2055.45 577.49 2053.91 579.234C2052.38 580.979 2050.44 582.346 2048.09 583.336C2045.78 584.299 2043.03 584.781 2039.85 584.781C2037.48 584.781 2035.2 584.443 2033.02 583.766C2030.85 583.062 2028.91 582.034 2027.2 580.68C2025.48 579.299 2024.1 577.607 2023.05 575.602C2022.01 573.57 2021.41 571.24 2021.26 568.609H2030.48C2030.71 570.458 2031.22 572.034 2032 573.336C2032.81 574.612 2033.88 575.589 2035.2 576.266C2036.53 576.943 2038.07 577.281 2039.81 577.281C2041.4 577.281 2042.77 577.008 2043.91 576.461C2045.06 575.888 2046.01 575.081 2046.77 574.039C2047.55 572.971 2048.12 571.721 2048.48 570.289C2048.88 568.857 2049.07 567.268 2049.07 565.523C2049.07 563.857 2048.85 562.333 2048.41 560.953C2047.99 559.573 2047.35 558.375 2046.49 557.359C2045.66 556.344 2044.6 555.562 2043.33 555.016C2042.05 554.443 2040.58 554.156 2038.91 554.156C2036.67 554.156 2034.96 554.482 2033.76 555.133C2032.59 555.784 2031.49 556.591 2030.48 557.555ZM2065.67 541.07V538.062C2065.67 535.901 2066.14 533.935 2067.08 532.164C2068.02 530.393 2069.38 528.974 2071.18 527.906C2072.98 526.839 2075.14 526.305 2077.66 526.305C2080.27 526.305 2082.46 526.839 2084.23 527.906C2086.02 528.974 2087.39 530.393 2088.33 532.164C2089.27 533.935 2089.73 535.901 2089.73 538.062V541.07C2089.73 543.18 2089.27 545.12 2088.33 546.891C2087.42 548.661 2086.06 550.081 2084.27 551.148C2082.49 552.216 2080.32 552.75 2077.74 552.75C2075.19 552.75 2073 552.216 2071.18 551.148C2069.38 550.081 2068.02 548.661 2067.08 546.891C2066.14 545.12 2065.67 543.18 2065.67 541.07ZM2072.2 538.062V541.07C2072.2 542.112 2072.39 543.102 2072.78 544.039C2073.2 544.977 2073.82 545.732 2074.66 546.305C2075.49 546.878 2076.52 547.164 2077.74 547.164C2078.99 547.164 2080.01 546.878 2080.79 546.305C2081.6 545.732 2082.2 544.977 2082.59 544.039C2082.98 543.102 2083.17 542.112 2083.17 541.07V538.062C2083.17 536.995 2082.96 535.992 2082.55 535.055C2082.16 534.091 2081.56 533.323 2080.75 532.75C2079.94 532.177 2078.91 531.891 2077.66 531.891C2076.47 531.891 2075.45 532.177 2074.62 532.75C2073.81 533.323 2073.2 534.091 2072.78 535.055C2072.39 535.992 2072.2 536.995 2072.2 538.062ZM2093.09 573.102V570.055C2093.09 567.919 2093.56 565.966 2094.5 564.195C2095.46 562.424 2096.84 561.005 2098.64 559.938C2100.44 558.87 2102.6 558.336 2105.12 558.336C2107.73 558.336 2109.92 558.87 2111.69 559.938C2113.48 561.005 2114.84 562.424 2115.75 564.195C2116.69 565.966 2117.16 567.919 2117.16 570.055V573.102C2117.16 575.237 2116.69 577.19 2115.75 578.961C2114.84 580.732 2113.5 582.151 2111.73 583.219C2109.96 584.286 2107.79 584.82 2105.24 584.82C2102.66 584.82 2100.46 584.286 2098.64 583.219C2096.84 582.151 2095.46 580.732 2094.5 578.961C2093.56 577.19 2093.09 575.237 2093.09 573.102ZM2099.66 570.055V573.102C2099.66 574.143 2099.86 575.133 2100.28 576.07C2100.72 577.008 2101.36 577.776 2102.2 578.375C2103.03 578.948 2104.03 579.234 2105.2 579.234C2106.53 579.234 2107.6 578.948 2108.41 578.375C2109.21 577.776 2109.79 577.021 2110.12 576.109C2110.49 575.172 2110.67 574.169 2110.67 573.102V570.055C2110.67 568.987 2110.46 567.984 2110.05 567.047C2109.66 566.109 2109.04 565.354 2108.21 564.781C2107.4 564.208 2106.38 563.922 2105.12 563.922C2103.9 563.922 2102.89 564.208 2102.08 564.781C2101.27 565.354 2100.66 566.109 2100.24 567.047C2099.85 567.984 2099.66 568.987 2099.66 570.055ZM2107.47 535.25L2079.7 579.703L2074.89 576.93L2102.66 532.477L2107.47 535.25Z" fill="#1C1C1C"/>
<path d="M1843.28 877.622L1852.49 841.789H1857.31L1856.77 851.025L1846.93 888H1841.92L1843.28 877.622ZM1836.39 841.789L1843.85 877.336L1844.52 888H1839.19L1828.49 841.789H1836.39ZM1867.75 877.241L1875.12 841.789H1883.05L1872.35 888H1867.02L1867.75 877.241ZM1859.18 841.789L1868.29 877.717L1869.62 888H1864.61L1854.93 851.025L1854.42 841.789H1859.18ZM1895.75 839.25V888H1888.13V839.25H1895.75ZM1894.41 869.56L1891.94 869.528C1891.96 867.159 1892.29 864.969 1892.92 862.958C1893.58 860.948 1894.49 859.203 1895.65 857.722C1896.83 856.219 1898.25 855.066 1899.9 854.262C1901.55 853.437 1903.38 853.024 1905.39 853.024C1907.09 853.024 1908.61 853.257 1909.96 853.723C1911.34 854.188 1912.52 854.939 1913.52 855.976C1914.51 856.992 1915.26 858.325 1915.77 859.975C1916.3 861.604 1916.57 863.593 1916.57 865.942V888H1908.88V865.878C1908.88 864.228 1908.64 862.916 1908.15 861.943C1907.69 860.97 1907 860.271 1906.09 859.848C1905.18 859.404 1904.07 859.182 1902.76 859.182C1901.38 859.182 1900.17 859.457 1899.11 860.007C1898.07 860.557 1897.21 861.308 1896.51 862.26C1895.81 863.212 1895.28 864.313 1894.92 865.561C1894.58 866.809 1894.41 868.142 1894.41 869.56ZM1943.67 881.113V864.736C1943.67 863.509 1943.45 862.451 1943 861.562C1942.56 860.673 1941.88 859.986 1940.97 859.499C1940.08 859.012 1938.96 858.769 1937.61 858.769C1936.36 858.769 1935.28 858.981 1934.37 859.404C1933.46 859.827 1932.75 860.398 1932.24 861.118C1931.74 861.837 1931.48 862.652 1931.48 863.562H1923.87C1923.87 862.207 1924.19 860.896 1924.85 859.626C1925.51 858.356 1926.46 857.224 1927.71 856.23C1928.95 855.236 1930.45 854.453 1932.18 853.881C1933.92 853.31 1935.86 853.024 1938.02 853.024C1940.6 853.024 1942.89 853.458 1944.88 854.326C1946.89 855.193 1948.46 856.505 1949.6 858.261C1950.77 859.996 1951.35 862.176 1951.35 864.799V880.065C1951.35 881.631 1951.46 883.038 1951.67 884.287C1951.9 885.514 1952.23 886.582 1952.65 887.492V888H1944.81C1944.45 887.175 1944.17 886.127 1943.96 884.858C1943.77 883.567 1943.67 882.319 1943.67 881.113ZM1944.78 867.116L1944.84 871.845H1939.35C1937.94 871.845 1936.69 871.983 1935.61 872.258C1934.53 872.512 1933.63 872.893 1932.91 873.4C1932.19 873.908 1931.65 874.522 1931.29 875.241C1930.93 875.961 1930.75 876.775 1930.75 877.685C1930.75 878.595 1930.96 879.431 1931.39 880.192C1931.81 880.933 1932.42 881.515 1933.23 881.938C1934.05 882.361 1935.05 882.573 1936.21 882.573C1937.78 882.573 1939.14 882.255 1940.31 881.621C1941.49 880.965 1942.42 880.171 1943.1 879.24C1943.78 878.288 1944.14 877.389 1944.18 876.542L1946.65 879.938C1946.4 880.806 1945.97 881.737 1945.35 882.731C1944.74 883.726 1943.93 884.678 1942.94 885.588C1941.97 886.477 1940.79 887.207 1939.42 887.778C1938.06 888.349 1936.5 888.635 1934.72 888.635C1932.48 888.635 1930.48 888.19 1928.72 887.302C1926.97 886.392 1925.59 885.175 1924.6 883.652C1923.6 882.107 1923.1 880.362 1923.1 878.415C1923.1 876.595 1923.44 874.987 1924.12 873.591C1924.82 872.173 1925.83 870.988 1927.17 870.036C1928.52 869.084 1930.17 868.365 1932.12 867.878C1934.06 867.37 1936.29 867.116 1938.78 867.116H1944.78ZM1975.09 853.659V859.245H1955.73V853.659H1975.09ZM1961.32 845.249H1968.97V878.51C1968.97 879.568 1969.11 880.383 1969.41 880.954C1969.73 881.504 1970.16 881.875 1970.71 882.065C1971.26 882.255 1971.91 882.351 1972.65 882.351C1973.18 882.351 1973.68 882.319 1974.17 882.255C1974.66 882.192 1975.05 882.128 1975.34 882.065L1975.38 887.905C1974.74 888.095 1974 888.264 1973.15 888.413C1972.33 888.561 1971.38 888.635 1970.3 888.635C1968.54 888.635 1966.99 888.328 1965.63 887.714C1964.28 887.08 1963.22 886.053 1962.46 884.636C1961.7 883.218 1961.32 881.335 1961.32 878.986V845.249ZM2000.26 878.701C2000.26 877.939 2000.07 877.251 1999.69 876.638C1999.31 876.003 1998.58 875.432 1997.5 874.924C1996.44 874.416 1994.87 873.951 1992.8 873.527C1990.98 873.125 1989.31 872.649 1987.79 872.099C1986.28 871.528 1984.99 870.84 1983.91 870.036C1982.83 869.232 1982 868.28 1981.41 867.18C1980.81 866.079 1980.52 864.81 1980.52 863.371C1980.52 861.975 1980.82 860.652 1981.44 859.404C1982.05 858.155 1982.93 857.055 1984.07 856.103C1985.22 855.151 1986.6 854.4 1988.23 853.85C1989.88 853.299 1991.72 853.024 1993.75 853.024C1996.63 853.024 1999.1 853.511 2001.15 854.484C2003.22 855.437 2004.81 856.738 2005.91 858.388C2007.01 860.017 2007.56 861.858 2007.56 863.911H1999.91C1999.91 863.001 1999.68 862.154 1999.21 861.372C1998.77 860.568 1998.09 859.922 1997.18 859.436C1996.27 858.928 1995.13 858.674 1993.75 858.674C1992.44 858.674 1991.35 858.885 1990.48 859.309C1989.64 859.711 1989 860.24 1988.58 860.896C1988.18 861.551 1987.98 862.271 1987.98 863.054C1987.98 863.625 1988.08 864.143 1988.29 864.609C1988.53 865.053 1988.91 865.466 1989.44 865.847C1989.97 866.206 1990.68 866.545 1991.59 866.862C1992.53 867.18 1993.69 867.486 1995.09 867.783C1997.71 868.333 1999.96 869.042 2001.85 869.909C2003.75 870.756 2005.21 871.856 2006.23 873.21C2007.24 874.543 2007.75 876.236 2007.75 878.288C2007.75 879.812 2007.42 881.208 2006.77 882.478C2006.13 883.726 2005.2 884.816 2003.97 885.747C2002.75 886.656 2001.27 887.365 1999.56 887.873C1997.87 888.381 1995.96 888.635 1993.85 888.635C1990.74 888.635 1988.1 888.085 1985.95 886.984C1983.79 885.863 1982.15 884.435 1981.03 882.7C1979.93 880.944 1979.38 879.124 1979.38 877.241H1986.77C1986.86 878.658 1987.25 879.79 1987.94 880.637C1988.66 881.462 1989.55 882.065 1990.61 882.446C1991.69 882.806 1992.8 882.985 1993.94 882.985C1995.32 882.985 1996.47 882.806 1997.4 882.446C1998.33 882.065 1999.04 881.557 1999.53 880.922C2000.02 880.266 2000.26 879.526 2000.26 878.701ZM2033.81 881.113V864.736C2033.81 863.509 2033.58 862.451 2033.14 861.562C2032.7 860.673 2032.02 859.986 2031.11 859.499C2030.22 859.012 2029.1 858.769 2027.74 858.769C2026.5 858.769 2025.42 858.981 2024.51 859.404C2023.6 859.827 2022.89 860.398 2022.38 861.118C2021.87 861.837 2021.62 862.652 2021.62 863.562H2014C2014 862.207 2014.33 860.896 2014.99 859.626C2015.64 858.356 2016.59 857.224 2017.84 856.23C2019.09 855.236 2020.58 854.453 2022.32 853.881C2024.05 853.31 2026 853.024 2028.16 853.024C2030.74 853.024 2033.02 853.458 2035.01 854.326C2037.02 855.193 2038.6 856.505 2039.74 858.261C2040.91 859.996 2041.49 862.176 2041.49 864.799V880.065C2041.49 881.631 2041.59 883.038 2041.8 884.287C2042.04 885.514 2042.37 886.582 2042.79 887.492V888H2034.95C2034.59 887.175 2034.3 886.127 2034.09 884.858C2033.9 883.567 2033.81 882.319 2033.81 881.113ZM2034.92 867.116L2034.98 871.845H2029.49C2028.07 871.845 2026.82 871.983 2025.75 872.258C2024.67 872.512 2023.77 872.893 2023.05 873.4C2022.33 873.908 2021.79 874.522 2021.43 875.241C2021.07 875.961 2020.89 876.775 2020.89 877.685C2020.89 878.595 2021.1 879.431 2021.52 880.192C2021.95 880.933 2022.56 881.515 2023.36 881.938C2024.19 882.361 2025.18 882.573 2026.35 882.573C2027.91 882.573 2029.28 882.255 2030.44 881.621C2031.63 880.965 2032.56 880.171 2033.24 879.24C2033.91 878.288 2034.27 877.389 2034.31 876.542L2036.79 879.938C2036.54 880.806 2036.1 881.737 2035.49 882.731C2034.88 883.726 2034.07 884.678 2033.08 885.588C2032.1 886.477 2030.93 887.207 2029.55 887.778C2028.2 888.349 2026.63 888.635 2024.86 888.635C2022.61 888.635 2020.61 888.19 2018.86 887.302C2017.1 886.392 2015.73 885.175 2014.73 883.652C2013.74 882.107 2013.24 880.362 2013.24 878.415C2013.24 876.595 2013.58 874.987 2014.26 873.591C2014.95 872.173 2015.97 870.988 2017.3 870.036C2018.66 869.084 2020.31 868.365 2022.25 867.878C2024.2 867.37 2026.42 867.116 2028.92 867.116H2034.92ZM2057.17 860.261V901.203H2049.52V853.659H2056.56L2057.17 860.261ZM2079.54 870.512V871.179C2079.54 873.675 2079.25 875.992 2078.65 878.129C2078.08 880.245 2077.22 882.097 2076.08 883.684C2074.96 885.249 2073.57 886.466 2071.92 887.333C2070.27 888.201 2068.37 888.635 2066.21 888.635C2064.07 888.635 2062.2 888.243 2060.59 887.46C2059.01 886.656 2057.66 885.524 2056.56 884.064C2055.46 882.604 2054.57 880.891 2053.9 878.923C2053.24 876.934 2052.78 874.755 2052.5 872.385V869.814C2052.78 867.296 2053.24 865.011 2053.9 862.958C2054.57 860.906 2055.46 859.139 2056.56 857.658C2057.66 856.177 2059.01 855.035 2060.59 854.23C2062.18 853.426 2064.03 853.024 2066.15 853.024C2068.31 853.024 2070.22 853.448 2071.89 854.294C2073.56 855.119 2074.97 856.304 2076.11 857.849C2077.26 859.372 2078.11 861.213 2078.68 863.371C2079.26 865.508 2079.54 867.889 2079.54 870.512ZM2071.89 871.179V870.512C2071.89 868.925 2071.74 867.455 2071.45 866.101C2071.15 864.725 2070.69 863.519 2070.05 862.482C2069.42 861.446 2068.6 860.642 2067.61 860.07C2066.63 859.478 2065.46 859.182 2064.08 859.182C2062.73 859.182 2061.57 859.414 2060.59 859.88C2059.62 860.324 2058.81 860.948 2058.15 861.752C2057.49 862.556 2056.99 863.498 2056.63 864.577C2056.27 865.635 2056.01 866.788 2055.86 868.037V874.194C2056.12 875.717 2056.55 877.114 2057.17 878.383C2057.78 879.653 2058.65 880.668 2059.77 881.43C2060.91 882.171 2062.37 882.541 2064.15 882.541C2065.52 882.541 2066.7 882.245 2067.67 881.652C2068.64 881.06 2069.44 880.245 2070.05 879.208C2070.69 878.151 2071.15 876.934 2071.45 875.559C2071.74 874.183 2071.89 872.723 2071.89 871.179ZM2093.73 860.261V901.203H2086.08V853.659H2093.13L2093.73 860.261ZM2116.1 870.512V871.179C2116.1 873.675 2115.81 875.992 2115.22 878.129C2114.64 880.245 2113.79 882.097 2112.64 883.684C2111.52 885.249 2110.14 886.466 2108.49 887.333C2106.84 888.201 2104.93 888.635 2102.77 888.635C2100.64 888.635 2098.76 888.243 2097.16 887.46C2095.57 886.656 2094.23 885.524 2093.13 884.064C2092.03 882.604 2091.14 880.891 2090.46 878.923C2089.8 876.934 2089.34 874.755 2089.06 872.385V869.814C2089.34 867.296 2089.8 865.011 2090.46 862.958C2091.14 860.906 2092.03 859.139 2093.13 857.658C2094.23 856.177 2095.57 855.035 2097.16 854.23C2098.74 853.426 2100.59 853.024 2102.71 853.024C2104.87 853.024 2106.78 853.448 2108.46 854.294C2110.13 855.119 2111.53 856.304 2112.68 857.849C2113.82 859.372 2114.68 861.213 2115.25 863.371C2115.82 865.508 2116.1 867.889 2116.1 870.512ZM2108.46 871.179V870.512C2108.46 868.925 2108.31 867.455 2108.01 866.101C2107.71 864.725 2107.25 863.519 2106.61 862.482C2105.98 861.446 2105.16 860.642 2104.17 860.07C2103.2 859.478 2102.02 859.182 2100.65 859.182C2099.29 859.182 2098.13 859.414 2097.16 859.88C2096.18 860.324 2095.37 860.948 2094.71 861.752C2094.06 862.556 2093.55 863.498 2093.19 864.577C2092.83 865.635 2092.58 866.788 2092.43 868.037V874.194C2092.68 875.717 2093.11 877.114 2093.73 878.383C2094.34 879.653 2095.21 880.668 2096.33 881.43C2097.47 882.171 2098.93 882.541 2100.71 882.541C2102.09 882.541 2103.26 882.245 2104.23 881.652C2105.21 881.06 2106 880.245 2106.61 879.208C2107.25 878.151 2107.71 876.934 2108.01 875.559C2108.31 874.183 2108.46 872.723 2108.46 871.179Z" fill="#1C1C1C"/>
<path d="M1787.01 257.098C1787.01 256.146 1786.86 255.3 1786.56 254.559C1786.29 253.819 1785.79 253.141 1785.07 252.528C1784.35 251.914 1783.34 251.322 1782.03 250.75C1780.74 250.158 1779.08 249.555 1777.07 248.941C1774.87 248.264 1772.84 247.513 1770.98 246.688C1769.14 245.842 1767.53 244.868 1766.16 243.768C1764.78 242.647 1763.71 241.367 1762.95 239.928C1762.19 238.468 1761.81 236.786 1761.81 234.881C1761.81 232.998 1762.2 231.284 1762.98 229.74C1763.79 228.195 1764.92 226.862 1766.38 225.741C1767.86 224.598 1769.61 223.72 1771.62 223.106C1773.63 222.472 1775.85 222.154 1778.28 222.154C1781.71 222.154 1784.66 222.789 1787.14 224.059C1789.63 225.328 1791.55 227.031 1792.88 229.168C1794.23 231.306 1794.91 233.665 1794.91 236.246H1787.01C1787.01 234.723 1786.68 233.379 1786.02 232.215C1785.39 231.03 1784.42 230.099 1783.1 229.422C1781.81 228.745 1780.17 228.407 1778.19 228.407C1776.3 228.407 1774.74 228.692 1773.49 229.264C1772.24 229.835 1771.31 230.607 1770.7 231.581C1770.08 232.554 1769.77 233.654 1769.77 234.881C1769.77 235.749 1769.98 236.542 1770.38 237.262C1770.78 237.96 1771.39 238.616 1772.22 239.229C1773.04 239.822 1774.08 240.383 1775.33 240.912C1776.58 241.441 1778.05 241.948 1779.74 242.435C1782.3 243.197 1784.53 244.043 1786.44 244.974C1788.34 245.884 1789.93 246.921 1791.2 248.084C1792.47 249.248 1793.42 250.571 1794.05 252.052C1794.69 253.512 1795.01 255.173 1795.01 257.035C1795.01 258.981 1794.62 260.737 1793.83 262.303C1793.05 263.848 1791.93 265.17 1790.47 266.271C1789.03 267.35 1787.29 268.185 1785.26 268.778C1783.25 269.349 1781.01 269.635 1778.53 269.635C1776.31 269.635 1774.12 269.339 1771.96 268.746C1769.83 268.154 1767.88 267.254 1766.12 266.048C1764.37 264.821 1762.97 263.298 1761.94 261.478C1760.9 259.637 1760.38 257.49 1760.38 255.035H1768.35C1768.35 256.537 1768.6 257.818 1769.11 258.875C1769.64 259.933 1770.37 260.801 1771.3 261.478C1772.23 262.134 1773.31 262.621 1774.54 262.938C1775.78 263.255 1777.12 263.414 1778.53 263.414C1780.4 263.414 1781.95 263.15 1783.2 262.621C1784.47 262.092 1785.42 261.351 1786.06 260.399C1786.69 259.447 1787.01 258.347 1787.01 257.098ZM1809.48 234.659V269H1801.8V234.659H1809.48ZM1801.29 225.646C1801.29 224.482 1801.67 223.519 1802.43 222.757C1803.22 221.974 1804.3 221.583 1805.67 221.583C1807.03 221.583 1808.09 221.974 1808.88 222.757C1809.66 223.519 1810.05 224.482 1810.05 225.646C1810.05 226.788 1809.66 227.74 1808.88 228.502C1808.09 229.264 1807.03 229.645 1805.67 229.645C1804.3 229.645 1803.22 229.264 1802.43 228.502C1801.67 227.74 1801.29 226.788 1801.29 225.646ZM1825.51 241.642V269H1817.86V234.659H1825.06L1825.51 241.642ZM1824.27 250.56L1821.67 250.528C1821.67 248.159 1821.96 245.969 1822.56 243.958C1823.15 241.948 1824.02 240.203 1825.16 238.722C1826.3 237.219 1827.72 236.066 1829.41 235.262C1831.12 234.437 1833.1 234.024 1835.35 234.024C1836.91 234.024 1838.34 234.257 1839.63 234.723C1840.94 235.167 1842.07 235.876 1843.03 236.849C1844 237.822 1844.74 239.071 1845.25 240.594C1845.78 242.118 1846.04 243.958 1846.04 246.117V269H1838.39V246.783C1838.39 245.112 1838.14 243.8 1837.63 242.848C1837.14 241.896 1836.44 241.218 1835.5 240.816C1834.6 240.393 1833.51 240.182 1832.24 240.182C1830.8 240.182 1829.57 240.457 1828.55 241.007C1827.56 241.557 1826.75 242.308 1826.11 243.26C1825.48 244.212 1825.01 245.313 1824.71 246.561C1824.42 247.809 1824.27 249.142 1824.27 250.56ZM1845.57 248.529L1841.98 249.322C1841.98 247.249 1842.27 245.292 1842.84 243.451C1843.43 241.589 1844.29 239.959 1845.41 238.563C1846.55 237.145 1847.96 236.035 1849.63 235.23C1851.3 234.426 1853.21 234.024 1855.37 234.024C1857.13 234.024 1858.69 234.268 1860.07 234.754C1861.47 235.22 1862.65 235.96 1863.62 236.976C1864.6 237.992 1865.34 239.314 1865.85 240.943C1866.35 242.551 1866.61 244.498 1866.61 246.783V269H1858.93V246.751C1858.93 245.016 1858.67 243.673 1858.17 242.721C1857.68 241.769 1856.98 241.113 1856.07 240.753C1855.16 240.372 1854.07 240.182 1852.8 240.182C1851.62 240.182 1850.57 240.404 1849.66 240.848C1848.77 241.271 1848.02 241.874 1847.41 242.657C1846.79 243.419 1846.33 244.297 1846.01 245.292C1845.71 246.286 1845.57 247.365 1845.57 248.529ZM1895.14 260.907V234.659H1902.82V269H1895.59L1895.14 260.907ZM1896.22 253.766L1898.79 253.702C1898.79 256.008 1898.54 258.135 1898.03 260.082C1897.52 262.007 1896.74 263.689 1895.68 265.128C1894.62 266.546 1893.27 267.656 1891.62 268.46C1889.97 269.243 1887.99 269.635 1885.68 269.635C1884.01 269.635 1882.48 269.391 1881.08 268.905C1879.68 268.418 1878.48 267.667 1877.46 266.651C1876.47 265.636 1875.7 264.313 1875.15 262.684C1874.6 261.055 1874.32 259.108 1874.32 256.844V234.659H1881.97V256.908C1881.97 258.156 1882.12 259.203 1882.41 260.05C1882.71 260.875 1883.11 261.542 1883.62 262.049C1884.13 262.557 1884.72 262.917 1885.4 263.128C1886.07 263.34 1886.79 263.446 1887.56 263.446C1889.74 263.446 1891.45 263.023 1892.7 262.176C1893.97 261.309 1894.87 260.145 1895.4 258.685C1895.95 257.225 1896.22 255.585 1896.22 253.766ZM1918.85 220.25V269H1911.17V220.25H1918.85ZM1946.59 262.113V245.736C1946.59 244.509 1946.37 243.451 1945.92 242.562C1945.48 241.673 1944.8 240.986 1943.89 240.499C1943 240.012 1941.88 239.769 1940.53 239.769C1939.28 239.769 1938.2 239.981 1937.29 240.404C1936.38 240.827 1935.67 241.398 1935.16 242.118C1934.66 242.837 1934.4 243.652 1934.4 244.562H1926.78C1926.78 243.207 1927.11 241.896 1927.77 240.626C1928.42 239.356 1929.38 238.224 1930.62 237.23C1931.87 236.236 1933.36 235.453 1935.1 234.881C1936.83 234.31 1938.78 234.024 1940.94 234.024C1943.52 234.024 1945.81 234.458 1947.79 235.326C1949.81 236.193 1951.38 237.505 1952.52 239.261C1953.69 240.996 1954.27 243.176 1954.27 245.799V261.065C1954.27 262.631 1954.38 264.038 1954.59 265.287C1954.82 266.514 1955.15 267.582 1955.57 268.492V269H1947.73C1947.37 268.175 1947.09 267.127 1946.87 265.858C1946.68 264.567 1946.59 263.319 1946.59 262.113ZM1947.7 248.116L1947.76 252.845H1942.27C1940.85 252.845 1939.61 252.983 1938.53 253.258C1937.45 253.512 1936.55 253.893 1935.83 254.4C1935.11 254.908 1934.57 255.522 1934.21 256.241C1933.85 256.961 1933.67 257.775 1933.67 258.685C1933.67 259.595 1933.88 260.431 1934.31 261.192C1934.73 261.933 1935.34 262.515 1936.15 262.938C1936.97 263.361 1937.97 263.573 1939.13 263.573C1940.7 263.573 1942.06 263.255 1943.22 262.621C1944.41 261.965 1945.34 261.171 1946.02 260.24C1946.69 259.288 1947.05 258.389 1947.1 257.542L1949.57 260.938C1949.32 261.806 1948.88 262.737 1948.27 263.731C1947.66 264.726 1946.85 265.678 1945.86 266.588C1944.89 267.477 1943.71 268.207 1942.34 268.778C1940.98 269.349 1939.42 269.635 1937.64 269.635C1935.4 269.635 1933.4 269.19 1931.64 268.302C1929.88 267.392 1928.51 266.175 1927.51 264.652C1926.52 263.107 1926.02 261.362 1926.02 259.415C1926.02 257.595 1926.36 255.987 1927.04 254.591C1927.74 253.173 1928.75 251.988 1930.08 251.036C1931.44 250.084 1933.09 249.365 1935.04 248.878C1936.98 248.37 1939.2 248.116 1941.7 248.116H1947.7ZM1983.21 261.891V220.25H1990.9V269H1983.94L1983.21 261.891ZM1960.87 252.21V251.544C1960.87 248.941 1961.18 246.572 1961.79 244.435C1962.41 242.276 1963.29 240.425 1964.46 238.88C1965.62 237.315 1967.04 236.119 1968.71 235.294C1970.38 234.448 1972.27 234.024 1974.36 234.024C1976.43 234.024 1978.25 234.426 1979.82 235.23C1981.38 236.035 1982.72 237.188 1983.82 238.69C1984.92 240.171 1985.8 241.948 1986.45 244.022C1987.11 246.074 1987.57 248.36 1987.85 250.877V253.004C1987.57 255.458 1987.11 257.701 1986.45 259.732C1985.8 261.764 1984.92 263.52 1983.82 265.001C1982.72 266.482 1981.37 267.625 1979.79 268.429C1978.22 269.233 1976.39 269.635 1974.3 269.635C1972.22 269.635 1970.35 269.201 1968.68 268.333C1967.03 267.466 1965.62 266.249 1964.46 264.684C1963.29 263.118 1962.41 261.277 1961.79 259.161C1961.18 257.024 1960.87 254.707 1960.87 252.21ZM1968.52 251.544V252.21C1968.52 253.776 1968.66 255.236 1968.93 256.59C1969.23 257.944 1969.68 259.14 1970.3 260.177C1970.91 261.192 1971.7 261.996 1972.68 262.589C1973.67 263.16 1974.86 263.446 1976.23 263.446C1977.97 263.446 1979.4 263.065 1980.52 262.303C1981.64 261.542 1982.52 260.515 1983.15 259.225C1983.81 257.913 1984.25 256.453 1984.48 254.845V249.1C1984.36 247.852 1984.09 246.688 1983.69 245.609C1983.31 244.53 1982.79 243.588 1982.14 242.784C1981.48 241.959 1980.67 241.324 1979.69 240.88C1978.74 240.414 1977.61 240.182 1976.3 240.182C1974.9 240.182 1973.71 240.478 1972.74 241.07C1971.77 241.663 1970.96 242.477 1970.33 243.514C1969.72 244.551 1969.26 245.757 1968.96 247.132C1968.67 248.508 1968.52 249.978 1968.52 251.544ZM1997.43 252.21V251.48C1997.43 249.005 1997.79 246.709 1998.51 244.593C1999.23 242.456 2000.27 240.605 2001.62 239.039C2003 237.452 2004.67 236.225 2006.64 235.357C2008.63 234.469 2010.87 234.024 2013.37 234.024C2015.88 234.024 2018.13 234.469 2020.09 235.357C2022.08 236.225 2023.77 237.452 2025.14 239.039C2026.52 240.605 2027.56 242.456 2028.28 244.593C2029 246.709 2029.36 249.005 2029.36 251.48V252.21C2029.36 254.686 2029 256.982 2028.28 259.098C2027.56 261.214 2026.52 263.065 2025.14 264.652C2023.77 266.218 2022.09 267.445 2020.13 268.333C2018.16 269.201 2015.93 269.635 2013.43 269.635C2010.91 269.635 2008.66 269.201 2006.67 268.333C2004.7 267.445 2003.03 266.218 2001.65 264.652C2000.28 263.065 1999.23 261.214 1998.51 259.098C1997.79 256.982 1997.43 254.686 1997.43 252.21ZM2005.08 251.48V252.21C2005.08 253.755 2005.24 255.215 2005.56 256.59C2005.88 257.966 2006.37 259.172 2007.05 260.208C2007.73 261.245 2008.59 262.06 2009.65 262.652C2010.71 263.245 2011.97 263.541 2013.43 263.541C2014.85 263.541 2016.07 263.245 2017.11 262.652C2018.17 262.06 2019.04 261.245 2019.71 260.208C2020.39 259.172 2020.89 257.966 2021.21 256.59C2021.54 255.215 2021.71 253.755 2021.71 252.21V251.48C2021.71 249.957 2021.54 248.518 2021.21 247.164C2020.89 245.789 2020.38 244.572 2019.68 243.514C2019.01 242.456 2018.14 241.631 2017.08 241.039C2016.04 240.425 2014.81 240.118 2013.37 240.118C2011.93 240.118 2010.68 240.425 2009.62 241.039C2008.58 241.631 2007.73 242.456 2007.05 243.514C2006.37 244.572 2005.88 245.789 2005.56 247.164C2005.24 248.518 2005.08 249.957 2005.08 251.48ZM2055.86 222.789L2037.87 272.967H2031.87L2049.9 222.789H2055.86ZM2085.7 263.656V269H2066.06V263.656H2085.7ZM2067.94 229.898V269H2061.2V229.898H2067.94ZM2097.19 239.942V269H2090.69V239.942H2097.19ZM2090.26 232.315C2090.26 231.331 2090.58 230.516 2091.23 229.872C2091.89 229.209 2092.8 228.878 2093.97 228.878C2095.11 228.878 2096.02 229.209 2096.68 229.872C2097.34 230.516 2097.67 231.331 2097.67 232.315C2097.67 233.282 2097.34 234.088 2096.68 234.732C2096.02 235.377 2095.11 235.699 2093.97 235.699C2092.8 235.699 2091.89 235.377 2091.23 234.732C2090.58 234.088 2090.26 233.282 2090.26 232.315ZM2110.7 246.146V269H2104.23V239.942H2110.32L2110.7 246.146ZM2109.54 253.397L2107.45 253.37C2107.47 251.311 2107.75 249.422 2108.31 247.704C2108.88 245.985 2109.67 244.508 2110.67 243.272C2111.69 242.037 2112.91 241.088 2114.32 240.426C2115.74 239.745 2117.31 239.405 2119.05 239.405C2120.45 239.405 2121.71 239.602 2122.84 239.996C2123.98 240.372 2124.96 240.99 2125.76 241.849C2126.59 242.708 2127.21 243.827 2127.64 245.206C2128.07 246.567 2128.29 248.241 2128.29 250.228V269H2121.79V250.201C2121.79 248.805 2121.58 247.704 2121.17 246.898C2120.78 246.074 2120.2 245.493 2119.43 245.152C2118.67 244.794 2117.73 244.615 2116.61 244.615C2115.5 244.615 2114.5 244.848 2113.62 245.313C2112.75 245.779 2112 246.415 2111.4 247.22C2110.81 248.026 2110.35 248.957 2110.03 250.013C2109.7 251.069 2109.54 252.197 2109.54 253.397ZM2141.42 227.75V269H2134.92V227.75H2141.42ZM2159.47 239.942L2146.82 253.961L2139.89 261.051L2138.2 255.572L2143.43 249.1L2151.65 239.942H2159.47ZM2153.05 269L2143.62 255.357L2147.7 250.819L2160.54 269H2153.05Z" fill="#1C1C1C"/>
<defs>
<linearGradient id="paint0_linear_906_72" x1="388.5" y1="346" x2="388.5" y2="761" gradientUnits="userSpaceOnUse">
<stop stop-color="#C90C00"/>
<stop offset="1" stop-color="#EC5703"/>
</linearGradient>
<linearGradient id="paint1_linear_906_72" x1="1181.5" y1="346" x2="1181.5" y2="761" gradientUnits="userSpaceOnUse">
<stop stop-color="#4A970E"/>
<stop offset="1" stop-color="#009B06"/>
</linearGradient>
<linearGradient id="paint2_linear_906_72" x1="1975.5" y1="346" x2="1975.5" y2="761" gradientUnits="userSpaceOnUse">
<stop stop-color="#398100"/>
<stop offset="1" stop-color="#A1DF02"/>
<stop offset="1" stop-color="#6F9A00"/>
</linearGradient>
</defs>
</svg>
