<svg width="2408" height="1104" viewBox="0 0 2408 1104" fill="none" xmlns="http://www.w3.org/2000/svg">
<g filter="url(#filter0_d_490_2)">
<rect x="4" width="2400" height="1096" rx="50" fill="#F4F4F4"/>
<circle cx="392.5" cy="553.5" r="207.5" stroke="#1C1C1C" stroke-width="30"/>
<path d="M392.5 346C421.193 346 449.573 351.951 475.849 363.476C502.126 375.001 525.726 391.851 545.159 412.96C564.593 434.07 579.437 458.98 588.755 486.118C598.072 513.255 601.66 542.03 599.292 570.625C596.924 599.22 588.652 627.013 574.997 652.248C561.342 677.483 542.602 699.612 519.961 717.237C497.32 734.862 471.27 747.6 443.456 754.646C415.642 761.692 386.669 762.893 358.367 758.173" stroke="url(#paint0_linear_490_2)" stroke-width="30" stroke-linecap="round" stroke-linejoin="round"/>
<path d="M293.18 557.555L285.68 555.719L288.766 527.125H319.43V535.094H296.578L295.016 549.039C295.901 548.518 297.125 548.01 298.688 547.516C300.25 546.995 302.034 546.734 304.039 546.734C306.721 546.734 309.117 547.177 311.227 548.062C313.362 548.922 315.172 550.185 316.656 551.852C318.141 553.492 319.273 555.497 320.055 557.867C320.836 560.211 321.227 562.854 321.227 565.797C321.227 568.427 320.836 570.888 320.055 573.18C319.299 575.471 318.154 577.49 316.617 579.234C315.081 580.979 313.141 582.346 310.797 583.336C308.479 584.299 305.732 584.781 302.555 584.781C300.185 584.781 297.906 584.443 295.719 583.766C293.557 583.062 291.617 582.034 289.898 580.68C288.18 579.299 286.799 577.607 285.758 575.602C284.716 573.57 284.117 571.24 283.961 568.609H293.18C293.414 570.458 293.922 572.034 294.703 573.336C295.51 574.612 296.578 575.589 297.906 576.266C299.234 576.943 300.771 577.281 302.516 577.281C304.104 577.281 305.471 577.008 306.617 576.461C307.763 575.888 308.714 575.081 309.469 574.039C310.25 572.971 310.823 571.721 311.188 570.289C311.578 568.857 311.773 567.268 311.773 565.523C311.773 563.857 311.552 562.333 311.109 560.953C310.693 559.573 310.055 558.375 309.195 557.359C308.362 556.344 307.307 555.562 306.031 555.016C304.755 554.443 303.284 554.156 301.617 554.156C299.378 554.156 297.659 554.482 296.461 555.133C295.289 555.784 294.195 556.591 293.18 557.555ZM366.891 576.5V584H328.766V577.555L347.281 557.359C349.312 555.068 350.914 553.089 352.086 551.422C353.258 549.755 354.078 548.258 354.547 546.93C355.042 545.576 355.289 544.26 355.289 542.984C355.289 541.188 354.951 539.612 354.273 538.258C353.622 536.878 352.659 535.797 351.383 535.016C350.107 534.208 348.557 533.805 346.734 533.805C344.625 533.805 342.854 534.26 341.422 535.172C339.99 536.083 338.909 537.346 338.18 538.961C337.451 540.549 337.086 542.372 337.086 544.43H327.672C327.672 541.122 328.427 538.102 329.938 535.367C331.448 532.607 333.635 530.419 336.5 528.805C339.365 527.164 342.815 526.344 346.852 526.344C350.654 526.344 353.883 526.982 356.539 528.258C359.195 529.534 361.214 531.344 362.594 533.688C364 536.031 364.703 538.805 364.703 542.008C364.703 543.779 364.417 545.536 363.844 547.281C363.271 549.026 362.451 550.771 361.383 552.516C360.341 554.234 359.104 555.966 357.672 557.711C356.24 559.43 354.664 561.174 352.945 562.945L340.641 576.5H366.891ZM383.609 574.938L383.57 581.656C383.57 584.312 382.906 587.047 381.578 589.859C380.25 592.672 378.492 594.99 376.305 596.812L371.266 593.883C371.995 592.711 372.659 591.526 373.258 590.328C373.857 589.13 374.339 587.854 374.703 586.5C375.068 585.146 375.25 583.648 375.25 582.008V574.938H383.609ZM420.562 526.773H421.734V534.469H421.07C417.711 534.469 414.807 534.99 412.359 536.031C409.938 537.073 407.945 538.505 406.383 540.328C404.82 542.151 403.648 544.286 402.867 546.734C402.112 549.156 401.734 551.734 401.734 554.469V563.414C401.734 565.68 401.982 567.685 402.477 569.43C402.971 571.148 403.661 572.594 404.547 573.766C405.458 574.911 406.5 575.784 407.672 576.383C408.844 576.982 410.107 577.281 411.461 577.281C412.867 577.281 414.143 576.995 415.289 576.422C416.435 575.823 417.411 575.003 418.219 573.961C419.026 572.919 419.638 571.682 420.055 570.25C420.471 568.818 420.68 567.255 420.68 565.562C420.68 563.948 420.471 562.438 420.055 561.031C419.664 559.599 419.078 558.349 418.297 557.281C417.516 556.188 416.539 555.341 415.367 554.742C414.221 554.117 412.893 553.805 411.383 553.805C409.508 553.805 407.802 554.247 406.266 555.133C404.755 556.018 403.531 557.177 402.594 558.609C401.682 560.016 401.188 561.513 401.109 563.102L397.516 561.93C397.724 559.508 398.258 557.333 399.117 555.406C400.003 553.479 401.161 551.839 402.594 550.484C404.026 549.13 405.68 548.102 407.555 547.398C409.456 546.669 411.539 546.305 413.805 546.305C416.565 546.305 418.961 546.826 420.992 547.867C423.023 548.909 424.703 550.328 426.031 552.125C427.385 553.896 428.388 555.927 429.039 558.219C429.716 560.484 430.055 562.854 430.055 565.328C430.055 568.062 429.638 570.615 428.805 572.984C427.971 575.328 426.747 577.385 425.133 579.156C423.544 580.927 421.604 582.307 419.312 583.297C417.047 584.286 414.469 584.781 411.578 584.781C408.531 584.781 405.81 584.195 403.414 583.023C401.044 581.852 399.026 580.237 397.359 578.18C395.719 576.122 394.469 573.753 393.609 571.07C392.75 568.388 392.32 565.549 392.32 562.555V558.648C392.32 554.326 392.867 550.25 393.961 546.422C395.055 542.568 396.734 539.169 399 536.227C401.292 533.284 404.221 530.979 407.789 529.312C411.357 527.62 415.615 526.773 420.562 526.773ZM448.648 551.305H454.273C456.461 551.305 458.271 550.927 459.703 550.172C461.161 549.417 462.242 548.375 462.945 547.047C463.648 545.719 464 544.195 464 542.477C464 540.68 463.674 539.143 463.023 537.867C462.398 536.565 461.435 535.562 460.133 534.859C458.857 534.156 457.229 533.805 455.25 533.805C453.583 533.805 452.073 534.143 450.719 534.82C449.391 535.471 448.336 536.409 447.555 537.633C446.773 538.831 446.383 540.263 446.383 541.93H436.93C436.93 538.909 437.724 536.227 439.312 533.883C440.901 531.539 443.062 529.703 445.797 528.375C448.557 527.021 451.656 526.344 455.094 526.344C458.766 526.344 461.969 526.956 464.703 528.18C467.464 529.378 469.612 531.174 471.148 533.57C472.685 535.966 473.453 538.935 473.453 542.477C473.453 544.091 473.076 545.732 472.32 547.398C471.565 549.065 470.445 550.589 468.961 551.969C467.477 553.323 465.628 554.43 463.414 555.289C461.201 556.122 458.635 556.539 455.719 556.539H448.648V551.305ZM448.648 558.648V553.492H455.719C459.052 553.492 461.891 553.883 464.234 554.664C466.604 555.445 468.531 556.526 470.016 557.906C471.5 559.26 472.581 560.81 473.258 562.555C473.961 564.299 474.312 566.148 474.312 568.102C474.312 570.758 473.831 573.128 472.867 575.211C471.93 577.268 470.589 579.013 468.844 580.445C467.099 581.878 465.055 582.958 462.711 583.688C460.393 584.417 457.867 584.781 455.133 584.781C452.685 584.781 450.341 584.443 448.102 583.766C445.862 583.089 443.857 582.086 442.086 580.758C440.315 579.404 438.909 577.724 437.867 575.719C436.852 573.688 436.344 571.344 436.344 568.688H445.758C445.758 570.38 446.148 571.878 446.93 573.18C447.737 574.456 448.857 575.458 450.289 576.188C451.747 576.917 453.414 577.281 455.289 577.281C457.268 577.281 458.974 576.93 460.406 576.227C461.839 575.523 462.932 574.482 463.688 573.102C464.469 571.721 464.859 570.055 464.859 568.102C464.859 565.888 464.43 564.091 463.57 562.711C462.711 561.331 461.487 560.315 459.898 559.664C458.31 558.987 456.435 558.648 454.273 558.648H448.648ZM482.672 541.07V538.062C482.672 535.901 483.141 533.935 484.078 532.164C485.016 530.393 486.383 528.974 488.18 527.906C489.977 526.839 492.138 526.305 494.664 526.305C497.268 526.305 499.456 526.839 501.227 527.906C503.023 528.974 504.391 530.393 505.328 532.164C506.266 533.935 506.734 535.901 506.734 538.062V541.07C506.734 543.18 506.266 545.12 505.328 546.891C504.417 548.661 503.062 550.081 501.266 551.148C499.495 552.216 497.32 552.75 494.742 552.75C492.19 552.75 490.003 552.216 488.18 551.148C486.383 550.081 485.016 548.661 484.078 546.891C483.141 545.12 482.672 543.18 482.672 541.07ZM489.195 538.062V541.07C489.195 542.112 489.391 543.102 489.781 544.039C490.198 544.977 490.823 545.732 491.656 546.305C492.49 546.878 493.518 547.164 494.742 547.164C495.992 547.164 497.008 546.878 497.789 546.305C498.596 545.732 499.195 544.977 499.586 544.039C499.977 543.102 500.172 542.112 500.172 541.07V538.062C500.172 536.995 499.964 535.992 499.547 535.055C499.156 534.091 498.557 533.323 497.75 532.75C496.943 532.177 495.914 531.891 494.664 531.891C493.466 531.891 492.451 532.177 491.617 532.75C490.81 533.323 490.198 534.091 489.781 535.055C489.391 535.992 489.195 536.995 489.195 538.062ZM510.094 573.102V570.055C510.094 567.919 510.562 565.966 511.5 564.195C512.464 562.424 513.844 561.005 515.641 559.938C517.438 558.87 519.599 558.336 522.125 558.336C524.729 558.336 526.917 558.87 528.688 559.938C530.484 561.005 531.839 562.424 532.75 564.195C533.688 565.966 534.156 567.919 534.156 570.055V573.102C534.156 575.237 533.688 577.19 532.75 578.961C531.839 580.732 530.497 582.151 528.727 583.219C526.956 584.286 524.794 584.82 522.242 584.82C519.664 584.82 517.464 584.286 515.641 583.219C513.844 582.151 512.464 580.732 511.5 578.961C510.562 577.19 510.094 575.237 510.094 573.102ZM516.656 570.055V573.102C516.656 574.143 516.865 575.133 517.281 576.07C517.724 577.008 518.362 577.776 519.195 578.375C520.029 578.948 521.031 579.234 522.203 579.234C523.531 579.234 524.599 578.948 525.406 578.375C526.214 577.776 526.786 577.021 527.125 576.109C527.49 575.172 527.672 574.169 527.672 573.102V570.055C527.672 568.987 527.464 567.984 527.047 567.047C526.656 566.109 526.044 565.354 525.211 564.781C524.404 564.208 523.375 563.922 522.125 563.922C520.901 563.922 519.885 564.208 519.078 564.781C518.271 565.354 517.659 566.109 517.242 567.047C516.852 567.984 516.656 568.987 516.656 570.055ZM524.469 535.25L496.695 579.703L491.891 576.93L519.664 532.477L524.469 535.25Z" fill="#1C1C1C"/>
<path d="M281.109 841.789L291.836 863.847L302.564 841.789H311.387L295.835 870.988V888H287.806V870.988L272.254 841.789H281.109ZM312.117 871.21V870.48C312.117 868.005 312.477 865.709 313.196 863.593C313.916 861.456 314.952 859.605 316.307 858.039C317.682 856.452 319.354 855.225 321.321 854.357C323.31 853.469 325.553 853.024 328.05 853.024C330.568 853.024 332.811 853.469 334.778 854.357C336.767 855.225 338.449 856.452 339.825 858.039C341.2 859.605 342.247 861.456 342.967 863.593C343.686 865.709 344.046 868.005 344.046 870.48V871.21C344.046 873.686 343.686 875.982 342.967 878.098C342.247 880.214 341.2 882.065 339.825 883.652C338.449 885.218 336.778 886.445 334.81 887.333C332.842 888.201 330.61 888.635 328.113 888.635C325.595 888.635 323.342 888.201 321.353 887.333C319.385 886.445 317.714 885.218 316.338 883.652C314.963 882.065 313.916 880.214 313.196 878.098C312.477 875.982 312.117 873.686 312.117 871.21ZM319.766 870.48V871.21C319.766 872.755 319.925 874.215 320.242 875.59C320.56 876.966 321.057 878.172 321.734 879.208C322.411 880.245 323.278 881.06 324.336 881.652C325.394 882.245 326.653 882.541 328.113 882.541C329.531 882.541 330.758 882.245 331.795 881.652C332.853 881.06 333.72 880.245 334.397 879.208C335.075 878.172 335.572 876.966 335.889 875.59C336.228 874.215 336.397 872.755 336.397 871.21V870.48C336.397 868.957 336.228 867.518 335.889 866.164C335.572 864.789 335.064 863.572 334.366 862.514C333.689 861.456 332.821 860.631 331.763 860.039C330.726 859.425 329.489 859.118 328.05 859.118C326.611 859.118 325.363 859.425 324.305 860.039C323.268 860.631 322.411 861.456 321.734 862.514C321.057 863.572 320.56 864.789 320.242 866.164C319.925 867.518 319.766 868.957 319.766 870.48ZM371.119 879.907V853.659H378.799V888H371.563L371.119 879.907ZM372.198 872.766L374.769 872.702C374.769 875.008 374.515 877.135 374.007 879.082C373.499 881.007 372.716 882.689 371.658 884.128C370.6 885.546 369.246 886.656 367.596 887.46C365.945 888.243 363.967 888.635 361.661 888.635C359.989 888.635 358.455 888.391 357.059 887.905C355.662 887.418 354.456 886.667 353.44 885.651C352.446 884.636 351.674 883.313 351.124 881.684C350.573 880.055 350.298 878.108 350.298 875.844V853.659H357.947V875.908C357.947 877.156 358.095 878.203 358.392 879.05C358.688 879.875 359.09 880.542 359.598 881.049C360.105 881.557 360.698 881.917 361.375 882.128C362.052 882.34 362.771 882.446 363.533 882.446C365.713 882.446 367.426 882.023 368.675 881.176C369.944 880.309 370.844 879.145 371.373 877.685C371.923 876.225 372.198 874.585 372.198 872.766ZM402.381 853.659V859.245H383.021V853.659H402.381ZM388.606 845.249H396.255V878.51C396.255 879.568 396.403 880.383 396.7 880.954C397.017 881.504 397.451 881.875 398.001 882.065C398.551 882.255 399.196 882.351 399.937 882.351C400.466 882.351 400.974 882.319 401.46 882.255C401.947 882.192 402.339 882.128 402.635 882.065L402.667 887.905C402.032 888.095 401.291 888.264 400.445 888.413C399.62 888.561 398.667 888.635 397.588 888.635C395.832 888.635 394.277 888.328 392.923 887.714C391.569 887.08 390.511 886.053 389.749 884.636C388.987 883.218 388.606 881.335 388.606 878.986V845.249ZM428.946 879.907V853.659H436.626V888H429.39L428.946 879.907ZM430.025 872.766L432.596 872.702C432.596 875.008 432.342 877.135 431.834 879.082C431.326 881.007 430.543 882.689 429.485 884.128C428.427 885.546 427.073 886.656 425.423 887.46C423.772 888.243 421.794 888.635 419.488 888.635C417.816 888.635 416.282 888.391 414.886 887.905C413.489 887.418 412.283 886.667 411.268 885.651C410.273 884.636 409.501 883.313 408.951 881.684C408.401 880.055 408.125 878.108 408.125 875.844V853.659H415.774V875.908C415.774 877.156 415.923 878.203 416.219 879.05C416.515 879.875 416.917 880.542 417.425 881.049C417.933 881.557 418.525 881.917 419.202 882.128C419.879 882.34 420.599 882.446 421.36 882.446C423.54 882.446 425.254 882.023 426.502 881.176C427.771 880.309 428.671 879.145 429.2 877.685C429.75 876.225 430.025 874.585 430.025 872.766ZM444.498 839.25H452.146V880.668L451.417 888H444.498V839.25ZM474.554 870.512V871.179C474.554 873.718 474.268 876.056 473.697 878.193C473.147 880.309 472.3 882.15 471.158 883.715C470.036 885.281 468.64 886.498 466.968 887.365C465.318 888.212 463.403 888.635 461.224 888.635C459.087 888.635 457.225 888.233 455.638 887.429C454.051 886.625 452.718 885.482 451.639 884.001C450.581 882.52 449.724 880.753 449.068 878.701C448.412 876.648 447.946 874.384 447.671 871.909V869.782C447.946 867.285 448.412 865.021 449.068 862.99C449.724 860.938 450.581 859.171 451.639 857.69C452.718 856.188 454.04 855.035 455.606 854.23C457.193 853.426 459.044 853.024 461.16 853.024C463.361 853.024 465.297 853.448 466.968 854.294C468.661 855.14 470.068 856.346 471.189 857.912C472.311 859.457 473.147 861.298 473.697 863.435C474.268 865.572 474.554 867.931 474.554 870.512ZM466.905 871.179V870.512C466.905 868.968 466.778 867.518 466.524 866.164C466.27 864.789 465.847 863.583 465.254 862.546C464.683 861.509 463.9 860.694 462.906 860.102C461.932 859.488 460.716 859.182 459.256 859.182C457.902 859.182 456.738 859.414 455.765 859.88C454.791 860.345 453.977 860.98 453.321 861.784C452.665 862.588 452.146 863.519 451.766 864.577C451.406 865.635 451.163 866.778 451.036 868.005V873.75C451.226 875.336 451.628 876.796 452.242 878.129C452.876 879.441 453.765 880.499 454.908 881.303C456.05 882.086 457.521 882.478 459.319 882.478C460.737 882.478 461.932 882.192 462.906 881.621C463.879 881.049 464.651 880.256 465.223 879.24C465.815 878.203 466.238 876.997 466.492 875.622C466.767 874.247 466.905 872.766 466.905 871.179ZM496.167 888.635C493.628 888.635 491.333 888.222 489.28 887.397C487.249 886.551 485.514 885.376 484.075 883.874C482.658 882.372 481.568 880.605 480.806 878.574C480.044 876.542 479.664 874.353 479.664 872.004V870.734C479.664 868.047 480.055 865.614 480.838 863.435C481.621 861.255 482.71 859.393 484.107 857.849C485.503 856.283 487.154 855.087 489.058 854.262C490.962 853.437 493.025 853.024 495.247 853.024C497.701 853.024 499.849 853.437 501.69 854.262C503.531 855.087 505.054 856.251 506.26 857.753C507.487 859.235 508.397 861.001 508.99 863.054C509.603 865.106 509.91 867.37 509.91 869.846V873.115H483.377V867.624H502.356V867.021C502.314 865.646 502.039 864.355 501.531 863.149C501.045 861.943 500.293 860.97 499.278 860.229C498.262 859.488 496.908 859.118 495.215 859.118C493.946 859.118 492.814 859.393 491.819 859.943C490.846 860.472 490.031 861.245 489.375 862.26C488.72 863.276 488.212 864.503 487.852 865.942C487.514 867.36 487.344 868.957 487.344 870.734V872.004C487.344 873.506 487.545 874.903 487.947 876.193C488.37 877.463 488.984 878.574 489.788 879.526C490.592 880.478 491.565 881.229 492.708 881.779C493.851 882.308 495.152 882.573 496.612 882.573C498.453 882.573 500.092 882.202 501.531 881.462C502.97 880.721 504.218 879.674 505.276 878.32L509.307 882.224C508.567 883.303 507.604 884.34 506.419 885.334C505.234 886.307 503.785 887.101 502.071 887.714C500.378 888.328 498.41 888.635 496.167 888.635Z" fill="#1C1C1C"/>
<path d="M253.535 260.558L265.69 222.789H274.482L257.915 269H251.979L253.535 260.558ZM242.299 222.789L254.36 260.558L256.01 269H250.043L233.54 222.789H242.299ZM287.082 234.659V269H279.401V234.659H287.082ZM278.894 225.646C278.894 224.482 279.274 223.519 280.036 222.757C280.819 221.974 281.898 221.583 283.273 221.583C284.628 221.583 285.696 221.974 286.479 222.757C287.262 223.519 287.653 224.482 287.653 225.646C287.653 226.788 287.262 227.74 286.479 228.502C285.696 229.264 284.628 229.645 283.273 229.645C281.898 229.645 280.819 229.264 280.036 228.502C279.274 227.74 278.894 226.788 278.894 225.646ZM316.408 261.891V220.25H324.089V269H317.138L316.408 261.891ZM294.064 252.21V251.544C294.064 248.941 294.371 246.572 294.985 244.435C295.598 242.276 296.487 240.425 297.651 238.88C298.815 237.315 300.232 236.119 301.904 235.294C303.575 234.448 305.458 234.024 307.553 234.024C309.627 234.024 311.446 234.426 313.012 235.23C314.578 236.035 315.911 237.188 317.011 238.69C318.111 240.171 318.99 241.948 319.646 244.022C320.301 246.074 320.767 248.36 321.042 250.877V253.004C320.767 255.458 320.301 257.701 319.646 259.732C318.99 261.764 318.111 263.52 317.011 265.001C315.911 266.482 314.567 267.625 312.98 268.429C311.415 269.233 309.584 269.635 307.49 269.635C305.416 269.635 303.544 269.201 301.872 268.333C300.222 267.466 298.815 266.249 297.651 264.684C296.487 263.118 295.598 261.277 294.985 259.161C294.371 257.024 294.064 254.707 294.064 252.21ZM301.713 251.544V252.21C301.713 253.776 301.851 255.236 302.126 256.59C302.422 257.944 302.877 259.14 303.491 260.177C304.104 261.192 304.898 261.996 305.871 262.589C306.866 263.16 308.05 263.446 309.426 263.446C311.161 263.446 312.589 263.065 313.71 262.303C314.832 261.542 315.71 260.515 316.345 259.225C317.001 257.913 317.445 256.453 317.678 254.845V249.1C317.551 247.852 317.286 246.688 316.884 245.609C316.503 244.53 315.985 243.588 315.329 242.784C314.673 241.959 313.859 241.324 312.885 240.88C311.933 240.414 310.801 240.182 309.489 240.182C308.093 240.182 306.908 240.478 305.935 241.07C304.961 241.663 304.157 242.477 303.522 243.514C302.909 244.551 302.454 245.757 302.158 247.132C301.861 248.508 301.713 249.978 301.713 251.544ZM347.226 269.635C344.687 269.635 342.391 269.222 340.339 268.397C338.308 267.551 336.573 266.376 335.134 264.874C333.716 263.372 332.626 261.605 331.865 259.574C331.103 257.542 330.722 255.353 330.722 253.004V251.734C330.722 249.047 331.114 246.614 331.896 244.435C332.679 242.255 333.769 240.393 335.166 238.849C336.562 237.283 338.212 236.087 340.117 235.262C342.021 234.437 344.084 234.024 346.306 234.024C348.76 234.024 350.908 234.437 352.749 235.262C354.589 236.087 356.113 237.251 357.319 238.753C358.546 240.235 359.456 242.001 360.048 244.054C360.662 246.106 360.969 248.37 360.969 250.846V254.115H334.436V248.624H353.415V248.021C353.373 246.646 353.098 245.355 352.59 244.149C352.103 242.943 351.352 241.97 350.336 241.229C349.321 240.488 347.967 240.118 346.274 240.118C345.004 240.118 343.872 240.393 342.878 240.943C341.905 241.472 341.09 242.245 340.434 243.26C339.778 244.276 339.27 245.503 338.911 246.942C338.572 248.36 338.403 249.957 338.403 251.734V253.004C338.403 254.506 338.604 255.903 339.006 257.193C339.429 258.463 340.043 259.574 340.847 260.526C341.651 261.478 342.624 262.229 343.767 262.779C344.909 263.308 346.21 263.573 347.67 263.573C349.511 263.573 351.151 263.202 352.59 262.462C354.029 261.721 355.277 260.674 356.335 259.32L360.366 263.224C359.625 264.303 358.662 265.34 357.478 266.334C356.293 267.307 354.843 268.101 353.129 268.714C351.437 269.328 349.469 269.635 347.226 269.635ZM365.476 252.21V251.48C365.476 249.005 365.835 246.709 366.555 244.593C367.274 242.456 368.311 240.605 369.665 239.039C371.04 237.452 372.712 236.225 374.68 235.357C376.669 234.469 378.911 234.024 381.408 234.024C383.926 234.024 386.169 234.469 388.137 235.357C390.126 236.225 391.808 237.452 393.183 239.039C394.558 240.605 395.606 242.456 396.325 244.593C397.045 246.709 397.404 249.005 397.404 251.48V252.21C397.404 254.686 397.045 256.982 396.325 259.098C395.606 261.214 394.558 263.065 393.183 264.652C391.808 266.218 390.136 267.445 388.168 268.333C386.201 269.201 383.968 269.635 381.472 269.635C378.954 269.635 376.7 269.201 374.711 268.333C372.744 267.445 371.072 266.218 369.697 264.652C368.321 263.065 367.274 261.214 366.555 259.098C365.835 256.982 365.476 254.686 365.476 252.21ZM373.125 251.48V252.21C373.125 253.755 373.283 255.215 373.601 256.59C373.918 257.966 374.415 259.172 375.092 260.208C375.769 261.245 376.637 262.06 377.695 262.652C378.753 263.245 380.012 263.541 381.472 263.541C382.889 263.541 384.117 263.245 385.153 262.652C386.211 262.06 387.079 261.245 387.756 260.208C388.433 259.172 388.93 257.966 389.248 256.59C389.586 255.215 389.755 253.755 389.755 252.21V251.48C389.755 249.957 389.586 248.518 389.248 247.164C388.93 245.789 388.422 244.572 387.724 243.514C387.047 242.456 386.18 241.631 385.122 241.039C384.085 240.425 382.847 240.118 381.408 240.118C379.969 240.118 378.721 240.425 377.663 241.039C376.626 241.631 375.769 242.456 375.092 243.514C374.415 244.572 373.918 245.789 373.601 247.164C373.283 248.518 373.125 249.957 373.125 251.48ZM423.176 262.113V245.736C423.176 244.509 422.954 243.451 422.509 242.562C422.065 241.673 421.388 240.986 420.478 240.499C419.589 240.012 418.468 239.769 417.114 239.769C415.865 239.769 414.786 239.981 413.876 240.404C412.967 240.827 412.258 241.398 411.75 242.118C411.242 242.837 410.988 243.652 410.988 244.562H403.371C403.371 243.207 403.699 241.896 404.355 240.626C405.011 239.356 405.963 238.224 407.211 237.23C408.46 236.236 409.951 235.453 411.687 234.881C413.422 234.31 415.368 234.024 417.526 234.024C420.108 234.024 422.393 234.458 424.382 235.326C426.392 236.193 427.968 237.505 429.111 239.261C430.275 240.996 430.856 243.176 430.856 245.799V261.065C430.856 262.631 430.962 264.038 431.174 265.287C431.407 266.514 431.735 267.582 432.158 268.492V269H424.318C423.959 268.175 423.673 267.127 423.461 265.858C423.271 264.567 423.176 263.319 423.176 262.113ZM424.287 248.116L424.35 252.845H418.859C417.442 252.845 416.193 252.983 415.114 253.258C414.035 253.512 413.136 253.893 412.417 254.4C411.697 254.908 411.158 255.522 410.798 256.241C410.438 256.961 410.258 257.775 410.258 258.685C410.258 259.595 410.47 260.431 410.893 261.192C411.316 261.933 411.93 262.515 412.734 262.938C413.559 263.361 414.554 263.573 415.717 263.573C417.283 263.573 418.648 263.255 419.812 262.621C420.996 261.965 421.927 261.171 422.604 260.24C423.282 259.288 423.641 258.389 423.684 257.542L426.159 260.938C425.905 261.806 425.472 262.737 424.858 263.731C424.244 264.726 423.44 265.678 422.446 266.588C421.472 267.477 420.298 268.207 418.923 268.778C417.569 269.349 416.003 269.635 414.226 269.635C411.983 269.635 409.983 269.19 408.227 268.302C406.471 267.392 405.096 266.175 404.101 264.652C403.107 263.107 402.609 261.362 402.609 259.415C402.609 257.595 402.948 255.987 403.625 254.591C404.323 253.173 405.339 251.988 406.672 251.036C408.026 250.084 409.676 249.365 411.623 248.878C413.57 248.37 415.791 248.116 418.288 248.116H424.287ZM459.516 260.907V234.659H467.197V269H459.96L459.516 260.907ZM460.595 253.766L463.166 253.702C463.166 256.008 462.912 258.135 462.404 260.082C461.896 262.007 461.114 263.689 460.056 265.128C458.998 266.546 457.644 267.656 455.993 268.46C454.343 269.243 452.364 269.635 450.058 269.635C448.387 269.635 446.853 269.391 445.456 268.905C444.06 268.418 442.854 267.667 441.838 266.651C440.843 265.636 440.071 264.313 439.521 262.684C438.971 261.055 438.696 259.108 438.696 256.844V234.659H446.345V256.908C446.345 258.156 446.493 259.203 446.789 260.05C447.085 260.875 447.487 261.542 447.995 262.049C448.503 262.557 449.095 262.917 449.772 263.128C450.45 263.34 451.169 263.446 451.931 263.446C454.11 263.446 455.824 263.023 457.072 262.176C458.342 261.309 459.241 260.145 459.77 258.685C460.32 257.225 460.595 255.585 460.595 253.766ZM483.225 220.25V269H475.544V220.25H483.225ZM510.964 262.113V245.736C510.964 244.509 510.742 243.451 510.297 242.562C509.853 241.673 509.176 240.986 508.266 240.499C507.377 240.012 506.256 239.769 504.902 239.769C503.653 239.769 502.574 239.981 501.665 240.404C500.755 240.827 500.046 241.398 499.538 242.118C499.03 242.837 498.776 243.652 498.776 244.562H491.159C491.159 243.207 491.487 241.896 492.143 240.626C492.799 239.356 493.751 238.224 495 237.23C496.248 236.236 497.74 235.453 499.475 234.881C501.21 234.31 503.156 234.024 505.314 234.024C507.896 234.024 510.181 234.458 512.17 235.326C514.18 236.193 515.756 237.505 516.899 239.261C518.063 240.996 518.645 243.176 518.645 245.799V261.065C518.645 262.631 518.75 264.038 518.962 265.287C519.195 266.514 519.523 267.582 519.946 268.492V269H512.106C511.747 268.175 511.461 267.127 511.25 265.858C511.059 264.567 510.964 263.319 510.964 262.113ZM512.075 248.116L512.138 252.845H506.647C505.23 252.845 503.981 252.983 502.902 253.258C501.823 253.512 500.924 253.893 500.205 254.4C499.485 254.908 498.946 255.522 498.586 256.241C498.226 256.961 498.046 257.775 498.046 258.685C498.046 259.595 498.258 260.431 498.681 261.192C499.104 261.933 499.718 262.515 500.522 262.938C501.347 263.361 502.342 263.573 503.505 263.573C505.071 263.573 506.436 263.255 507.6 262.621C508.785 261.965 509.715 261.171 510.393 260.24C511.07 259.288 511.429 258.389 511.472 257.542L513.947 260.938C513.693 261.806 513.26 262.737 512.646 263.731C512.032 264.726 511.228 265.678 510.234 266.588C509.261 267.477 508.086 268.207 506.711 268.778C505.357 269.349 503.791 269.635 502.014 269.635C499.771 269.635 497.771 269.19 496.015 268.302C494.259 267.392 492.884 266.175 491.889 264.652C490.895 263.107 490.397 261.362 490.397 259.415C490.397 257.595 490.736 255.987 491.413 254.591C492.111 253.173 493.127 251.988 494.46 251.036C495.814 250.084 497.465 249.365 499.411 248.878C501.358 248.37 503.579 248.116 506.076 248.116H512.075ZM545.908 259.701C545.908 258.939 545.717 258.251 545.336 257.638C544.956 257.003 544.226 256.432 543.146 255.924C542.089 255.416 540.523 254.951 538.449 254.527C536.63 254.125 534.958 253.649 533.435 253.099C531.932 252.528 530.642 251.84 529.562 251.036C528.483 250.232 527.648 249.28 527.055 248.18C526.463 247.079 526.167 245.81 526.167 244.371C526.167 242.975 526.473 241.652 527.087 240.404C527.701 239.155 528.579 238.055 529.721 237.103C530.864 236.151 532.25 235.4 533.879 234.85C535.529 234.299 537.37 234.024 539.401 234.024C542.279 234.024 544.744 234.511 546.796 235.484C548.87 236.437 550.457 237.738 551.557 239.388C552.657 241.017 553.208 242.858 553.208 244.911H545.559C545.559 244.001 545.326 243.154 544.86 242.372C544.416 241.568 543.739 240.922 542.829 240.436C541.919 239.928 540.777 239.674 539.401 239.674C538.09 239.674 537 239.885 536.132 240.309C535.286 240.711 534.651 241.24 534.228 241.896C533.826 242.551 533.625 243.271 533.625 244.054C533.625 244.625 533.731 245.143 533.942 245.609C534.175 246.053 534.556 246.466 535.085 246.847C535.614 247.206 536.333 247.545 537.243 247.862C538.174 248.18 539.338 248.486 540.734 248.783C543.358 249.333 545.611 250.042 547.495 250.909C549.399 251.756 550.859 252.856 551.875 254.21C552.89 255.543 553.398 257.236 553.398 259.288C553.398 260.812 553.07 262.208 552.414 263.478C551.779 264.726 550.848 265.816 549.621 266.747C548.394 267.656 546.923 268.365 545.209 268.873C543.517 269.381 541.612 269.635 539.497 269.635C536.386 269.635 533.752 269.085 531.594 267.984C529.436 266.863 527.796 265.435 526.674 263.7C525.574 261.944 525.024 260.124 525.024 258.241H532.419C532.504 259.658 532.895 260.79 533.593 261.637C534.313 262.462 535.201 263.065 536.259 263.446C537.338 263.806 538.449 263.985 539.592 263.985C540.967 263.985 542.12 263.806 543.051 263.446C543.982 263.065 544.691 262.557 545.178 261.922C545.664 261.266 545.908 260.526 545.908 259.701Z" fill="#1C1C1C"/>
<circle cx="1185.5" cy="553.5" r="207.5" stroke="#1C1C1C" stroke-width="30"/>
<path d="M1185.5 346C1224.35 346 1262.42 356.906 1295.37 377.477C1328.33 398.048 1354.85 427.458 1371.91 462.359C1388.98 497.26 1395.9 536.25 1391.89 574.892C1387.89 613.535 1373.12 650.276 1349.26 680.936C1325.4 711.595 1293.41 734.941 1256.94 748.315C1220.46 761.69 1180.97 764.557 1142.94 756.589C1104.92 748.621 1069.9 730.139 1041.86 703.246C1013.82 676.354 993.901 642.13 984.358 604.472" stroke="url(#paint1_linear_490_2)" stroke-width="30" stroke-linecap="round" stroke-linejoin="round"/>
<path d="M1114.07 527.125V532.281L1091.34 584H1081.41L1104.11 534.625H1074.66V527.125H1114.07ZM1147.47 526.93V584H1138.05V538.102L1124.11 542.828V535.055L1146.34 526.93H1147.47ZM1176.61 574.938L1176.57 581.656C1176.57 584.312 1175.91 587.047 1174.58 589.859C1173.25 592.672 1171.49 594.99 1169.3 596.812L1164.27 593.883C1164.99 592.711 1165.66 591.526 1166.26 590.328C1166.86 589.13 1167.34 587.854 1167.7 586.5C1168.07 585.146 1168.25 583.648 1168.25 582.008V574.938H1176.61ZM1222.2 550.797V560.094C1222.2 564.547 1221.75 568.349 1220.87 571.5C1220.01 574.625 1218.76 577.164 1217.12 579.117C1215.48 581.07 1213.51 582.503 1211.22 583.414C1208.95 584.326 1206.41 584.781 1203.6 584.781C1201.36 584.781 1199.28 584.495 1197.35 583.922C1195.45 583.349 1193.73 582.451 1192.2 581.227C1190.66 580.003 1189.34 578.427 1188.25 576.5C1187.18 574.547 1186.35 572.216 1185.75 569.508C1185.18 566.799 1184.89 563.661 1184.89 560.094V550.797C1184.89 546.318 1185.33 542.542 1186.22 539.469C1187.1 536.37 1188.37 533.857 1190.01 531.93C1191.65 529.977 1193.6 528.557 1195.87 527.672C1198.16 526.786 1200.71 526.344 1203.52 526.344C1205.79 526.344 1207.87 526.63 1209.77 527.203C1211.7 527.75 1213.42 528.622 1214.93 529.82C1216.47 531.018 1217.77 532.581 1218.84 534.508C1219.93 536.409 1220.76 538.714 1221.34 541.422C1221.91 544.104 1222.2 547.229 1222.2 550.797ZM1212.78 561.422V549.391C1212.78 547.125 1212.65 545.133 1212.39 543.414C1212.13 541.669 1211.74 540.198 1211.22 539C1210.72 537.776 1210.1 536.786 1209.34 536.031C1208.59 535.25 1207.73 534.69 1206.77 534.352C1205.8 533.987 1204.72 533.805 1203.52 533.805C1202.07 533.805 1200.76 534.091 1199.62 534.664C1198.47 535.211 1197.51 536.096 1196.73 537.32C1195.95 538.544 1195.35 540.159 1194.93 542.164C1194.54 544.143 1194.34 546.552 1194.34 549.391V561.422C1194.34 563.714 1194.47 565.732 1194.73 567.477C1194.99 569.221 1195.39 570.719 1195.91 571.969C1196.43 573.193 1197.05 574.208 1197.78 575.016C1198.54 575.797 1199.4 576.37 1200.36 576.734C1201.35 577.099 1202.43 577.281 1203.6 577.281C1205.09 577.281 1206.4 576.995 1207.55 576.422C1208.69 575.849 1209.66 574.938 1210.44 573.688C1211.22 572.411 1211.8 570.758 1212.2 568.727C1212.59 566.695 1212.78 564.26 1212.78 561.422ZM1240.48 557.555L1232.98 555.719L1236.06 527.125H1266.73V535.094H1243.88L1242.31 549.039C1243.2 548.518 1244.42 548.01 1245.98 547.516C1247.55 546.995 1249.33 546.734 1251.34 546.734C1254.02 546.734 1256.41 547.177 1258.52 548.062C1260.66 548.922 1262.47 550.185 1263.95 551.852C1265.44 553.492 1266.57 555.497 1267.35 557.867C1268.13 560.211 1268.52 562.854 1268.52 565.797C1268.52 568.427 1268.13 570.888 1267.35 573.18C1266.6 575.471 1265.45 577.49 1263.91 579.234C1262.38 580.979 1260.44 582.346 1258.09 583.336C1255.78 584.299 1253.03 584.781 1249.85 584.781C1247.48 584.781 1245.2 584.443 1243.02 583.766C1240.85 583.062 1238.91 582.034 1237.2 580.68C1235.48 579.299 1234.1 577.607 1233.05 575.602C1232.01 573.57 1231.41 571.24 1231.26 568.609H1240.48C1240.71 570.458 1241.22 572.034 1242 573.336C1242.81 574.612 1243.88 575.589 1245.2 576.266C1246.53 576.943 1248.07 577.281 1249.81 577.281C1251.4 577.281 1252.77 577.008 1253.91 576.461C1255.06 575.888 1256.01 575.081 1256.77 574.039C1257.55 572.971 1258.12 571.721 1258.48 570.289C1258.88 568.857 1259.07 567.268 1259.07 565.523C1259.07 563.857 1258.85 562.333 1258.41 560.953C1257.99 559.573 1257.35 558.375 1256.49 557.359C1255.66 556.344 1254.6 555.562 1253.33 555.016C1252.05 554.443 1250.58 554.156 1248.91 554.156C1246.67 554.156 1244.96 554.482 1243.76 555.133C1242.59 555.784 1241.49 556.591 1240.48 557.555ZM1275.67 541.07V538.062C1275.67 535.901 1276.14 533.935 1277.08 532.164C1278.02 530.393 1279.38 528.974 1281.18 527.906C1282.98 526.839 1285.14 526.305 1287.66 526.305C1290.27 526.305 1292.46 526.839 1294.23 527.906C1296.02 528.974 1297.39 530.393 1298.33 532.164C1299.27 533.935 1299.73 535.901 1299.73 538.062V541.07C1299.73 543.18 1299.27 545.12 1298.33 546.891C1297.42 548.661 1296.06 550.081 1294.27 551.148C1292.49 552.216 1290.32 552.75 1287.74 552.75C1285.19 552.75 1283 552.216 1281.18 551.148C1279.38 550.081 1278.02 548.661 1277.08 546.891C1276.14 545.12 1275.67 543.18 1275.67 541.07ZM1282.2 538.062V541.07C1282.2 542.112 1282.39 543.102 1282.78 544.039C1283.2 544.977 1283.82 545.732 1284.66 546.305C1285.49 546.878 1286.52 547.164 1287.74 547.164C1288.99 547.164 1290.01 546.878 1290.79 546.305C1291.6 545.732 1292.2 544.977 1292.59 544.039C1292.98 543.102 1293.17 542.112 1293.17 541.07V538.062C1293.17 536.995 1292.96 535.992 1292.55 535.055C1292.16 534.091 1291.56 533.323 1290.75 532.75C1289.94 532.177 1288.91 531.891 1287.66 531.891C1286.47 531.891 1285.45 532.177 1284.62 532.75C1283.81 533.323 1283.2 534.091 1282.78 535.055C1282.39 535.992 1282.2 536.995 1282.2 538.062ZM1303.09 573.102V570.055C1303.09 567.919 1303.56 565.966 1304.5 564.195C1305.46 562.424 1306.84 561.005 1308.64 559.938C1310.44 558.87 1312.6 558.336 1315.12 558.336C1317.73 558.336 1319.92 558.87 1321.69 559.938C1323.48 561.005 1324.84 562.424 1325.75 564.195C1326.69 565.966 1327.16 567.919 1327.16 570.055V573.102C1327.16 575.237 1326.69 577.19 1325.75 578.961C1324.84 580.732 1323.5 582.151 1321.73 583.219C1319.96 584.286 1317.79 584.82 1315.24 584.82C1312.66 584.82 1310.46 584.286 1308.64 583.219C1306.84 582.151 1305.46 580.732 1304.5 578.961C1303.56 577.19 1303.09 575.237 1303.09 573.102ZM1309.66 570.055V573.102C1309.66 574.143 1309.86 575.133 1310.28 576.07C1310.72 577.008 1311.36 577.776 1312.2 578.375C1313.03 578.948 1314.03 579.234 1315.2 579.234C1316.53 579.234 1317.6 578.948 1318.41 578.375C1319.21 577.776 1319.79 577.021 1320.12 576.109C1320.49 575.172 1320.67 574.169 1320.67 573.102V570.055C1320.67 568.987 1320.46 567.984 1320.05 567.047C1319.66 566.109 1319.04 565.354 1318.21 564.781C1317.4 564.208 1316.38 563.922 1315.12 563.922C1313.9 563.922 1312.89 564.208 1312.08 564.781C1311.27 565.354 1310.66 566.109 1310.24 567.047C1309.85 567.984 1309.66 568.987 1309.66 570.055ZM1317.47 535.25L1289.7 579.703L1284.89 576.93L1312.66 532.477L1317.47 535.25Z" fill="#1C1C1C"/>
<path d="M1048.28 877.622L1057.49 841.789H1062.31L1061.77 851.025L1051.93 888H1046.92L1048.28 877.622ZM1041.39 841.789L1048.85 877.336L1049.52 888H1044.19L1033.49 841.789H1041.39ZM1072.75 877.241L1080.12 841.789H1088.05L1077.35 888H1072.02L1072.75 877.241ZM1064.18 841.789L1073.29 877.717L1074.62 888H1069.61L1059.93 851.025L1059.42 841.789H1064.18ZM1100.75 839.25V888H1093.13V839.25H1100.75ZM1099.41 869.56L1096.94 869.528C1096.96 867.159 1097.29 864.969 1097.92 862.958C1098.58 860.948 1099.49 859.203 1100.65 857.722C1101.83 856.219 1103.25 855.066 1104.9 854.262C1106.55 853.437 1108.38 853.024 1110.39 853.024C1112.09 853.024 1113.61 853.257 1114.96 853.723C1116.34 854.188 1117.52 854.939 1118.52 855.976C1119.51 856.992 1120.26 858.325 1120.77 859.975C1121.3 861.604 1121.57 863.593 1121.57 865.942V888H1113.88V865.878C1113.88 864.228 1113.64 862.916 1113.15 861.943C1112.69 860.97 1112 860.271 1111.09 859.848C1110.18 859.404 1109.07 859.182 1107.76 859.182C1106.38 859.182 1105.17 859.457 1104.11 860.007C1103.07 860.557 1102.21 861.308 1101.51 862.26C1100.81 863.212 1100.28 864.313 1099.92 865.561C1099.58 866.809 1099.41 868.142 1099.41 869.56ZM1148.67 881.113V864.736C1148.67 863.509 1148.45 862.451 1148 861.562C1147.56 860.673 1146.88 859.986 1145.97 859.499C1145.08 859.012 1143.96 858.769 1142.61 858.769C1141.36 858.769 1140.28 858.981 1139.37 859.404C1138.46 859.827 1137.75 860.398 1137.24 861.118C1136.74 861.837 1136.48 862.652 1136.48 863.562H1128.87C1128.87 862.207 1129.19 860.896 1129.85 859.626C1130.51 858.356 1131.46 857.224 1132.71 856.23C1133.95 855.236 1135.45 854.453 1137.18 853.881C1138.92 853.31 1140.86 853.024 1143.02 853.024C1145.6 853.024 1147.89 853.458 1149.88 854.326C1151.89 855.193 1153.46 856.505 1154.6 858.261C1155.77 859.996 1156.35 862.176 1156.35 864.799V880.065C1156.35 881.631 1156.46 883.038 1156.67 884.287C1156.9 885.514 1157.23 886.582 1157.65 887.492V888H1149.81C1149.45 887.175 1149.17 886.127 1148.96 884.858C1148.77 883.567 1148.67 882.319 1148.67 881.113ZM1149.78 867.116L1149.84 871.845H1144.35C1142.94 871.845 1141.69 871.983 1140.61 872.258C1139.53 872.512 1138.63 872.893 1137.91 873.4C1137.19 873.908 1136.65 874.522 1136.29 875.241C1135.93 875.961 1135.75 876.775 1135.75 877.685C1135.75 878.595 1135.96 879.431 1136.39 880.192C1136.81 880.933 1137.42 881.515 1138.23 881.938C1139.05 882.361 1140.05 882.573 1141.21 882.573C1142.78 882.573 1144.14 882.255 1145.31 881.621C1146.49 880.965 1147.42 880.171 1148.1 879.24C1148.78 878.288 1149.14 877.389 1149.18 876.542L1151.65 879.938C1151.4 880.806 1150.97 881.737 1150.35 882.731C1149.74 883.726 1148.93 884.678 1147.94 885.588C1146.97 886.477 1145.79 887.207 1144.42 887.778C1143.06 888.349 1141.5 888.635 1139.72 888.635C1137.48 888.635 1135.48 888.19 1133.72 887.302C1131.97 886.392 1130.59 885.175 1129.6 883.652C1128.6 882.107 1128.1 880.362 1128.1 878.415C1128.1 876.595 1128.44 874.987 1129.12 873.591C1129.82 872.173 1130.83 870.988 1132.17 870.036C1133.52 869.084 1135.17 868.365 1137.12 867.878C1139.06 867.37 1141.29 867.116 1143.78 867.116H1149.78ZM1180.09 853.659V859.245H1160.73V853.659H1180.09ZM1166.32 845.249H1173.97V878.51C1173.97 879.568 1174.11 880.383 1174.41 880.954C1174.73 881.504 1175.16 881.875 1175.71 882.065C1176.26 882.255 1176.91 882.351 1177.65 882.351C1178.18 882.351 1178.68 882.319 1179.17 882.255C1179.66 882.192 1180.05 882.128 1180.34 882.065L1180.38 887.905C1179.74 888.095 1179 888.264 1178.15 888.413C1177.33 888.561 1176.38 888.635 1175.3 888.635C1173.54 888.635 1171.99 888.328 1170.63 887.714C1169.28 887.08 1168.22 886.053 1167.46 884.636C1166.7 883.218 1166.32 881.335 1166.32 878.986V845.249ZM1205.26 878.701C1205.26 877.939 1205.07 877.251 1204.69 876.638C1204.31 876.003 1203.58 875.432 1202.5 874.924C1201.44 874.416 1199.87 873.951 1197.8 873.527C1195.98 873.125 1194.31 872.649 1192.79 872.099C1191.28 871.528 1189.99 870.84 1188.91 870.036C1187.83 869.232 1187 868.28 1186.41 867.18C1185.81 866.079 1185.52 864.81 1185.52 863.371C1185.52 861.975 1185.82 860.652 1186.44 859.404C1187.05 858.155 1187.93 857.055 1189.07 856.103C1190.22 855.151 1191.6 854.4 1193.23 853.85C1194.88 853.299 1196.72 853.024 1198.75 853.024C1201.63 853.024 1204.1 853.511 1206.15 854.484C1208.22 855.437 1209.81 856.738 1210.91 858.388C1212.01 860.017 1212.56 861.858 1212.56 863.911H1204.91C1204.91 863.001 1204.68 862.154 1204.21 861.372C1203.77 860.568 1203.09 859.922 1202.18 859.436C1201.27 858.928 1200.13 858.674 1198.75 858.674C1197.44 858.674 1196.35 858.885 1195.48 859.309C1194.64 859.711 1194 860.24 1193.58 860.896C1193.18 861.551 1192.98 862.271 1192.98 863.054C1192.98 863.625 1193.08 864.143 1193.29 864.609C1193.53 865.053 1193.91 865.466 1194.44 865.847C1194.97 866.206 1195.68 866.545 1196.59 866.862C1197.53 867.18 1198.69 867.486 1200.09 867.783C1202.71 868.333 1204.96 869.042 1206.85 869.909C1208.75 870.756 1210.21 871.856 1211.23 873.21C1212.24 874.543 1212.75 876.236 1212.75 878.288C1212.75 879.812 1212.42 881.208 1211.77 882.478C1211.13 883.726 1210.2 884.816 1208.97 885.747C1207.75 886.656 1206.27 887.365 1204.56 887.873C1202.87 888.381 1200.96 888.635 1198.85 888.635C1195.74 888.635 1193.1 888.085 1190.95 886.984C1188.79 885.863 1187.15 884.435 1186.03 882.7C1184.93 880.944 1184.38 879.124 1184.38 877.241H1191.77C1191.86 878.658 1192.25 879.79 1192.94 880.637C1193.66 881.462 1194.55 882.065 1195.61 882.446C1196.69 882.806 1197.8 882.985 1198.94 882.985C1200.32 882.985 1201.47 882.806 1202.4 882.446C1203.33 882.065 1204.04 881.557 1204.53 880.922C1205.02 880.266 1205.26 879.526 1205.26 878.701ZM1238.81 881.113V864.736C1238.81 863.509 1238.58 862.451 1238.14 861.562C1237.7 860.673 1237.02 859.986 1236.11 859.499C1235.22 859.012 1234.1 858.769 1232.74 858.769C1231.5 858.769 1230.42 858.981 1229.51 859.404C1228.6 859.827 1227.89 860.398 1227.38 861.118C1226.87 861.837 1226.62 862.652 1226.62 863.562H1219C1219 862.207 1219.33 860.896 1219.99 859.626C1220.64 858.356 1221.59 857.224 1222.84 856.23C1224.09 855.236 1225.58 854.453 1227.32 853.881C1229.05 853.31 1231 853.024 1233.16 853.024C1235.74 853.024 1238.02 853.458 1240.01 854.326C1242.02 855.193 1243.6 856.505 1244.74 858.261C1245.91 859.996 1246.49 862.176 1246.49 864.799V880.065C1246.49 881.631 1246.59 883.038 1246.8 884.287C1247.04 885.514 1247.37 886.582 1247.79 887.492V888H1239.95C1239.59 887.175 1239.3 886.127 1239.09 884.858C1238.9 883.567 1238.81 882.319 1238.81 881.113ZM1239.92 867.116L1239.98 871.845H1234.49C1233.07 871.845 1231.82 871.983 1230.75 872.258C1229.67 872.512 1228.77 872.893 1228.05 873.4C1227.33 873.908 1226.79 874.522 1226.43 875.241C1226.07 875.961 1225.89 876.775 1225.89 877.685C1225.89 878.595 1226.1 879.431 1226.52 880.192C1226.95 880.933 1227.56 881.515 1228.36 881.938C1229.19 882.361 1230.18 882.573 1231.35 882.573C1232.91 882.573 1234.28 882.255 1235.44 881.621C1236.63 880.965 1237.56 880.171 1238.24 879.24C1238.91 878.288 1239.27 877.389 1239.31 876.542L1241.79 879.938C1241.54 880.806 1241.1 881.737 1240.49 882.731C1239.88 883.726 1239.07 884.678 1238.08 885.588C1237.1 886.477 1235.93 887.207 1234.55 887.778C1233.2 888.349 1231.63 888.635 1229.86 888.635C1227.61 888.635 1225.61 888.19 1223.86 887.302C1222.1 886.392 1220.73 885.175 1219.73 883.652C1218.74 882.107 1218.24 880.362 1218.24 878.415C1218.24 876.595 1218.58 874.987 1219.26 873.591C1219.95 872.173 1220.97 870.988 1222.3 870.036C1223.66 869.084 1225.31 868.365 1227.25 867.878C1229.2 867.37 1231.42 867.116 1233.92 867.116H1239.92ZM1262.17 860.261V901.203H1254.52V853.659H1261.56L1262.17 860.261ZM1284.54 870.512V871.179C1284.54 873.675 1284.25 875.992 1283.65 878.129C1283.08 880.245 1282.22 882.097 1281.08 883.684C1279.96 885.249 1278.57 886.466 1276.92 887.333C1275.27 888.201 1273.37 888.635 1271.21 888.635C1269.07 888.635 1267.2 888.243 1265.59 887.46C1264.01 886.656 1262.66 885.524 1261.56 884.064C1260.46 882.604 1259.57 880.891 1258.9 878.923C1258.24 876.934 1257.78 874.755 1257.5 872.385V869.814C1257.78 867.296 1258.24 865.011 1258.9 862.958C1259.57 860.906 1260.46 859.139 1261.56 857.658C1262.66 856.177 1264.01 855.035 1265.59 854.23C1267.18 853.426 1269.03 853.024 1271.15 853.024C1273.31 853.024 1275.22 853.448 1276.89 854.294C1278.56 855.119 1279.97 856.304 1281.11 857.849C1282.26 859.372 1283.11 861.213 1283.68 863.371C1284.26 865.508 1284.54 867.889 1284.54 870.512ZM1276.89 871.179V870.512C1276.89 868.925 1276.74 867.455 1276.45 866.101C1276.15 864.725 1275.69 863.519 1275.05 862.482C1274.42 861.446 1273.6 860.642 1272.61 860.07C1271.63 859.478 1270.46 859.182 1269.08 859.182C1267.73 859.182 1266.57 859.414 1265.59 859.88C1264.62 860.324 1263.81 860.948 1263.15 861.752C1262.49 862.556 1261.99 863.498 1261.63 864.577C1261.27 865.635 1261.01 866.788 1260.86 868.037V874.194C1261.12 875.717 1261.55 877.114 1262.17 878.383C1262.78 879.653 1263.65 880.668 1264.77 881.43C1265.91 882.171 1267.37 882.541 1269.15 882.541C1270.52 882.541 1271.7 882.245 1272.67 881.652C1273.64 881.06 1274.44 880.245 1275.05 879.208C1275.69 878.151 1276.15 876.934 1276.45 875.559C1276.74 874.183 1276.89 872.723 1276.89 871.179ZM1298.73 860.261V901.203H1291.08V853.659H1298.13L1298.73 860.261ZM1321.1 870.512V871.179C1321.1 873.675 1320.81 875.992 1320.22 878.129C1319.64 880.245 1318.79 882.097 1317.64 883.684C1316.52 885.249 1315.14 886.466 1313.49 887.333C1311.84 888.201 1309.93 888.635 1307.77 888.635C1305.64 888.635 1303.76 888.243 1302.16 887.46C1300.57 886.656 1299.23 885.524 1298.13 884.064C1297.03 882.604 1296.14 880.891 1295.46 878.923C1294.8 876.934 1294.34 874.755 1294.06 872.385V869.814C1294.34 867.296 1294.8 865.011 1295.46 862.958C1296.14 860.906 1297.03 859.139 1298.13 857.658C1299.23 856.177 1300.57 855.035 1302.16 854.23C1303.74 853.426 1305.59 853.024 1307.71 853.024C1309.87 853.024 1311.78 853.448 1313.46 854.294C1315.13 855.119 1316.53 856.304 1317.68 857.849C1318.82 859.372 1319.68 861.213 1320.25 863.371C1320.82 865.508 1321.1 867.889 1321.1 870.512ZM1313.46 871.179V870.512C1313.46 868.925 1313.31 867.455 1313.01 866.101C1312.71 864.725 1312.25 863.519 1311.61 862.482C1310.98 861.446 1310.16 860.642 1309.17 860.07C1308.2 859.478 1307.02 859.182 1305.65 859.182C1304.29 859.182 1303.13 859.414 1302.16 859.88C1301.18 860.324 1300.37 860.948 1299.71 861.752C1299.06 862.556 1298.55 863.498 1298.19 864.577C1297.83 865.635 1297.58 866.788 1297.43 868.037V874.194C1297.68 875.717 1298.11 877.114 1298.73 878.383C1299.34 879.653 1300.21 880.668 1301.33 881.43C1302.47 882.171 1303.93 882.541 1305.71 882.541C1307.09 882.541 1308.26 882.245 1309.23 881.652C1310.21 881.06 1311 880.245 1311.61 879.208C1312.25 878.151 1312.71 876.934 1313.01 875.559C1313.31 874.183 1313.46 872.723 1313.46 871.179Z" fill="#1C1C1C"/>
<path d="M975.693 228.946L961.887 269H953.54L970.932 222.789H976.264L975.693 228.946ZM987.246 269L973.408 228.946L972.805 222.789H978.168L995.625 269H987.246ZM986.579 251.861V258.177H961.442V251.861H986.579ZM1015.21 234.659V240.245H995.847V234.659H1015.21ZM1001.43 226.249H1009.08V259.51C1009.08 260.568 1009.23 261.383 1009.53 261.954C1009.84 262.504 1010.28 262.875 1010.83 263.065C1011.38 263.255 1012.02 263.351 1012.76 263.351C1013.29 263.351 1013.8 263.319 1014.29 263.255C1014.77 263.192 1015.16 263.128 1015.46 263.065L1015.49 268.905C1014.86 269.095 1014.12 269.264 1013.27 269.413C1012.45 269.561 1011.49 269.635 1010.41 269.635C1008.66 269.635 1007.1 269.328 1005.75 268.714C1004.39 268.08 1003.34 267.053 1002.58 265.636C1001.81 264.218 1001.43 262.335 1001.43 259.986V226.249ZM1029.3 234.659V269H1021.62V234.659H1029.3ZM1021.11 225.646C1021.11 224.482 1021.49 223.519 1022.25 222.757C1023.04 221.974 1024.11 221.583 1025.49 221.583C1026.84 221.583 1027.91 221.974 1028.7 222.757C1029.48 223.519 1029.87 224.482 1029.87 225.646C1029.87 226.788 1029.48 227.74 1028.7 228.502C1027.91 229.264 1026.84 229.645 1025.49 229.645C1024.11 229.645 1023.04 229.264 1022.25 228.502C1021.49 227.74 1021.11 226.788 1021.11 225.646ZM1048.85 262.938L1057.26 234.659H1065.19L1053.26 269H1048.31L1048.85 262.938ZM1042.41 234.659L1050.98 263.065L1051.39 269H1046.44L1034.44 234.659H1042.41ZM1078.11 234.659V269H1070.43V234.659H1078.11ZM1069.92 225.646C1069.92 224.482 1070.3 223.519 1071.07 222.757C1071.85 221.974 1072.93 221.583 1074.3 221.583C1075.66 221.583 1076.73 221.974 1077.51 222.757C1078.29 223.519 1078.68 224.482 1078.68 225.646C1078.68 226.788 1078.29 227.74 1077.51 228.502C1076.73 229.264 1075.66 229.645 1074.3 229.645C1072.93 229.645 1071.85 229.264 1071.07 228.502C1070.3 227.74 1069.92 226.788 1069.92 225.646ZM1107.44 261.891V220.25H1115.12V269H1108.17L1107.44 261.891ZM1085.09 252.21V251.544C1085.09 248.941 1085.4 246.572 1086.02 244.435C1086.63 242.276 1087.52 240.425 1088.68 238.88C1089.84 237.315 1091.26 236.119 1092.93 235.294C1094.61 234.448 1096.49 234.024 1098.58 234.024C1100.66 234.024 1102.48 234.426 1104.04 235.23C1105.61 236.035 1106.94 237.188 1108.04 238.69C1109.14 240.171 1110.02 241.948 1110.68 244.022C1111.33 246.074 1111.8 248.36 1112.07 250.877V253.004C1111.8 255.458 1111.33 257.701 1110.68 259.732C1110.02 261.764 1109.14 263.52 1108.04 265.001C1106.94 266.482 1105.6 267.625 1104.01 268.429C1102.44 269.233 1100.61 269.635 1098.52 269.635C1096.45 269.635 1094.57 269.201 1092.9 268.333C1091.25 267.466 1089.84 266.249 1088.68 264.684C1087.52 263.118 1086.63 261.277 1086.02 259.161C1085.4 257.024 1085.09 254.707 1085.09 252.21ZM1092.74 251.544V252.21C1092.74 253.776 1092.88 255.236 1093.16 256.59C1093.45 257.944 1093.91 259.14 1094.52 260.177C1095.13 261.192 1095.93 261.996 1096.9 262.589C1097.9 263.16 1099.08 263.446 1100.46 263.446C1102.19 263.446 1103.62 263.065 1104.74 262.303C1105.86 261.542 1106.74 260.515 1107.38 259.225C1108.03 257.913 1108.48 256.453 1108.71 254.845V249.1C1108.58 247.852 1108.32 246.688 1107.91 245.609C1107.53 244.53 1107.02 243.588 1106.36 242.784C1105.7 241.959 1104.89 241.324 1103.92 240.88C1102.96 240.414 1101.83 240.182 1100.52 240.182C1099.12 240.182 1097.94 240.478 1096.96 241.07C1095.99 241.663 1095.19 242.477 1094.55 243.514C1093.94 244.551 1093.48 245.757 1093.19 247.132C1092.89 248.508 1092.74 249.978 1092.74 251.544ZM1142.48 262.113V245.736C1142.48 244.509 1142.26 243.451 1141.81 242.562C1141.37 241.673 1140.69 240.986 1139.78 240.499C1138.89 240.012 1137.77 239.769 1136.42 239.769C1135.17 239.769 1134.09 239.981 1133.18 240.404C1132.27 240.827 1131.56 241.398 1131.05 242.118C1130.54 242.837 1130.29 243.652 1130.29 244.562H1122.67C1122.67 243.207 1123 241.896 1123.66 240.626C1124.31 239.356 1125.26 238.224 1126.51 237.23C1127.76 236.236 1129.25 235.453 1130.99 234.881C1132.72 234.31 1134.67 234.024 1136.83 234.024C1139.41 234.024 1141.69 234.458 1143.68 235.326C1145.69 236.193 1147.27 237.505 1148.41 239.261C1149.58 240.996 1150.16 243.176 1150.16 245.799V261.065C1150.16 262.631 1150.26 264.038 1150.48 265.287C1150.71 266.514 1151.04 267.582 1151.46 268.492V269H1143.62C1143.26 268.175 1142.97 267.127 1142.76 265.858C1142.57 264.567 1142.48 263.319 1142.48 262.113ZM1143.59 248.116L1143.65 252.845H1138.16C1136.74 252.845 1135.5 252.983 1134.42 253.258C1133.34 253.512 1132.44 253.893 1131.72 254.4C1131 254.908 1130.46 255.522 1130.1 256.241C1129.74 256.961 1129.56 257.775 1129.56 258.685C1129.56 259.595 1129.77 260.431 1130.19 261.192C1130.62 261.933 1131.23 262.515 1132.04 262.938C1132.86 263.361 1133.86 263.573 1135.02 263.573C1136.58 263.573 1137.95 263.255 1139.11 262.621C1140.3 261.965 1141.23 261.171 1141.91 260.24C1142.58 259.288 1142.94 258.389 1142.99 257.542L1145.46 260.938C1145.21 261.806 1144.77 262.737 1144.16 263.731C1143.55 264.726 1142.74 265.678 1141.75 266.588C1140.77 267.477 1139.6 268.207 1138.22 268.778C1136.87 269.349 1135.3 269.635 1133.53 269.635C1131.28 269.635 1129.28 269.19 1127.53 268.302C1125.77 267.392 1124.4 266.175 1123.4 264.652C1122.41 263.107 1121.91 261.362 1121.91 259.415C1121.91 257.595 1122.25 255.987 1122.93 254.591C1123.62 253.173 1124.64 251.988 1125.97 251.036C1127.33 250.084 1128.98 249.365 1130.92 248.878C1132.87 248.37 1135.09 248.116 1137.59 248.116H1143.59ZM1179.1 261.891V220.25H1186.78V269H1179.83L1179.1 261.891ZM1156.76 252.21V251.544C1156.76 248.941 1157.07 246.572 1157.68 244.435C1158.29 242.276 1159.18 240.425 1160.35 238.88C1161.51 237.315 1162.93 236.119 1164.6 235.294C1166.27 234.448 1168.15 234.024 1170.25 234.024C1172.32 234.024 1174.14 234.426 1175.71 235.23C1177.27 236.035 1178.61 237.188 1179.71 238.69C1180.81 240.171 1181.68 241.948 1182.34 244.022C1183 246.074 1183.46 248.36 1183.74 250.877V253.004C1183.46 255.458 1183 257.701 1182.34 259.732C1181.68 261.764 1180.81 263.52 1179.71 265.001C1178.61 266.482 1177.26 267.625 1175.68 268.429C1174.11 269.233 1172.28 269.635 1170.19 269.635C1168.11 269.635 1166.24 269.201 1164.57 268.333C1162.92 267.466 1161.51 266.249 1160.35 264.684C1159.18 263.118 1158.29 261.277 1157.68 259.161C1157.07 257.024 1156.76 254.707 1156.76 252.21ZM1164.41 251.544V252.21C1164.41 253.776 1164.55 255.236 1164.82 256.59C1165.12 257.944 1165.57 259.14 1166.19 260.177C1166.8 261.192 1167.59 261.996 1168.57 262.589C1169.56 263.16 1170.75 263.446 1172.12 263.446C1173.86 263.446 1175.28 263.065 1176.41 262.303C1177.53 261.542 1178.41 260.515 1179.04 259.225C1179.7 257.913 1180.14 256.453 1180.37 254.845V249.1C1180.25 247.852 1179.98 246.688 1179.58 245.609C1179.2 244.53 1178.68 243.588 1178.02 242.784C1177.37 241.959 1176.55 241.324 1175.58 240.88C1174.63 240.414 1173.5 240.182 1172.18 240.182C1170.79 240.182 1169.6 240.478 1168.63 241.07C1167.66 241.663 1166.85 242.477 1166.22 243.514C1165.6 244.551 1165.15 245.757 1164.85 247.132C1164.56 248.508 1164.41 249.978 1164.41 251.544ZM1209.92 269.635C1207.38 269.635 1205.09 269.222 1203.03 268.397C1201 267.551 1199.27 266.376 1197.83 264.874C1196.41 263.372 1195.32 261.605 1194.56 259.574C1193.8 257.542 1193.42 255.353 1193.42 253.004V251.734C1193.42 249.047 1193.81 246.614 1194.59 244.435C1195.37 242.255 1196.46 240.393 1197.86 238.849C1199.26 237.283 1200.91 236.087 1202.81 235.262C1204.72 234.437 1206.78 234.024 1209 234.024C1211.46 234.024 1213.6 234.437 1215.44 235.262C1217.28 236.087 1218.81 237.251 1220.01 238.753C1221.24 240.235 1222.15 242.001 1222.74 244.054C1223.36 246.106 1223.66 248.37 1223.66 250.846V254.115H1197.13V248.624H1216.11V248.021C1216.07 246.646 1215.79 245.355 1215.29 244.149C1214.8 242.943 1214.05 241.97 1213.03 241.229C1212.02 240.488 1210.66 240.118 1208.97 240.118C1207.7 240.118 1206.57 240.393 1205.57 240.943C1204.6 241.472 1203.79 242.245 1203.13 243.26C1202.47 244.276 1201.97 245.503 1201.61 246.942C1201.27 248.36 1201.1 249.957 1201.1 251.734V253.004C1201.1 254.506 1201.3 255.903 1201.7 257.193C1202.12 258.463 1202.74 259.574 1203.54 260.526C1204.35 261.478 1205.32 262.229 1206.46 262.779C1207.6 263.308 1208.91 263.573 1210.37 263.573C1212.21 263.573 1213.85 263.202 1215.29 262.462C1216.72 261.721 1217.97 260.674 1219.03 259.32L1223.06 263.224C1222.32 264.303 1221.36 265.34 1220.17 266.334C1218.99 267.307 1217.54 268.101 1215.82 268.714C1214.13 269.328 1212.16 269.635 1209.92 269.635ZM1248.9 259.701C1248.9 258.939 1248.71 258.251 1248.32 257.638C1247.94 257.003 1247.21 256.432 1246.13 255.924C1245.08 255.416 1243.51 254.951 1241.44 254.527C1239.62 254.125 1237.95 253.649 1236.42 253.099C1234.92 252.528 1233.63 251.84 1232.55 251.036C1231.47 250.232 1230.64 249.28 1230.04 248.18C1229.45 247.079 1229.15 245.81 1229.15 244.371C1229.15 242.975 1229.46 241.652 1230.08 240.404C1230.69 239.155 1231.57 238.055 1232.71 237.103C1233.85 236.151 1235.24 235.4 1236.87 234.85C1238.52 234.299 1240.36 234.024 1242.39 234.024C1245.27 234.024 1247.73 234.511 1249.78 235.484C1251.86 236.437 1253.45 237.738 1254.55 239.388C1255.65 241.017 1256.2 242.858 1256.2 244.911H1248.55C1248.55 244.001 1248.31 243.154 1247.85 242.372C1247.4 241.568 1246.73 240.922 1245.82 240.436C1244.91 239.928 1243.76 239.674 1242.39 239.674C1241.08 239.674 1239.99 239.885 1239.12 240.309C1238.27 240.711 1237.64 241.24 1237.22 241.896C1236.81 242.551 1236.61 243.271 1236.61 244.054C1236.61 244.625 1236.72 245.143 1236.93 245.609C1237.16 246.053 1237.54 246.466 1238.07 246.847C1238.6 247.206 1239.32 247.545 1240.23 247.862C1241.16 248.18 1242.33 248.486 1243.72 248.783C1246.35 249.333 1248.6 250.042 1250.48 250.909C1252.39 251.756 1253.85 252.856 1254.86 254.21C1255.88 255.543 1256.39 257.236 1256.39 259.288C1256.39 260.812 1256.06 262.208 1255.4 263.478C1254.77 264.726 1253.84 265.816 1252.61 266.747C1251.38 267.656 1249.91 268.365 1248.2 268.873C1246.51 269.381 1244.6 269.635 1242.48 269.635C1239.37 269.635 1236.74 269.085 1234.58 267.984C1232.42 266.863 1230.78 265.435 1229.66 263.7C1228.56 261.944 1228.01 260.124 1228.01 258.241H1235.41C1235.49 259.658 1235.88 260.79 1236.58 261.637C1237.3 262.462 1238.19 263.065 1239.25 263.446C1240.33 263.806 1241.44 263.985 1242.58 263.985C1243.96 263.985 1245.11 263.806 1246.04 263.446C1246.97 263.065 1247.68 262.557 1248.17 261.922C1248.65 261.266 1248.9 260.526 1248.9 259.701ZM1283.17 222.789L1265.18 272.967H1259.18L1277.21 222.789H1283.17ZM1303.36 254.417H1293.19V249.073H1303.36C1305.14 249.073 1306.57 248.787 1307.66 248.214C1308.75 247.641 1309.55 246.853 1310.05 245.851C1310.57 244.83 1310.83 243.666 1310.83 242.359C1310.83 241.124 1310.57 239.969 1310.05 238.895C1309.55 237.803 1308.75 236.926 1307.66 236.263C1306.57 235.601 1305.14 235.27 1303.36 235.27H1295.25V269H1288.51V229.898H1303.36C1306.39 229.898 1308.96 230.436 1311.07 231.51C1313.2 232.566 1314.82 234.034 1315.93 235.914C1317.04 237.776 1317.6 239.907 1317.6 242.306C1317.6 244.83 1317.04 246.996 1315.93 248.805C1314.82 250.613 1313.2 252 1311.07 252.967C1308.96 253.934 1306.39 254.417 1303.36 254.417ZM1335 269H1326.65L1326.7 263.656H1335C1337.42 263.656 1339.44 263.128 1341.07 262.071C1342.72 261.015 1343.95 259.502 1344.77 257.533C1345.62 255.563 1346.04 253.218 1346.04 250.497V248.375C1346.04 246.262 1345.8 244.391 1345.31 242.762C1344.85 241.133 1344.15 239.763 1343.22 238.653C1342.3 237.543 1341.18 236.702 1339.83 236.129C1338.51 235.556 1336.98 235.27 1335.24 235.27H1326.49V229.898H1335.24C1337.84 229.898 1340.21 230.337 1342.36 231.214C1344.51 232.074 1346.36 233.318 1347.92 234.947C1349.49 236.576 1350.7 238.528 1351.54 240.802C1352.38 243.076 1352.8 245.618 1352.8 248.429V250.497C1352.8 253.307 1352.38 255.85 1351.54 258.124C1350.7 260.397 1349.49 262.349 1347.92 263.978C1346.34 265.589 1344.46 266.834 1342.28 267.711C1340.11 268.57 1337.69 269 1335 269ZM1330.38 229.898V269H1323.64V229.898H1330.38ZM1366.31 229.898V269H1359.57V229.898H1366.31ZM1382.27 247.005V252.35H1364.59V247.005H1382.27ZM1384.49 229.898V235.27H1364.59V229.898H1384.49Z" fill="#1C1C1C"/>
<circle cx="1979.5" cy="553.5" r="207.5" stroke="#1C1C1C" stroke-width="30"/>
<path d="M1979.5 346C2008.86 346 2037.89 352.232 2064.67 364.283C2091.44 376.335 2115.35 393.932 2134.82 415.911C2154.29 437.891 2168.88 463.752 2177.61 491.786C2186.34 519.82 2189.03 549.388 2185.48 578.536C2181.94 607.684 2172.25 635.749 2157.06 660.874C2141.86 686 2121.51 707.615 2097.34 724.291C2073.17 740.966 2045.74 752.322 2016.86 757.609C1987.98 762.896 1958.3 761.992 1929.79 754.958" stroke="url(#paint2_linear_490_2)" stroke-width="30" stroke-linecap="round" stroke-linejoin="round"/>
<path d="M1880.18 557.555L1872.68 555.719L1875.77 527.125H1906.43V535.094H1883.58L1882.02 549.039C1882.9 548.518 1884.12 548.01 1885.69 547.516C1887.25 546.995 1889.03 546.734 1891.04 546.734C1893.72 546.734 1896.12 547.177 1898.23 548.062C1900.36 548.922 1902.17 550.185 1903.66 551.852C1905.14 553.492 1906.27 555.497 1907.05 557.867C1907.84 560.211 1908.23 562.854 1908.23 565.797C1908.23 568.427 1907.84 570.888 1907.05 573.18C1906.3 575.471 1905.15 577.49 1903.62 579.234C1902.08 580.979 1900.14 582.346 1897.8 583.336C1895.48 584.299 1892.73 584.781 1889.55 584.781C1887.18 584.781 1884.91 584.443 1882.72 583.766C1880.56 583.062 1878.62 582.034 1876.9 580.68C1875.18 579.299 1873.8 577.607 1872.76 575.602C1871.72 573.57 1871.12 571.24 1870.96 568.609H1880.18C1880.41 570.458 1880.92 572.034 1881.7 573.336C1882.51 574.612 1883.58 575.589 1884.91 576.266C1886.23 576.943 1887.77 577.281 1889.52 577.281C1891.1 577.281 1892.47 577.008 1893.62 576.461C1894.76 575.888 1895.71 575.081 1896.47 574.039C1897.25 572.971 1897.82 571.721 1898.19 570.289C1898.58 568.857 1898.77 567.268 1898.77 565.523C1898.77 563.857 1898.55 562.333 1898.11 560.953C1897.69 559.573 1897.05 558.375 1896.2 557.359C1895.36 556.344 1894.31 555.562 1893.03 555.016C1891.76 554.443 1890.28 554.156 1888.62 554.156C1886.38 554.156 1884.66 554.482 1883.46 555.133C1882.29 555.784 1881.2 556.591 1880.18 557.555ZM1926.82 551.305H1932.45C1934.63 551.305 1936.44 550.927 1937.88 550.172C1939.33 549.417 1940.41 548.375 1941.12 547.047C1941.82 545.719 1942.17 544.195 1942.17 542.477C1942.17 540.68 1941.85 539.143 1941.2 537.867C1940.57 536.565 1939.61 535.562 1938.3 534.859C1937.03 534.156 1935.4 533.805 1933.42 533.805C1931.76 533.805 1930.24 534.143 1928.89 534.82C1927.56 535.471 1926.51 536.409 1925.73 537.633C1924.95 538.831 1924.55 540.263 1924.55 541.93H1915.1C1915.1 538.909 1915.9 536.227 1917.48 533.883C1919.07 531.539 1921.23 529.703 1923.97 528.375C1926.73 527.021 1929.83 526.344 1933.27 526.344C1936.94 526.344 1940.14 526.956 1942.88 528.18C1945.64 529.378 1947.78 531.174 1949.32 533.57C1950.86 535.966 1951.62 538.935 1951.62 542.477C1951.62 544.091 1951.25 545.732 1950.49 547.398C1949.74 549.065 1948.62 550.589 1947.13 551.969C1945.65 553.323 1943.8 554.43 1941.59 555.289C1939.37 556.122 1936.81 556.539 1933.89 556.539H1926.82V551.305ZM1926.82 558.648V553.492H1933.89C1937.22 553.492 1940.06 553.883 1942.41 554.664C1944.78 555.445 1946.7 556.526 1948.19 557.906C1949.67 559.26 1950.75 560.81 1951.43 562.555C1952.13 564.299 1952.48 566.148 1952.48 568.102C1952.48 570.758 1952 573.128 1951.04 575.211C1950.1 577.268 1948.76 579.013 1947.02 580.445C1945.27 581.878 1943.23 582.958 1940.88 583.688C1938.57 584.417 1936.04 584.781 1933.3 584.781C1930.86 584.781 1928.51 584.443 1926.27 583.766C1924.03 583.089 1922.03 582.086 1920.26 580.758C1918.49 579.404 1917.08 577.724 1916.04 575.719C1915.02 573.688 1914.52 571.344 1914.52 568.688H1923.93C1923.93 570.38 1924.32 571.878 1925.1 573.18C1925.91 574.456 1927.03 575.458 1928.46 576.188C1929.92 576.917 1931.59 577.281 1933.46 577.281C1935.44 577.281 1937.15 576.93 1938.58 576.227C1940.01 575.523 1941.1 574.482 1941.86 573.102C1942.64 571.721 1943.03 570.055 1943.03 568.102C1943.03 565.888 1942.6 564.091 1941.74 562.711C1940.88 561.331 1939.66 560.315 1938.07 559.664C1936.48 558.987 1934.61 558.648 1932.45 558.648H1926.82ZM1970.61 574.938L1970.57 581.656C1970.57 584.312 1969.91 587.047 1968.58 589.859C1967.25 592.672 1965.49 594.99 1963.3 596.812L1958.27 593.883C1958.99 592.711 1959.66 591.526 1960.26 590.328C1960.86 589.13 1961.34 587.854 1961.7 586.5C1962.07 585.146 1962.25 583.648 1962.25 582.008V574.938H1970.61ZM2016.31 568.492C2016.31 572.034 2015.49 575.016 2013.85 577.438C2012.21 579.859 2009.97 581.695 2007.13 582.945C2004.32 584.169 2001.14 584.781 1997.6 584.781C1994.06 584.781 1990.87 584.169 1988.03 582.945C1985.19 581.695 1982.95 579.859 1981.31 577.438C1979.67 575.016 1978.85 572.034 1978.85 568.492C1978.85 566.148 1979.31 564.026 1980.22 562.125C1981.13 560.198 1982.42 558.544 1984.09 557.164C1985.78 555.758 1987.76 554.677 1990.02 553.922C1992.32 553.167 1994.82 552.789 1997.52 552.789C2001.12 552.789 2004.33 553.453 2007.17 554.781C2010.01 556.109 2012.24 557.945 2013.85 560.289C2015.49 562.633 2016.31 565.367 2016.31 568.492ZM2006.86 568.023C2006.86 566.122 2006.47 564.456 2005.69 563.023C2004.91 561.591 2003.81 560.484 2002.41 559.703C2001 558.922 1999.37 558.531 1997.52 558.531C1995.65 558.531 1994.02 558.922 1992.64 559.703C1991.26 560.484 1990.18 561.591 1989.4 563.023C1988.64 564.456 1988.27 566.122 1988.27 568.023C1988.27 569.951 1988.64 571.617 1989.4 573.023C1990.15 574.404 1991.23 575.458 1992.64 576.188C1994.05 576.917 1995.7 577.281 1997.6 577.281C1999.5 577.281 2001.14 576.917 2002.52 576.188C2003.9 575.458 2004.97 574.404 2005.73 573.023C2006.48 571.617 2006.86 569.951 2006.86 568.023ZM2015.02 542.086C2015.02 544.924 2014.27 547.451 2012.76 549.664C2011.27 551.878 2009.22 553.622 2006.59 554.898C2003.96 556.148 2000.96 556.773 1997.6 556.773C1994.22 556.773 1991.2 556.148 1988.54 554.898C1985.91 553.622 1983.84 551.878 1982.33 549.664C1980.84 547.451 1980.1 544.924 1980.1 542.086C1980.1 538.701 1980.84 535.849 1982.33 533.531C1983.84 531.188 1985.91 529.404 1988.54 528.18C1991.17 526.956 1994.18 526.344 1997.56 526.344C2000.95 526.344 2003.96 526.956 2006.59 528.18C2009.22 529.404 2011.27 531.188 2012.76 533.531C2014.27 535.849 2015.02 538.701 2015.02 542.086ZM2005.61 542.398C2005.61 540.706 2005.27 539.221 2004.59 537.945C2003.94 536.643 2003.02 535.628 2001.82 534.898C2000.62 534.169 1999.2 533.805 1997.56 533.805C1995.92 533.805 1994.5 534.156 1993.3 534.859C1992.11 535.562 1991.18 536.552 1990.53 537.828C1989.88 539.104 1989.55 540.628 1989.55 542.398C1989.55 544.143 1989.88 545.667 1990.53 546.969C1991.18 548.245 1992.11 549.247 1993.3 549.977C1994.53 550.706 1995.96 551.07 1997.6 551.07C1999.24 551.07 2000.66 550.706 2001.86 549.977C2003.06 549.247 2003.98 548.245 2004.63 546.969C2005.28 545.667 2005.61 544.143 2005.61 542.398ZM2034.48 557.555L2026.98 555.719L2030.06 527.125H2060.73V535.094H2037.88L2036.31 549.039C2037.2 548.518 2038.42 548.01 2039.98 547.516C2041.55 546.995 2043.33 546.734 2045.34 546.734C2048.02 546.734 2050.41 547.177 2052.52 548.062C2054.66 548.922 2056.47 550.185 2057.95 551.852C2059.44 553.492 2060.57 555.497 2061.35 557.867C2062.13 560.211 2062.52 562.854 2062.52 565.797C2062.52 568.427 2062.13 570.888 2061.35 573.18C2060.6 575.471 2059.45 577.49 2057.91 579.234C2056.38 580.979 2054.44 582.346 2052.09 583.336C2049.78 584.299 2047.03 584.781 2043.85 584.781C2041.48 584.781 2039.2 584.443 2037.02 583.766C2034.85 583.062 2032.91 582.034 2031.2 580.68C2029.48 579.299 2028.1 577.607 2027.05 575.602C2026.01 573.57 2025.41 571.24 2025.26 568.609H2034.48C2034.71 570.458 2035.22 572.034 2036 573.336C2036.81 574.612 2037.88 575.589 2039.2 576.266C2040.53 576.943 2042.07 577.281 2043.81 577.281C2045.4 577.281 2046.77 577.008 2047.91 576.461C2049.06 575.888 2050.01 575.081 2050.77 574.039C2051.55 572.971 2052.12 571.721 2052.48 570.289C2052.88 568.857 2053.07 567.268 2053.07 565.523C2053.07 563.857 2052.85 562.333 2052.41 560.953C2051.99 559.573 2051.35 558.375 2050.49 557.359C2049.66 556.344 2048.6 555.562 2047.33 555.016C2046.05 554.443 2044.58 554.156 2042.91 554.156C2040.67 554.156 2038.96 554.482 2037.76 555.133C2036.59 555.784 2035.49 556.591 2034.48 557.555ZM2069.67 541.07V538.062C2069.67 535.901 2070.14 533.935 2071.08 532.164C2072.02 530.393 2073.38 528.974 2075.18 527.906C2076.98 526.839 2079.14 526.305 2081.66 526.305C2084.27 526.305 2086.46 526.839 2088.23 527.906C2090.02 528.974 2091.39 530.393 2092.33 532.164C2093.27 533.935 2093.73 535.901 2093.73 538.062V541.07C2093.73 543.18 2093.27 545.12 2092.33 546.891C2091.42 548.661 2090.06 550.081 2088.27 551.148C2086.49 552.216 2084.32 552.75 2081.74 552.75C2079.19 552.75 2077 552.216 2075.18 551.148C2073.38 550.081 2072.02 548.661 2071.08 546.891C2070.14 545.12 2069.67 543.18 2069.67 541.07ZM2076.2 538.062V541.07C2076.2 542.112 2076.39 543.102 2076.78 544.039C2077.2 544.977 2077.82 545.732 2078.66 546.305C2079.49 546.878 2080.52 547.164 2081.74 547.164C2082.99 547.164 2084.01 546.878 2084.79 546.305C2085.6 545.732 2086.2 544.977 2086.59 544.039C2086.98 543.102 2087.17 542.112 2087.17 541.07V538.062C2087.17 536.995 2086.96 535.992 2086.55 535.055C2086.16 534.091 2085.56 533.323 2084.75 532.75C2083.94 532.177 2082.91 531.891 2081.66 531.891C2080.47 531.891 2079.45 532.177 2078.62 532.75C2077.81 533.323 2077.2 534.091 2076.78 535.055C2076.39 535.992 2076.2 536.995 2076.2 538.062ZM2097.09 573.102V570.055C2097.09 567.919 2097.56 565.966 2098.5 564.195C2099.46 562.424 2100.84 561.005 2102.64 559.938C2104.44 558.87 2106.6 558.336 2109.12 558.336C2111.73 558.336 2113.92 558.87 2115.69 559.938C2117.48 561.005 2118.84 562.424 2119.75 564.195C2120.69 565.966 2121.16 567.919 2121.16 570.055V573.102C2121.16 575.237 2120.69 577.19 2119.75 578.961C2118.84 580.732 2117.5 582.151 2115.73 583.219C2113.96 584.286 2111.79 584.82 2109.24 584.82C2106.66 584.82 2104.46 584.286 2102.64 583.219C2100.84 582.151 2099.46 580.732 2098.5 578.961C2097.56 577.19 2097.09 575.237 2097.09 573.102ZM2103.66 570.055V573.102C2103.66 574.143 2103.86 575.133 2104.28 576.07C2104.72 577.008 2105.36 577.776 2106.2 578.375C2107.03 578.948 2108.03 579.234 2109.2 579.234C2110.53 579.234 2111.6 578.948 2112.41 578.375C2113.21 577.776 2113.79 577.021 2114.12 576.109C2114.49 575.172 2114.67 574.169 2114.67 573.102V570.055C2114.67 568.987 2114.46 567.984 2114.05 567.047C2113.66 566.109 2113.04 565.354 2112.21 564.781C2111.4 564.208 2110.38 563.922 2109.12 563.922C2107.9 563.922 2106.89 564.208 2106.08 564.781C2105.27 565.354 2104.66 566.109 2104.24 567.047C2103.85 567.984 2103.66 568.987 2103.66 570.055ZM2111.47 535.25L2083.7 579.703L2078.89 576.93L2106.66 532.477L2111.47 535.25Z" fill="#1C1C1C"/>
<path d="M1847.28 877.622L1856.49 841.789H1861.31L1860.77 851.025L1850.93 888H1845.92L1847.28 877.622ZM1840.39 841.789L1847.85 877.336L1848.52 888H1843.19L1832.49 841.789H1840.39ZM1871.75 877.241L1879.12 841.789H1887.05L1876.35 888H1871.02L1871.75 877.241ZM1863.18 841.789L1872.29 877.717L1873.62 888H1868.61L1858.93 851.025L1858.42 841.789H1863.18ZM1899.75 839.25V888H1892.13V839.25H1899.75ZM1898.41 869.56L1895.94 869.528C1895.96 867.159 1896.29 864.969 1896.92 862.958C1897.58 860.948 1898.49 859.203 1899.65 857.722C1900.83 856.219 1902.25 855.066 1903.9 854.262C1905.55 853.437 1907.38 853.024 1909.39 853.024C1911.09 853.024 1912.61 853.257 1913.96 853.723C1915.34 854.188 1916.52 854.939 1917.52 855.976C1918.51 856.992 1919.26 858.325 1919.77 859.975C1920.3 861.604 1920.57 863.593 1920.57 865.942V888H1912.88V865.878C1912.88 864.228 1912.64 862.916 1912.15 861.943C1911.69 860.97 1911 860.271 1910.09 859.848C1909.18 859.404 1908.07 859.182 1906.76 859.182C1905.38 859.182 1904.17 859.457 1903.11 860.007C1902.07 860.557 1901.21 861.308 1900.51 862.26C1899.81 863.212 1899.28 864.313 1898.92 865.561C1898.58 866.809 1898.41 868.142 1898.41 869.56ZM1947.67 881.113V864.736C1947.67 863.509 1947.45 862.451 1947 861.562C1946.56 860.673 1945.88 859.986 1944.97 859.499C1944.08 859.012 1942.96 858.769 1941.61 858.769C1940.36 858.769 1939.28 858.981 1938.37 859.404C1937.46 859.827 1936.75 860.398 1936.24 861.118C1935.74 861.837 1935.48 862.652 1935.48 863.562H1927.87C1927.87 862.207 1928.19 860.896 1928.85 859.626C1929.51 858.356 1930.46 857.224 1931.71 856.23C1932.95 855.236 1934.45 854.453 1936.18 853.881C1937.92 853.31 1939.86 853.024 1942.02 853.024C1944.6 853.024 1946.89 853.458 1948.88 854.326C1950.89 855.193 1952.46 856.505 1953.6 858.261C1954.77 859.996 1955.35 862.176 1955.35 864.799V880.065C1955.35 881.631 1955.46 883.038 1955.67 884.287C1955.9 885.514 1956.23 886.582 1956.65 887.492V888H1948.81C1948.45 887.175 1948.17 886.127 1947.96 884.858C1947.77 883.567 1947.67 882.319 1947.67 881.113ZM1948.78 867.116L1948.84 871.845H1943.35C1941.94 871.845 1940.69 871.983 1939.61 872.258C1938.53 872.512 1937.63 872.893 1936.91 873.4C1936.19 873.908 1935.65 874.522 1935.29 875.241C1934.93 875.961 1934.75 876.775 1934.75 877.685C1934.75 878.595 1934.96 879.431 1935.39 880.192C1935.81 880.933 1936.42 881.515 1937.23 881.938C1938.05 882.361 1939.05 882.573 1940.21 882.573C1941.78 882.573 1943.14 882.255 1944.31 881.621C1945.49 880.965 1946.42 880.171 1947.1 879.24C1947.78 878.288 1948.14 877.389 1948.18 876.542L1950.65 879.938C1950.4 880.806 1949.97 881.737 1949.35 882.731C1948.74 883.726 1947.93 884.678 1946.94 885.588C1945.97 886.477 1944.79 887.207 1943.42 887.778C1942.06 888.349 1940.5 888.635 1938.72 888.635C1936.48 888.635 1934.48 888.19 1932.72 887.302C1930.97 886.392 1929.59 885.175 1928.6 883.652C1927.6 882.107 1927.1 880.362 1927.1 878.415C1927.1 876.595 1927.44 874.987 1928.12 873.591C1928.82 872.173 1929.83 870.988 1931.17 870.036C1932.52 869.084 1934.17 868.365 1936.12 867.878C1938.06 867.37 1940.29 867.116 1942.78 867.116H1948.78ZM1979.09 853.659V859.245H1959.73V853.659H1979.09ZM1965.32 845.249H1972.97V878.51C1972.97 879.568 1973.11 880.383 1973.41 880.954C1973.73 881.504 1974.16 881.875 1974.71 882.065C1975.26 882.255 1975.91 882.351 1976.65 882.351C1977.18 882.351 1977.68 882.319 1978.17 882.255C1978.66 882.192 1979.05 882.128 1979.34 882.065L1979.38 887.905C1978.74 888.095 1978 888.264 1977.15 888.413C1976.33 888.561 1975.38 888.635 1974.3 888.635C1972.54 888.635 1970.99 888.328 1969.63 887.714C1968.28 887.08 1967.22 886.053 1966.46 884.636C1965.7 883.218 1965.32 881.335 1965.32 878.986V845.249ZM2004.26 878.701C2004.26 877.939 2004.07 877.251 2003.69 876.638C2003.31 876.003 2002.58 875.432 2001.5 874.924C2000.44 874.416 1998.87 873.951 1996.8 873.527C1994.98 873.125 1993.31 872.649 1991.79 872.099C1990.28 871.528 1988.99 870.84 1987.91 870.036C1986.83 869.232 1986 868.28 1985.41 867.18C1984.81 866.079 1984.52 864.81 1984.52 863.371C1984.52 861.975 1984.82 860.652 1985.44 859.404C1986.05 858.155 1986.93 857.055 1988.07 856.103C1989.22 855.151 1990.6 854.4 1992.23 853.85C1993.88 853.299 1995.72 853.024 1997.75 853.024C2000.63 853.024 2003.1 853.511 2005.15 854.484C2007.22 855.437 2008.81 856.738 2009.91 858.388C2011.01 860.017 2011.56 861.858 2011.56 863.911H2003.91C2003.91 863.001 2003.68 862.154 2003.21 861.372C2002.77 860.568 2002.09 859.922 2001.18 859.436C2000.27 858.928 1999.13 858.674 1997.75 858.674C1996.44 858.674 1995.35 858.885 1994.48 859.309C1993.64 859.711 1993 860.24 1992.58 860.896C1992.18 861.551 1991.98 862.271 1991.98 863.054C1991.98 863.625 1992.08 864.143 1992.29 864.609C1992.53 865.053 1992.91 865.466 1993.44 865.847C1993.97 866.206 1994.68 866.545 1995.59 866.862C1996.53 867.18 1997.69 867.486 1999.09 867.783C2001.71 868.333 2003.96 869.042 2005.85 869.909C2007.75 870.756 2009.21 871.856 2010.23 873.21C2011.24 874.543 2011.75 876.236 2011.75 878.288C2011.75 879.812 2011.42 881.208 2010.77 882.478C2010.13 883.726 2009.2 884.816 2007.97 885.747C2006.75 886.656 2005.27 887.365 2003.56 887.873C2001.87 888.381 1999.96 888.635 1997.85 888.635C1994.74 888.635 1992.1 888.085 1989.95 886.984C1987.79 885.863 1986.15 884.435 1985.03 882.7C1983.93 880.944 1983.38 879.124 1983.38 877.241H1990.77C1990.86 878.658 1991.25 879.79 1991.94 880.637C1992.66 881.462 1993.55 882.065 1994.61 882.446C1995.69 882.806 1996.8 882.985 1997.94 882.985C1999.32 882.985 2000.47 882.806 2001.4 882.446C2002.33 882.065 2003.04 881.557 2003.53 880.922C2004.02 880.266 2004.26 879.526 2004.26 878.701ZM2037.81 881.113V864.736C2037.81 863.509 2037.58 862.451 2037.14 861.562C2036.7 860.673 2036.02 859.986 2035.11 859.499C2034.22 859.012 2033.1 858.769 2031.74 858.769C2030.5 858.769 2029.42 858.981 2028.51 859.404C2027.6 859.827 2026.89 860.398 2026.38 861.118C2025.87 861.837 2025.62 862.652 2025.62 863.562H2018C2018 862.207 2018.33 860.896 2018.99 859.626C2019.64 858.356 2020.59 857.224 2021.84 856.23C2023.09 855.236 2024.58 854.453 2026.32 853.881C2028.05 853.31 2030 853.024 2032.16 853.024C2034.74 853.024 2037.02 853.458 2039.01 854.326C2041.02 855.193 2042.6 856.505 2043.74 858.261C2044.91 859.996 2045.49 862.176 2045.49 864.799V880.065C2045.49 881.631 2045.59 883.038 2045.8 884.287C2046.04 885.514 2046.37 886.582 2046.79 887.492V888H2038.95C2038.59 887.175 2038.3 886.127 2038.09 884.858C2037.9 883.567 2037.81 882.319 2037.81 881.113ZM2038.92 867.116L2038.98 871.845H2033.49C2032.07 871.845 2030.82 871.983 2029.75 872.258C2028.67 872.512 2027.77 872.893 2027.05 873.4C2026.33 873.908 2025.79 874.522 2025.43 875.241C2025.07 875.961 2024.89 876.775 2024.89 877.685C2024.89 878.595 2025.1 879.431 2025.52 880.192C2025.95 880.933 2026.56 881.515 2027.36 881.938C2028.19 882.361 2029.18 882.573 2030.35 882.573C2031.91 882.573 2033.28 882.255 2034.44 881.621C2035.63 880.965 2036.56 880.171 2037.24 879.24C2037.91 878.288 2038.27 877.389 2038.31 876.542L2040.79 879.938C2040.54 880.806 2040.1 881.737 2039.49 882.731C2038.88 883.726 2038.07 884.678 2037.08 885.588C2036.1 886.477 2034.93 887.207 2033.55 887.778C2032.2 888.349 2030.63 888.635 2028.86 888.635C2026.61 888.635 2024.61 888.19 2022.86 887.302C2021.1 886.392 2019.73 885.175 2018.73 883.652C2017.74 882.107 2017.24 880.362 2017.24 878.415C2017.24 876.595 2017.58 874.987 2018.26 873.591C2018.95 872.173 2019.97 870.988 2021.3 870.036C2022.66 869.084 2024.31 868.365 2026.25 867.878C2028.2 867.37 2030.42 867.116 2032.92 867.116H2038.92ZM2061.17 860.261V901.203H2053.52V853.659H2060.56L2061.17 860.261ZM2083.54 870.512V871.179C2083.54 873.675 2083.25 875.992 2082.65 878.129C2082.08 880.245 2081.22 882.097 2080.08 883.684C2078.96 885.249 2077.57 886.466 2075.92 887.333C2074.27 888.201 2072.37 888.635 2070.21 888.635C2068.07 888.635 2066.2 888.243 2064.59 887.46C2063.01 886.656 2061.66 885.524 2060.56 884.064C2059.46 882.604 2058.57 880.891 2057.9 878.923C2057.24 876.934 2056.78 874.755 2056.5 872.385V869.814C2056.78 867.296 2057.24 865.011 2057.9 862.958C2058.57 860.906 2059.46 859.139 2060.56 857.658C2061.66 856.177 2063.01 855.035 2064.59 854.23C2066.18 853.426 2068.03 853.024 2070.15 853.024C2072.31 853.024 2074.22 853.448 2075.89 854.294C2077.56 855.119 2078.97 856.304 2080.11 857.849C2081.26 859.372 2082.11 861.213 2082.68 863.371C2083.26 865.508 2083.54 867.889 2083.54 870.512ZM2075.89 871.179V870.512C2075.89 868.925 2075.74 867.455 2075.45 866.101C2075.15 864.725 2074.69 863.519 2074.05 862.482C2073.42 861.446 2072.6 860.642 2071.61 860.07C2070.63 859.478 2069.46 859.182 2068.08 859.182C2066.73 859.182 2065.57 859.414 2064.59 859.88C2063.62 860.324 2062.81 860.948 2062.15 861.752C2061.49 862.556 2060.99 863.498 2060.63 864.577C2060.27 865.635 2060.01 866.788 2059.86 868.037V874.194C2060.12 875.717 2060.55 877.114 2061.17 878.383C2061.78 879.653 2062.65 880.668 2063.77 881.43C2064.91 882.171 2066.37 882.541 2068.15 882.541C2069.52 882.541 2070.7 882.245 2071.67 881.652C2072.64 881.06 2073.44 880.245 2074.05 879.208C2074.69 878.151 2075.15 876.934 2075.45 875.559C2075.74 874.183 2075.89 872.723 2075.89 871.179ZM2097.73 860.261V901.203H2090.08V853.659H2097.13L2097.73 860.261ZM2120.1 870.512V871.179C2120.1 873.675 2119.81 875.992 2119.22 878.129C2118.64 880.245 2117.79 882.097 2116.64 883.684C2115.52 885.249 2114.14 886.466 2112.49 887.333C2110.84 888.201 2108.93 888.635 2106.77 888.635C2104.64 888.635 2102.76 888.243 2101.16 887.46C2099.57 886.656 2098.23 885.524 2097.13 884.064C2096.03 882.604 2095.14 880.891 2094.46 878.923C2093.8 876.934 2093.34 874.755 2093.06 872.385V869.814C2093.34 867.296 2093.8 865.011 2094.46 862.958C2095.14 860.906 2096.03 859.139 2097.13 857.658C2098.23 856.177 2099.57 855.035 2101.16 854.23C2102.74 853.426 2104.59 853.024 2106.71 853.024C2108.87 853.024 2110.78 853.448 2112.46 854.294C2114.13 855.119 2115.53 856.304 2116.68 857.849C2117.82 859.372 2118.68 861.213 2119.25 863.371C2119.82 865.508 2120.1 867.889 2120.1 870.512ZM2112.46 871.179V870.512C2112.46 868.925 2112.31 867.455 2112.01 866.101C2111.71 864.725 2111.25 863.519 2110.61 862.482C2109.98 861.446 2109.16 860.642 2108.17 860.07C2107.2 859.478 2106.02 859.182 2104.65 859.182C2103.29 859.182 2102.13 859.414 2101.16 859.88C2100.18 860.324 2099.37 860.948 2098.71 861.752C2098.06 862.556 2097.55 863.498 2097.19 864.577C2096.83 865.635 2096.58 866.788 2096.43 868.037V874.194C2096.68 875.717 2097.11 877.114 2097.73 878.383C2098.34 879.653 2099.21 880.668 2100.33 881.43C2101.47 882.171 2102.93 882.541 2104.71 882.541C2106.09 882.541 2107.26 882.245 2108.23 881.652C2109.21 881.06 2110 880.245 2110.61 879.208C2111.25 878.151 2111.71 876.934 2112.01 875.559C2112.31 874.183 2112.46 872.723 2112.46 871.179Z" fill="#1C1C1C"/>
<path d="M1791.01 257.098C1791.01 256.146 1790.86 255.3 1790.56 254.559C1790.29 253.819 1789.79 253.141 1789.07 252.528C1788.35 251.914 1787.34 251.322 1786.03 250.75C1784.74 250.158 1783.08 249.555 1781.07 248.941C1778.87 248.264 1776.84 247.513 1774.98 246.688C1773.14 245.842 1771.53 244.868 1770.16 243.768C1768.78 242.647 1767.71 241.367 1766.95 239.928C1766.19 238.468 1765.81 236.786 1765.81 234.881C1765.81 232.998 1766.2 231.284 1766.98 229.74C1767.79 228.195 1768.92 226.862 1770.38 225.741C1771.86 224.598 1773.61 223.72 1775.62 223.106C1777.63 222.472 1779.85 222.154 1782.28 222.154C1785.71 222.154 1788.66 222.789 1791.14 224.059C1793.63 225.328 1795.55 227.031 1796.88 229.168C1798.23 231.306 1798.91 233.665 1798.91 236.246H1791.01C1791.01 234.723 1790.68 233.379 1790.02 232.215C1789.39 231.03 1788.42 230.099 1787.1 229.422C1785.81 228.745 1784.17 228.407 1782.19 228.407C1780.3 228.407 1778.74 228.692 1777.49 229.264C1776.24 229.835 1775.31 230.607 1774.7 231.581C1774.08 232.554 1773.77 233.654 1773.77 234.881C1773.77 235.749 1773.98 236.542 1774.38 237.262C1774.78 237.96 1775.39 238.616 1776.22 239.229C1777.04 239.822 1778.08 240.383 1779.33 240.912C1780.58 241.441 1782.05 241.948 1783.74 242.435C1786.3 243.197 1788.53 244.043 1790.44 244.974C1792.34 245.884 1793.93 246.921 1795.2 248.084C1796.47 249.248 1797.42 250.571 1798.05 252.052C1798.69 253.512 1799.01 255.173 1799.01 257.035C1799.01 258.981 1798.62 260.737 1797.83 262.303C1797.05 263.848 1795.93 265.17 1794.47 266.271C1793.03 267.35 1791.29 268.185 1789.26 268.778C1787.25 269.349 1785.01 269.635 1782.53 269.635C1780.31 269.635 1778.12 269.339 1775.96 268.746C1773.83 268.154 1771.88 267.254 1770.12 266.048C1768.37 264.821 1766.97 263.298 1765.94 261.478C1764.9 259.637 1764.38 257.49 1764.38 255.035H1772.35C1772.35 256.537 1772.6 257.818 1773.11 258.875C1773.64 259.933 1774.37 260.801 1775.3 261.478C1776.23 262.134 1777.31 262.621 1778.54 262.938C1779.78 263.255 1781.12 263.414 1782.53 263.414C1784.4 263.414 1785.95 263.15 1787.2 262.621C1788.47 262.092 1789.42 261.351 1790.06 260.399C1790.69 259.447 1791.01 258.347 1791.01 257.098ZM1813.48 234.659V269H1805.8V234.659H1813.48ZM1805.29 225.646C1805.29 224.482 1805.67 223.519 1806.43 222.757C1807.22 221.974 1808.3 221.583 1809.67 221.583C1811.03 221.583 1812.09 221.974 1812.88 222.757C1813.66 223.519 1814.05 224.482 1814.05 225.646C1814.05 226.788 1813.66 227.74 1812.88 228.502C1812.09 229.264 1811.03 229.645 1809.67 229.645C1808.3 229.645 1807.22 229.264 1806.43 228.502C1805.67 227.74 1805.29 226.788 1805.29 225.646ZM1829.51 241.642V269H1821.86V234.659H1829.06L1829.51 241.642ZM1828.27 250.56L1825.67 250.528C1825.67 248.159 1825.96 245.969 1826.56 243.958C1827.15 241.948 1828.02 240.203 1829.16 238.722C1830.3 237.219 1831.72 236.066 1833.41 235.262C1835.12 234.437 1837.1 234.024 1839.35 234.024C1840.91 234.024 1842.34 234.257 1843.63 234.723C1844.94 235.167 1846.07 235.876 1847.03 236.849C1848 237.822 1848.74 239.071 1849.25 240.594C1849.78 242.118 1850.04 243.958 1850.04 246.117V269H1842.39V246.783C1842.39 245.112 1842.14 243.8 1841.63 242.848C1841.14 241.896 1840.44 241.218 1839.5 240.816C1838.6 240.393 1837.51 240.182 1836.24 240.182C1834.8 240.182 1833.57 240.457 1832.55 241.007C1831.56 241.557 1830.75 242.308 1830.11 243.26C1829.48 244.212 1829.01 245.313 1828.71 246.561C1828.42 247.809 1828.27 249.142 1828.27 250.56ZM1849.57 248.529L1845.98 249.322C1845.98 247.249 1846.27 245.292 1846.84 243.451C1847.43 241.589 1848.29 239.959 1849.41 238.563C1850.55 237.145 1851.96 236.035 1853.63 235.23C1855.3 234.426 1857.21 234.024 1859.37 234.024C1861.13 234.024 1862.69 234.268 1864.07 234.754C1865.47 235.22 1866.65 235.96 1867.62 236.976C1868.6 237.992 1869.34 239.314 1869.85 240.943C1870.35 242.551 1870.61 244.498 1870.61 246.783V269H1862.93V246.751C1862.93 245.016 1862.67 243.673 1862.17 242.721C1861.68 241.769 1860.98 241.113 1860.07 240.753C1859.16 240.372 1858.07 240.182 1856.8 240.182C1855.62 240.182 1854.57 240.404 1853.66 240.848C1852.77 241.271 1852.02 241.874 1851.41 242.657C1850.79 243.419 1850.33 244.297 1850.01 245.292C1849.71 246.286 1849.57 247.365 1849.57 248.529ZM1899.14 260.907V234.659H1906.82V269H1899.59L1899.14 260.907ZM1900.22 253.766L1902.79 253.702C1902.79 256.008 1902.54 258.135 1902.03 260.082C1901.52 262.007 1900.74 263.689 1899.68 265.128C1898.62 266.546 1897.27 267.656 1895.62 268.46C1893.97 269.243 1891.99 269.635 1889.68 269.635C1888.01 269.635 1886.48 269.391 1885.08 268.905C1883.68 268.418 1882.48 267.667 1881.46 266.651C1880.47 265.636 1879.7 264.313 1879.15 262.684C1878.6 261.055 1878.32 259.108 1878.32 256.844V234.659H1885.97V256.908C1885.97 258.156 1886.12 259.203 1886.41 260.05C1886.71 260.875 1887.11 261.542 1887.62 262.049C1888.13 262.557 1888.72 262.917 1889.4 263.128C1890.07 263.34 1890.79 263.446 1891.56 263.446C1893.74 263.446 1895.45 263.023 1896.7 262.176C1897.97 261.309 1898.87 260.145 1899.4 258.685C1899.95 257.225 1900.22 255.585 1900.22 253.766ZM1922.85 220.25V269H1915.17V220.25H1922.85ZM1950.59 262.113V245.736C1950.59 244.509 1950.37 243.451 1949.92 242.562C1949.48 241.673 1948.8 240.986 1947.89 240.499C1947 240.012 1945.88 239.769 1944.53 239.769C1943.28 239.769 1942.2 239.981 1941.29 240.404C1940.38 240.827 1939.67 241.398 1939.16 242.118C1938.66 242.837 1938.4 243.652 1938.4 244.562H1930.78C1930.78 243.207 1931.11 241.896 1931.77 240.626C1932.42 239.356 1933.38 238.224 1934.62 237.23C1935.87 236.236 1937.36 235.453 1939.1 234.881C1940.83 234.31 1942.78 234.024 1944.94 234.024C1947.52 234.024 1949.81 234.458 1951.79 235.326C1953.81 236.193 1955.38 237.505 1956.52 239.261C1957.69 240.996 1958.27 243.176 1958.27 245.799V261.065C1958.27 262.631 1958.38 264.038 1958.59 265.287C1958.82 266.514 1959.15 267.582 1959.57 268.492V269H1951.73C1951.37 268.175 1951.09 267.127 1950.87 265.858C1950.68 264.567 1950.59 263.319 1950.59 262.113ZM1951.7 248.116L1951.76 252.845H1946.27C1944.85 252.845 1943.61 252.983 1942.53 253.258C1941.45 253.512 1940.55 253.893 1939.83 254.4C1939.11 254.908 1938.57 255.522 1938.21 256.241C1937.85 256.961 1937.67 257.775 1937.67 258.685C1937.67 259.595 1937.88 260.431 1938.31 261.192C1938.73 261.933 1939.34 262.515 1940.15 262.938C1940.97 263.361 1941.97 263.573 1943.13 263.573C1944.7 263.573 1946.06 263.255 1947.22 262.621C1948.41 261.965 1949.34 261.171 1950.02 260.24C1950.69 259.288 1951.05 258.389 1951.1 257.542L1953.57 260.938C1953.32 261.806 1952.88 262.737 1952.27 263.731C1951.66 264.726 1950.85 265.678 1949.86 266.588C1948.89 267.477 1947.71 268.207 1946.34 268.778C1944.98 269.349 1943.42 269.635 1941.64 269.635C1939.4 269.635 1937.4 269.19 1935.64 268.302C1933.88 267.392 1932.51 266.175 1931.51 264.652C1930.52 263.107 1930.02 261.362 1930.02 259.415C1930.02 257.595 1930.36 255.987 1931.04 254.591C1931.74 253.173 1932.75 251.988 1934.08 251.036C1935.44 250.084 1937.09 249.365 1939.04 248.878C1940.98 248.37 1943.2 248.116 1945.7 248.116H1951.7ZM1987.21 261.891V220.25H1994.9V269H1987.94L1987.21 261.891ZM1964.87 252.21V251.544C1964.87 248.941 1965.18 246.572 1965.79 244.435C1966.41 242.276 1967.29 240.425 1968.46 238.88C1969.62 237.315 1971.04 236.119 1972.71 235.294C1974.38 234.448 1976.27 234.024 1978.36 234.024C1980.43 234.024 1982.25 234.426 1983.82 235.23C1985.38 236.035 1986.72 237.188 1987.82 238.69C1988.92 240.171 1989.8 241.948 1990.45 244.022C1991.11 246.074 1991.57 248.36 1991.85 250.877V253.004C1991.57 255.458 1991.11 257.701 1990.45 259.732C1989.8 261.764 1988.92 263.52 1987.82 265.001C1986.72 266.482 1985.37 267.625 1983.79 268.429C1982.22 269.233 1980.39 269.635 1978.3 269.635C1976.22 269.635 1974.35 269.201 1972.68 268.333C1971.03 267.466 1969.62 266.249 1968.46 264.684C1967.29 263.118 1966.41 261.277 1965.79 259.161C1965.18 257.024 1964.87 254.707 1964.87 252.21ZM1972.52 251.544V252.21C1972.52 253.776 1972.66 255.236 1972.93 256.59C1973.23 257.944 1973.68 259.14 1974.3 260.177C1974.91 261.192 1975.7 261.996 1976.68 262.589C1977.67 263.16 1978.86 263.446 1980.23 263.446C1981.97 263.446 1983.4 263.065 1984.52 262.303C1985.64 261.542 1986.52 260.515 1987.15 259.225C1987.81 257.913 1988.25 256.453 1988.48 254.845V249.1C1988.36 247.852 1988.09 246.688 1987.69 245.609C1987.31 244.53 1986.79 243.588 1986.14 242.784C1985.48 241.959 1984.67 241.324 1983.69 240.88C1982.74 240.414 1981.61 240.182 1980.3 240.182C1978.9 240.182 1977.71 240.478 1976.74 241.07C1975.77 241.663 1974.96 242.477 1974.33 243.514C1973.72 244.551 1973.26 245.757 1972.96 247.132C1972.67 248.508 1972.52 249.978 1972.52 251.544ZM2001.43 252.21V251.48C2001.43 249.005 2001.79 246.709 2002.51 244.593C2003.23 242.456 2004.27 240.605 2005.62 239.039C2007 237.452 2008.67 236.225 2010.64 235.357C2012.63 234.469 2014.87 234.024 2017.37 234.024C2019.88 234.024 2022.13 234.469 2024.09 235.357C2026.08 236.225 2027.77 237.452 2029.14 239.039C2030.52 240.605 2031.56 242.456 2032.28 244.593C2033 246.709 2033.36 249.005 2033.36 251.48V252.21C2033.36 254.686 2033 256.982 2032.28 259.098C2031.56 261.214 2030.52 263.065 2029.14 264.652C2027.77 266.218 2026.09 267.445 2024.13 268.333C2022.16 269.201 2019.93 269.635 2017.43 269.635C2014.91 269.635 2012.66 269.201 2010.67 268.333C2008.7 267.445 2007.03 266.218 2005.65 264.652C2004.28 263.065 2003.23 261.214 2002.51 259.098C2001.79 256.982 2001.43 254.686 2001.43 252.21ZM2009.08 251.48V252.21C2009.08 253.755 2009.24 255.215 2009.56 256.59C2009.88 257.966 2010.37 259.172 2011.05 260.208C2011.73 261.245 2012.59 262.06 2013.65 262.652C2014.71 263.245 2015.97 263.541 2017.43 263.541C2018.85 263.541 2020.07 263.245 2021.11 262.652C2022.17 262.06 2023.04 261.245 2023.71 260.208C2024.39 259.172 2024.89 257.966 2025.21 256.59C2025.54 255.215 2025.71 253.755 2025.71 252.21V251.48C2025.71 249.957 2025.54 248.518 2025.21 247.164C2024.89 245.789 2024.38 244.572 2023.68 243.514C2023.01 242.456 2022.14 241.631 2021.08 241.039C2020.04 240.425 2018.81 240.118 2017.37 240.118C2015.93 240.118 2014.68 240.425 2013.62 241.039C2012.58 241.631 2011.73 242.456 2011.05 243.514C2010.37 244.572 2009.88 245.789 2009.56 247.164C2009.24 248.518 2009.08 249.957 2009.08 251.48ZM2059.86 222.789L2041.87 272.967H2035.87L2053.9 222.789H2059.86ZM2089.7 263.656V269H2070.06V263.656H2089.7ZM2071.94 229.898V269H2065.2V229.898H2071.94ZM2101.19 239.942V269H2094.69V239.942H2101.19ZM2094.26 232.315C2094.26 231.331 2094.58 230.516 2095.23 229.872C2095.89 229.209 2096.8 228.878 2097.97 228.878C2099.11 228.878 2100.02 229.209 2100.68 229.872C2101.34 230.516 2101.67 231.331 2101.67 232.315C2101.67 233.282 2101.34 234.088 2100.68 234.732C2100.02 235.377 2099.11 235.699 2097.97 235.699C2096.8 235.699 2095.89 235.377 2095.23 234.732C2094.58 234.088 2094.26 233.282 2094.26 232.315ZM2114.7 246.146V269H2108.23V239.942H2114.32L2114.7 246.146ZM2113.54 253.397L2111.45 253.37C2111.47 251.311 2111.75 249.422 2112.31 247.704C2112.88 245.985 2113.67 244.508 2114.67 243.272C2115.69 242.037 2116.91 241.088 2118.32 240.426C2119.74 239.745 2121.31 239.405 2123.05 239.405C2124.45 239.405 2125.71 239.602 2126.84 239.996C2127.98 240.372 2128.96 240.99 2129.76 241.849C2130.59 242.708 2131.21 243.827 2131.64 245.206C2132.07 246.567 2132.29 248.241 2132.29 250.228V269H2125.79V250.201C2125.79 248.805 2125.58 247.704 2125.17 246.898C2124.78 246.074 2124.2 245.493 2123.43 245.152C2122.67 244.794 2121.73 244.615 2120.61 244.615C2119.5 244.615 2118.5 244.848 2117.62 245.313C2116.75 245.779 2116 246.415 2115.4 247.22C2114.81 248.026 2114.35 248.957 2114.03 250.013C2113.7 251.069 2113.54 252.197 2113.54 253.397ZM2145.42 227.75V269H2138.92V227.75H2145.42ZM2163.47 239.942L2150.82 253.961L2143.89 261.051L2142.2 255.572L2147.43 249.1L2155.65 239.942H2163.47ZM2157.05 269L2147.62 255.357L2151.7 250.819L2164.54 269H2157.05Z" fill="#1C1C1C"/>
</g>
<defs>
<filter id="filter0_d_490_2" x="0" y="0" width="2408" height="1104" filterUnits="userSpaceOnUse" color-interpolation-filters="sRGB">
<feFlood flood-opacity="0" result="BackgroundImageFix"/>
<feColorMatrix in="SourceAlpha" type="matrix" values="0 0 0 0 0 0 0 0 0 0 0 0 0 0 0 0 0 0 127 0" result="hardAlpha"/>
<feOffset dy="4"/>
<feGaussianBlur stdDeviation="2"/>
<feComposite in2="hardAlpha" operator="out"/>
<feColorMatrix type="matrix" values="0 0 0 0 0 0 0 0 0 0 0 0 0 0 0 0 0 0 0.25 0"/>
<feBlend mode="normal" in2="BackgroundImageFix" result="effect1_dropShadow_490_2"/>
<feBlend mode="normal" in="SourceGraphic" in2="effect1_dropShadow_490_2" result="shape"/>
</filter>
<linearGradient id="paint0_linear_490_2" x1="392.5" y1="346" x2="392.5" y2="761" gradientUnits="userSpaceOnUse">
<stop stop-color="#C90C00"/>
<stop offset="1" stop-color="#EC5703"/>
</linearGradient>
<linearGradient id="paint1_linear_490_2" x1="1185.5" y1="346" x2="1185.5" y2="761" gradientUnits="userSpaceOnUse">
<stop stop-color="#4A970E"/>
<stop offset="1" stop-color="#009B06"/>
</linearGradient>
<linearGradient id="paint2_linear_490_2" x1="1979.5" y1="346" x2="1979.5" y2="761" gradientUnits="userSpaceOnUse">
<stop stop-color="#398100"/>
<stop offset="1" stop-color="#A1DF02"/>
<stop offset="1" stop-color="#6F9A00"/>
</linearGradient>
</defs>
</svg>
