<svg width="360" height="641" viewBox="0 0 360 641" fill="none" xmlns="http://www.w3.org/2000/svg">
<g clip-path="url(#clip0_360_1016)">
<rect width="360" height="641" fill="#F5F5F5"/>
<rect width="361" height="24" fill="#484848"/>
<path fill-rule="evenodd" clip-rule="evenodd" d="M316.878 7H306.85V17H316.878V7ZM324.9 12C324.9 9.23858 327.153 7 329.914 7C332.675 7 334.928 9.23858 334.928 12C334.928 14.7614 332.675 17 329.914 17C327.153 17 324.9 14.7614 324.9 12ZM346.961 17L352.978 7H340.945L346.961 17Z" fill="white" fill-opacity="0.38"/>
<rect x="16" y="104" width="328" height="48" rx="24" fill="white"/>
<path d="M40.2188 131.773V133H34.5312V131.773H40.2188ZM34.8281 121.625V133H33.3203V121.625H34.8281ZM43.3769 124.547V133H41.9237V124.547H43.3769ZM41.8144 122.305C41.8144 122.07 41.8847 121.872 42.0253 121.711C42.1711 121.549 42.3847 121.469 42.6659 121.469C42.942 121.469 43.1529 121.549 43.2987 121.711C43.4498 121.872 43.5253 122.07 43.5253 122.305C43.5253 122.529 43.4498 122.721 43.2987 122.883C43.1529 123.039 42.942 123.117 42.6659 123.117C42.3847 123.117 42.1711 123.039 42.0253 122.883C41.8847 122.721 41.8144 122.529 41.8144 122.305ZM48.3475 131.695L50.66 124.547H52.1366L49.0975 133H48.1287L48.3475 131.695ZM46.4178 124.547L48.8006 131.734L48.9647 133H47.9959L44.9334 124.547H46.4178ZM55.0525 125.875V133H53.6072V124.547H55.0134L55.0525 125.875ZM57.6931 124.5L57.6853 125.844C57.5655 125.818 57.4509 125.802 57.3416 125.797C57.2374 125.786 57.1176 125.781 56.9822 125.781C56.6489 125.781 56.3546 125.833 56.0994 125.938C55.8442 126.042 55.628 126.188 55.4509 126.375C55.2739 126.562 55.1332 126.786 55.0291 127.047C54.9301 127.302 54.865 127.583 54.8337 127.891L54.4275 128.125C54.4275 127.615 54.477 127.135 54.5759 126.688C54.6801 126.24 54.839 125.844 55.0525 125.5C55.266 125.151 55.5369 124.88 55.865 124.688C56.1983 124.49 56.5942 124.391 57.0525 124.391C57.1567 124.391 57.2765 124.404 57.4119 124.43C57.5473 124.451 57.641 124.474 57.6931 124.5ZM58.57 128.867V128.688C58.57 128.078 58.6585 127.513 58.8356 126.992C59.0127 126.466 59.2679 126.01 59.6012 125.625C59.9346 125.234 60.3382 124.932 60.8122 124.719C61.2861 124.5 61.8174 124.391 62.4059 124.391C62.9997 124.391 63.5335 124.5 64.0075 124.719C64.4867 124.932 64.8929 125.234 65.2262 125.625C65.5648 126.01 65.8226 126.466 65.9997 126.992C66.1768 127.513 66.2653 128.078 66.2653 128.688V128.867C66.2653 129.477 66.1768 130.042 65.9997 130.562C65.8226 131.083 65.5648 131.539 65.2262 131.93C64.8929 132.315 64.4893 132.617 64.0153 132.836C63.5466 133.049 63.0153 133.156 62.4216 133.156C61.8278 133.156 61.294 133.049 60.82 132.836C60.346 132.617 59.9398 132.315 59.6012 131.93C59.2679 131.539 59.0127 131.083 58.8356 130.562C58.6585 130.042 58.57 129.477 58.57 128.867ZM60.0153 128.688V128.867C60.0153 129.289 60.0648 129.688 60.1637 130.062C60.2627 130.432 60.4111 130.76 60.6091 131.047C60.8122 131.333 61.0648 131.56 61.3669 131.727C61.669 131.888 62.0205 131.969 62.4216 131.969C62.8174 131.969 63.1637 131.888 63.4606 131.727C63.7627 131.56 64.0127 131.333 64.2106 131.047C64.4085 130.76 64.557 130.432 64.6559 130.062C64.7601 129.688 64.8122 129.289 64.8122 128.867V128.688C64.8122 128.271 64.7601 127.878 64.6559 127.508C64.557 127.133 64.4059 126.802 64.2028 126.516C64.0049 126.224 63.7549 125.995 63.4528 125.828C63.1559 125.661 62.807 125.578 62.4059 125.578C62.0101 125.578 61.6611 125.661 61.3591 125.828C61.0622 125.995 60.8122 126.224 60.6091 126.516C60.4111 126.802 60.2627 127.133 60.1637 127.508C60.0648 127.878 60.0153 128.271 60.0153 128.688ZM74.7769 131.695L77.0894 124.547H78.5659L75.5269 133H74.5581L74.7769 131.695ZM72.8472 124.547L75.23 131.734L75.3941 133H74.4253L71.3628 124.547H72.8472ZM79.5288 128.867V128.688C79.5288 128.078 79.6173 127.513 79.7944 126.992C79.9715 126.466 80.2267 126.01 80.56 125.625C80.8933 125.234 81.297 124.932 81.7709 124.719C82.2449 124.5 82.7761 124.391 83.3647 124.391C83.9584 124.391 84.4923 124.5 84.9663 124.719C85.4454 124.932 85.8517 125.234 86.185 125.625C86.5235 126.01 86.7814 126.466 86.9584 126.992C87.1355 127.513 87.2241 128.078 87.2241 128.688V128.867C87.2241 129.477 87.1355 130.042 86.9584 130.562C86.7814 131.083 86.5235 131.539 86.185 131.93C85.8517 132.315 85.448 132.617 84.9741 132.836C84.5053 133.049 83.9741 133.156 83.3803 133.156C82.7866 133.156 82.2527 133.049 81.7788 132.836C81.3048 132.617 80.8985 132.315 80.56 131.93C80.2267 131.539 79.9715 131.083 79.7944 130.562C79.6173 130.042 79.5288 129.477 79.5288 128.867ZM80.9741 128.688V128.867C80.9741 129.289 81.0235 129.688 81.1225 130.062C81.2215 130.432 81.3699 130.76 81.5678 131.047C81.7709 131.333 82.0235 131.56 82.3256 131.727C82.6277 131.888 82.9793 131.969 83.3803 131.969C83.7761 131.969 84.1225 131.888 84.4194 131.727C84.7215 131.56 84.9715 131.333 85.1694 131.047C85.3673 130.76 85.5157 130.432 85.6147 130.062C85.7189 129.688 85.7709 129.289 85.7709 128.867V128.688C85.7709 128.271 85.7189 127.878 85.6147 127.508C85.5157 127.133 85.3647 126.802 85.1616 126.516C84.9636 126.224 84.7136 125.995 84.4116 125.828C84.1147 125.661 83.7657 125.578 83.3647 125.578C82.9689 125.578 82.6199 125.661 82.3178 125.828C82.0209 125.995 81.7709 126.224 81.5678 126.516C81.3699 126.802 81.2215 127.133 81.1225 127.508C81.0235 127.878 80.9741 128.271 80.9741 128.688ZM90.6869 121V133H89.2337V121H90.6869ZM98.2591 131.047V124.547H99.7122V133H98.3294L98.2591 131.047ZM98.5325 129.266L99.1341 129.25C99.1341 129.812 99.0742 130.333 98.9544 130.812C98.8398 131.286 98.6523 131.698 98.3919 132.047C98.1315 132.396 97.7903 132.669 97.3684 132.867C96.9466 133.06 96.4335 133.156 95.8294 133.156C95.4179 133.156 95.0403 133.096 94.6966 132.977C94.358 132.857 94.0664 132.672 93.8216 132.422C93.5768 132.172 93.3867 131.846 93.2513 131.445C93.121 131.044 93.0559 130.562 93.0559 130V124.547H94.5013V130.016C94.5013 130.396 94.5429 130.711 94.6263 130.961C94.7148 131.206 94.832 131.401 94.9778 131.547C95.1289 131.688 95.2955 131.786 95.4778 131.844C95.6653 131.901 95.858 131.93 96.0559 131.93C96.6705 131.93 97.1575 131.812 97.5169 131.578C97.8763 131.339 98.1341 131.018 98.2903 130.617C98.4518 130.211 98.5325 129.76 98.5325 129.266ZM103.433 126.227V133H101.98V124.547H103.355L103.433 126.227ZM103.136 128.453L102.464 128.43C102.469 127.852 102.545 127.318 102.691 126.828C102.836 126.333 103.053 125.904 103.339 125.539C103.626 125.174 103.982 124.893 104.409 124.695C104.836 124.492 105.331 124.391 105.894 124.391C106.29 124.391 106.654 124.448 106.988 124.562C107.321 124.672 107.61 124.846 107.855 125.086C108.099 125.326 108.29 125.633 108.425 126.008C108.56 126.383 108.628 126.836 108.628 127.367V133H107.183V127.438C107.183 126.995 107.107 126.641 106.956 126.375C106.81 126.109 106.602 125.917 106.331 125.797C106.06 125.672 105.743 125.609 105.378 125.609C104.951 125.609 104.594 125.685 104.308 125.836C104.021 125.987 103.792 126.195 103.62 126.461C103.448 126.727 103.323 127.031 103.245 127.375C103.172 127.714 103.136 128.073 103.136 128.453ZM108.613 127.656L107.644 127.953C107.649 127.49 107.724 127.044 107.87 126.617C108.021 126.19 108.238 125.81 108.519 125.477C108.805 125.143 109.157 124.88 109.573 124.688C109.99 124.49 110.467 124.391 111.003 124.391C111.456 124.391 111.857 124.451 112.206 124.57C112.56 124.69 112.857 124.875 113.097 125.125C113.342 125.37 113.527 125.685 113.652 126.07C113.777 126.456 113.839 126.914 113.839 127.445V133H112.386V127.43C112.386 126.956 112.31 126.589 112.159 126.328C112.014 126.062 111.805 125.878 111.534 125.773C111.269 125.664 110.951 125.609 110.581 125.609C110.264 125.609 109.982 125.664 109.738 125.773C109.493 125.883 109.287 126.034 109.12 126.227C108.954 126.414 108.826 126.63 108.738 126.875C108.654 127.12 108.613 127.38 108.613 127.656ZM119.614 133.156C119.026 133.156 118.492 133.057 118.013 132.859C117.539 132.656 117.13 132.372 116.786 132.008C116.448 131.643 116.187 131.211 116.005 130.711C115.823 130.211 115.732 129.664 115.732 129.07V128.742C115.732 128.055 115.833 127.443 116.036 126.906C116.239 126.365 116.515 125.906 116.864 125.531C117.213 125.156 117.609 124.872 118.052 124.68C118.495 124.487 118.953 124.391 119.427 124.391C120.031 124.391 120.552 124.495 120.989 124.703C121.432 124.911 121.794 125.203 122.075 125.578C122.357 125.948 122.565 126.385 122.7 126.891C122.836 127.391 122.903 127.938 122.903 128.531V129.18H116.591V128H121.458V127.891C121.437 127.516 121.359 127.151 121.224 126.797C121.094 126.443 120.885 126.151 120.599 125.922C120.312 125.693 119.922 125.578 119.427 125.578C119.099 125.578 118.797 125.648 118.521 125.789C118.245 125.924 118.008 126.128 117.81 126.398C117.612 126.669 117.458 127 117.349 127.391C117.239 127.781 117.185 128.232 117.185 128.742V129.07C117.185 129.471 117.239 129.849 117.349 130.203C117.463 130.552 117.627 130.859 117.841 131.125C118.06 131.391 118.323 131.599 118.63 131.75C118.942 131.901 119.297 131.977 119.692 131.977C120.203 131.977 120.635 131.872 120.989 131.664C121.344 131.456 121.653 131.177 121.919 130.828L122.794 131.523C122.612 131.799 122.38 132.062 122.099 132.312C121.817 132.562 121.471 132.766 121.06 132.922C120.653 133.078 120.172 133.156 119.614 133.156ZM136.251 129.172V130.359H128.032V129.508L133.126 121.625H134.306L133.04 123.906L129.673 129.172H136.251ZM134.665 121.625V133H133.22V121.625H134.665Z" fill="#0B1F4D"/>
<path d="M322.031 132.617L326.314 136.899L324.899 138.314L320.617 134.031C319.024 135.308 317.042 136.003 315 136C310.032 136 306 131.968 306 127C306 122.032 310.032 118 315 118C319.968 118 324 122.032 324 127C324.003 129.042 323.308 131.024 322.031 132.617ZM320.025 131.875C321.294 130.57 322.003 128.82 322 127C322 123.132 318.867 120 315 120C311.132 120 308 123.132 308 127C308 130.867 311.132 134 315 134C316.82 134.003 318.57 133.294 319.875 132.025L320.025 131.875Z" fill="#858FA6"/>
<path d="M23.2188 189.773V191H17.5312V189.773H23.2188ZM17.8281 179.625V191H16.3203V179.625H17.8281ZM26.3769 182.547V191H24.9237V182.547H26.3769ZM24.8144 180.305C24.8144 180.07 24.8847 179.872 25.0253 179.711C25.1711 179.549 25.3847 179.469 25.6659 179.469C25.942 179.469 26.1529 179.549 26.2987 179.711C26.4498 179.872 26.5253 180.07 26.5253 180.305C26.5253 180.529 26.4498 180.721 26.2987 180.883C26.1529 181.039 25.942 181.117 25.6659 181.117C25.3847 181.117 25.1711 181.039 25.0253 180.883C24.8847 180.721 24.8144 180.529 24.8144 180.305ZM31.3475 189.695L33.66 182.547H35.1366L32.0975 191H31.1287L31.3475 189.695ZM29.4178 182.547L31.8006 189.734L31.9647 191H30.9959L27.9334 182.547H29.4178ZM38.0525 183.875V191H36.6072V182.547H38.0134L38.0525 183.875ZM40.6931 182.5L40.6853 183.844C40.5655 183.818 40.4509 183.802 40.3416 183.797C40.2374 183.786 40.1176 183.781 39.9822 183.781C39.6489 183.781 39.3546 183.833 39.0994 183.938C38.8442 184.042 38.628 184.188 38.4509 184.375C38.2739 184.562 38.1332 184.786 38.0291 185.047C37.9301 185.302 37.865 185.583 37.8337 185.891L37.4275 186.125C37.4275 185.615 37.477 185.135 37.5759 184.688C37.6801 184.24 37.839 183.844 38.0525 183.5C38.266 183.151 38.5369 182.88 38.865 182.688C39.1983 182.49 39.5942 182.391 40.0525 182.391C40.1567 182.391 40.2765 182.404 40.4119 182.43C40.5473 182.451 40.641 182.474 40.6931 182.5ZM41.57 186.867V186.688C41.57 186.078 41.6585 185.513 41.8356 184.992C42.0127 184.466 42.2679 184.01 42.6012 183.625C42.9346 183.234 43.3382 182.932 43.8122 182.719C44.2861 182.5 44.8174 182.391 45.4059 182.391C45.9997 182.391 46.5335 182.5 47.0075 182.719C47.4867 182.932 47.8929 183.234 48.2262 183.625C48.5648 184.01 48.8226 184.466 48.9997 184.992C49.1768 185.513 49.2653 186.078 49.2653 186.688V186.867C49.2653 187.477 49.1768 188.042 48.9997 188.562C48.8226 189.083 48.5648 189.539 48.2262 189.93C47.8929 190.315 47.4893 190.617 47.0153 190.836C46.5466 191.049 46.0153 191.156 45.4216 191.156C44.8278 191.156 44.294 191.049 43.82 190.836C43.346 190.617 42.9398 190.315 42.6012 189.93C42.2679 189.539 42.0127 189.083 41.8356 188.562C41.6585 188.042 41.57 187.477 41.57 186.867ZM43.0153 186.688V186.867C43.0153 187.289 43.0648 187.688 43.1637 188.062C43.2627 188.432 43.4111 188.76 43.6091 189.047C43.8122 189.333 44.0648 189.56 44.3669 189.727C44.669 189.888 45.0205 189.969 45.4216 189.969C45.8174 189.969 46.1637 189.888 46.4606 189.727C46.7627 189.56 47.0127 189.333 47.2106 189.047C47.4085 188.76 47.557 188.432 47.6559 188.062C47.7601 187.688 47.8122 187.289 47.8122 186.867V186.688C47.8122 186.271 47.7601 185.878 47.6559 185.508C47.557 185.133 47.4059 184.802 47.2028 184.516C47.0049 184.224 46.7549 183.995 46.4528 183.828C46.1559 183.661 45.807 183.578 45.4059 183.578C45.0101 183.578 44.6611 183.661 44.3591 183.828C44.0622 183.995 43.8122 184.224 43.6091 184.516C43.4111 184.802 43.2627 185.133 43.1637 185.508C43.0648 185.878 43.0153 186.271 43.0153 186.688ZM56.0797 188.758C56.0797 188.549 56.0328 188.357 55.9391 188.18C55.8505 187.997 55.6656 187.833 55.3844 187.688C55.1083 187.536 54.6917 187.406 54.1344 187.297C53.6656 187.198 53.2411 187.081 52.8609 186.945C52.4859 186.81 52.1656 186.646 51.9 186.453C51.6396 186.26 51.4391 186.034 51.2984 185.773C51.1578 185.513 51.0875 185.208 51.0875 184.859C51.0875 184.526 51.1604 184.211 51.3063 183.914C51.4573 183.617 51.6682 183.354 51.9391 183.125C52.2151 182.896 52.5458 182.716 52.9313 182.586C53.3167 182.456 53.7464 182.391 54.2203 182.391C54.8974 182.391 55.4755 182.51 55.9547 182.75C56.4339 182.99 56.801 183.31 57.0563 183.711C57.3115 184.107 57.4391 184.547 57.4391 185.031H55.9938C55.9938 184.797 55.9234 184.57 55.7828 184.352C55.6474 184.128 55.4469 183.943 55.1813 183.797C54.9208 183.651 54.6005 183.578 54.2203 183.578C53.8193 183.578 53.4938 183.641 53.2438 183.766C52.999 183.885 52.8193 184.039 52.7047 184.227C52.5953 184.414 52.5406 184.612 52.5406 184.82C52.5406 184.977 52.5667 185.117 52.6188 185.242C52.676 185.362 52.775 185.474 52.9156 185.578C53.0563 185.677 53.2542 185.771 53.5094 185.859C53.7646 185.948 54.0901 186.036 54.4859 186.125C55.1786 186.281 55.749 186.469 56.1969 186.688C56.6448 186.906 56.9781 187.174 57.1969 187.492C57.4156 187.81 57.525 188.195 57.525 188.648C57.525 189.018 57.4469 189.357 57.2906 189.664C57.1396 189.971 56.9182 190.237 56.6266 190.461C56.3401 190.68 55.9964 190.852 55.5953 190.977C55.1995 191.096 54.7542 191.156 54.2594 191.156C53.5146 191.156 52.8844 191.023 52.3688 190.758C51.8531 190.492 51.4625 190.148 51.1969 189.727C50.9313 189.305 50.7984 188.859 50.7984 188.391H52.2516C52.2724 188.786 52.387 189.102 52.5953 189.336C52.8036 189.565 53.0589 189.729 53.3609 189.828C53.663 189.922 53.9625 189.969 54.2594 189.969C54.6552 189.969 54.9859 189.917 55.2516 189.812C55.5224 189.708 55.7281 189.565 55.8688 189.383C56.0094 189.201 56.0797 188.992 56.0797 188.758Z" fill="black"/>
<path d="M26.828 68L31.778 72.95L30.364 74.364L24 68L30.364 61.636L31.778 63.05L26.828 68Z" fill="#219EBC"/>
<path d="M58.3516 73.0566V75H51.2129V73.0566H58.3516ZM51.8965 60.7812V75H49.4453V60.7812H51.8965ZM62.5612 64.4336V75H60.198V64.4336H62.5612ZM60.0417 61.6602C60.0417 61.3021 60.1589 61.0059 60.3933 60.7715C60.6342 60.5306 60.9662 60.4102 61.3894 60.4102C61.806 60.4102 62.1348 60.5306 62.3757 60.7715C62.6166 61.0059 62.737 61.3021 62.737 61.6602C62.737 62.0117 62.6166 62.3047 62.3757 62.5391C62.1348 62.7734 61.806 62.8906 61.3894 62.8906C60.9662 62.8906 60.6342 62.7734 60.3933 62.5391C60.1589 62.3047 60.0417 62.0117 60.0417 61.6602ZM68.6069 73.1348L71.1948 64.4336H73.6362L69.9643 75H68.4409L68.6069 73.1348ZM66.6245 64.4336L69.2612 73.1738L69.3881 75H67.8647L64.1733 64.4336H66.6245ZM77.4845 66.4453V75H75.131V64.4336H77.3771L77.4845 66.4453ZM80.717 64.3652L80.6974 66.5527C80.5542 66.5267 80.3979 66.5072 80.2287 66.4941C80.0659 66.4811 79.9032 66.4746 79.7404 66.4746C79.3367 66.4746 78.9819 66.5332 78.6759 66.6504C78.3699 66.7611 78.1128 66.9238 77.9045 67.1387C77.7026 67.347 77.5464 67.6009 77.4357 67.9004C77.325 68.1999 77.2599 68.5352 77.2404 68.9062L76.7033 68.9453C76.7033 68.2812 76.7684 67.666 76.8986 67.0996C77.0288 66.5332 77.2241 66.0352 77.4845 65.6055C77.7515 65.1758 78.0835 64.8405 78.4806 64.5996C78.8843 64.3587 79.3498 64.2383 79.8771 64.2383C80.0203 64.2383 80.1733 64.2513 80.3361 64.2773C80.5054 64.3034 80.6323 64.3327 80.717 64.3652ZM81.5184 69.834V69.6094C81.5184 68.8477 81.6291 68.1413 81.8505 67.4902C82.0718 66.8327 82.3908 66.263 82.8075 65.7812C83.2307 65.293 83.745 64.9154 84.3505 64.6484C84.9624 64.375 85.6526 64.2383 86.4208 64.2383C87.1955 64.2383 87.8856 64.375 88.4911 64.6484C89.1031 64.9154 89.6206 65.293 90.0438 65.7812C90.467 66.263 90.7893 66.8327 91.0106 67.4902C91.232 68.1413 91.3427 68.8477 91.3427 69.6094V69.834C91.3427 70.5957 91.232 71.3021 91.0106 71.9531C90.7893 72.6042 90.467 73.1738 90.0438 73.6621C89.6206 74.1439 89.1063 74.5215 88.5009 74.7949C87.8954 75.0618 87.2085 75.1953 86.4403 75.1953C85.6656 75.1953 84.9722 75.0618 84.3602 74.7949C83.7548 74.5215 83.2404 74.1439 82.8173 73.6621C82.3941 73.1738 82.0718 72.6042 81.8505 71.9531C81.6291 71.3021 81.5184 70.5957 81.5184 69.834ZM83.872 69.6094V69.834C83.872 70.3092 83.9208 70.7585 84.0184 71.1816C84.1161 71.6048 84.2691 71.9759 84.4774 72.2949C84.6858 72.6139 84.9527 72.8646 85.2782 73.0469C85.6037 73.2292 85.9911 73.3203 86.4403 73.3203C86.8765 73.3203 87.2541 73.2292 87.5731 73.0469C87.8986 72.8646 88.1656 72.6139 88.3739 72.2949C88.5822 71.9759 88.7352 71.6048 88.8329 71.1816C88.9371 70.7585 88.9891 70.3092 88.9891 69.834V69.6094C88.9891 69.1406 88.9371 68.6979 88.8329 68.2812C88.7352 67.8581 88.579 67.4837 88.3641 67.1582C88.1558 66.8327 87.8889 66.5788 87.5634 66.3965C87.2443 66.2077 86.8635 66.1133 86.4208 66.1133C85.9781 66.1133 85.594 66.2077 85.2684 66.3965C84.9494 66.5788 84.6858 66.8327 84.4774 67.1582C84.2691 67.4837 84.1161 67.8581 84.0184 68.2812C83.9208 68.6979 83.872 69.1406 83.872 69.6094ZM99.273 72.1387C99.273 71.9043 99.2145 71.6927 99.0973 71.5039C98.9801 71.3086 98.7555 71.1328 98.4234 70.9766C98.0979 70.8203 97.6161 70.6771 96.9781 70.5469C96.4182 70.4232 95.9039 70.2767 95.4352 70.1074C94.9729 69.9316 94.5758 69.7201 94.2438 69.4727C93.9117 69.2253 93.6546 68.9323 93.4723 68.5938C93.29 68.2552 93.1988 67.8646 93.1988 67.4219C93.1988 66.9922 93.2932 66.5853 93.482 66.2012C93.6708 65.8171 93.941 65.4785 94.2926 65.1855C94.6441 64.8926 95.0706 64.6615 95.5719 64.4922C96.0797 64.3229 96.6461 64.2383 97.2711 64.2383C98.1565 64.2383 98.915 64.388 99.5465 64.6875C100.185 64.9805 100.673 65.3809 101.011 65.8887C101.35 66.39 101.519 66.9564 101.519 67.5879H99.1656C99.1656 67.3079 99.094 67.0475 98.9508 66.8066C98.8141 66.5592 98.6057 66.3607 98.3258 66.2109C98.0458 66.0547 97.6943 65.9766 97.2711 65.9766C96.8674 65.9766 96.5322 66.0417 96.2652 66.1719C96.0048 66.2956 95.8095 66.4583 95.6793 66.6602C95.5556 66.862 95.4938 67.0833 95.4938 67.3242C95.4938 67.5 95.5263 67.6595 95.5914 67.8027C95.663 67.9395 95.7802 68.0664 95.943 68.1836C96.1057 68.2943 96.3271 68.3984 96.607 68.4961C96.8935 68.5938 97.2516 68.6882 97.6813 68.7793C98.4885 68.9486 99.1819 69.1667 99.7613 69.4336C100.347 69.694 100.796 70.0326 101.109 70.4492C101.421 70.8594 101.578 71.3802 101.578 72.0117C101.578 72.4805 101.477 72.9102 101.275 73.3008C101.08 73.6849 100.793 74.0202 100.416 74.3066C100.038 74.5866 99.5855 74.8047 99.0582 74.9609C98.5374 75.1172 97.9514 75.1953 97.3004 75.1953C96.3434 75.1953 95.5328 75.026 94.8688 74.6875C94.2047 74.3424 93.7001 73.903 93.3551 73.3691C93.0165 72.8288 92.8473 72.2689 92.8473 71.6895H95.1227C95.1487 72.1257 95.2691 72.474 95.484 72.7344C95.7053 72.9883 95.9788 73.1738 96.3043 73.291C96.6363 73.4017 96.9781 73.457 97.3297 73.457C97.7529 73.457 98.1077 73.4017 98.3941 73.291C98.6806 73.1738 98.8987 73.0176 99.0484 72.8223C99.1982 72.6204 99.273 72.3926 99.273 72.1387Z" fill="#219EBC"/>
<rect x="15" y="214" width="328" height="56" rx="4" fill="white"/>
<rect x="23" y="222" width="40" height="40" rx="2" fill="#FFB703"/>
<path d="M44 242H47L43 246L39 242H42V238H44V242ZM46 234H36V250H50V238H46V234ZM34 232.992C34 232.444 34.447 232 34.999 232H47L52 237V250.993C52.0009 251.124 51.976 251.255 51.9266 251.376C51.8772 251.498 51.8043 251.609 51.7121 251.702C51.6199 251.796 51.5101 251.87 51.3892 251.921C51.2682 251.972 51.1383 251.999 51.007 252H34.993C34.7304 251.998 34.479 251.893 34.2932 251.707C34.1074 251.522 34.0021 251.271 34 251.008V232.992Z" fill="white"/>
<path d="M91.2188 246.273V247.5H85.5312V246.273H91.2188ZM85.8281 236.125V247.5H84.3203V236.125H85.8281ZM94.2969 239.047V247.5H92.8438V239.047H94.2969ZM92.7344 236.805C92.7344 236.57 92.8047 236.372 92.9453 236.211C93.0911 236.049 93.3047 235.969 93.5859 235.969C93.862 235.969 94.0729 236.049 94.2188 236.211C94.3698 236.372 94.4453 236.57 94.4453 236.805C94.4453 237.029 94.3698 237.221 94.2188 237.383C94.0729 237.539 93.862 237.617 93.5859 237.617C93.3047 237.617 93.0911 237.539 92.9453 237.383C92.8047 237.221 92.7344 237.029 92.7344 236.805ZM99.1875 246.195L101.5 239.047H102.977L99.9375 247.5H98.9688L99.1875 246.195ZM97.2578 239.047L99.6406 246.234L99.8047 247.5H98.8359L95.7734 239.047H97.2578ZM105.812 240.375V247.5H104.367V239.047H105.773L105.812 240.375ZM108.453 239L108.445 240.344C108.326 240.318 108.211 240.302 108.102 240.297C107.997 240.286 107.878 240.281 107.742 240.281C107.409 240.281 107.115 240.333 106.859 240.438C106.604 240.542 106.388 240.688 106.211 240.875C106.034 241.062 105.893 241.286 105.789 241.547C105.69 241.802 105.625 242.083 105.594 242.391L105.188 242.625C105.188 242.115 105.237 241.635 105.336 241.188C105.44 240.74 105.599 240.344 105.812 240C106.026 239.651 106.297 239.38 106.625 239.188C106.958 238.99 107.354 238.891 107.812 238.891C107.917 238.891 108.036 238.904 108.172 238.93C108.307 238.951 108.401 238.974 108.453 239ZM109.25 243.367V243.188C109.25 242.578 109.339 242.013 109.516 241.492C109.693 240.966 109.948 240.51 110.281 240.125C110.615 239.734 111.018 239.432 111.492 239.219C111.966 239 112.497 238.891 113.086 238.891C113.68 238.891 114.214 239 114.688 239.219C115.167 239.432 115.573 239.734 115.906 240.125C116.245 240.51 116.503 240.966 116.68 241.492C116.857 242.013 116.945 242.578 116.945 243.188V243.367C116.945 243.977 116.857 244.542 116.68 245.062C116.503 245.583 116.245 246.039 115.906 246.43C115.573 246.815 115.169 247.117 114.695 247.336C114.227 247.549 113.695 247.656 113.102 247.656C112.508 247.656 111.974 247.549 111.5 247.336C111.026 247.117 110.62 246.815 110.281 246.43C109.948 246.039 109.693 245.583 109.516 245.062C109.339 244.542 109.25 243.977 109.25 243.367ZM110.695 243.188V243.367C110.695 243.789 110.745 244.188 110.844 244.562C110.943 244.932 111.091 245.26 111.289 245.547C111.492 245.833 111.745 246.06 112.047 246.227C112.349 246.388 112.701 246.469 113.102 246.469C113.497 246.469 113.844 246.388 114.141 246.227C114.443 246.06 114.693 245.833 114.891 245.547C115.089 245.26 115.237 244.932 115.336 244.562C115.44 244.188 115.492 243.789 115.492 243.367V243.188C115.492 242.771 115.44 242.378 115.336 242.008C115.237 241.633 115.086 241.302 114.883 241.016C114.685 240.724 114.435 240.495 114.133 240.328C113.836 240.161 113.487 240.078 113.086 240.078C112.69 240.078 112.341 240.161 112.039 240.328C111.742 240.495 111.492 240.724 111.289 241.016C111.091 241.302 110.943 241.633 110.844 242.008C110.745 242.378 110.695 242.771 110.695 243.188ZM124.008 246.289H124.156C124.99 246.289 125.667 246.172 126.188 245.938C126.708 245.703 127.109 245.388 127.391 244.992C127.672 244.596 127.865 244.151 127.969 243.656C128.073 243.156 128.125 242.643 128.125 242.117V240.375C128.125 239.859 128.065 239.401 127.945 239C127.831 238.599 127.669 238.263 127.461 237.992C127.258 237.721 127.026 237.516 126.766 237.375C126.505 237.234 126.229 237.164 125.938 237.164C125.604 237.164 125.305 237.232 125.039 237.367C124.779 237.497 124.557 237.682 124.375 237.922C124.198 238.161 124.062 238.443 123.969 238.766C123.875 239.089 123.828 239.44 123.828 239.82C123.828 240.159 123.87 240.487 123.953 240.805C124.036 241.122 124.164 241.409 124.336 241.664C124.508 241.919 124.721 242.122 124.977 242.273C125.237 242.419 125.542 242.492 125.891 242.492C126.214 242.492 126.516 242.43 126.797 242.305C127.083 242.174 127.336 242 127.555 241.781C127.779 241.557 127.956 241.305 128.086 241.023C128.221 240.742 128.299 240.448 128.32 240.141H129.008C129.008 240.573 128.922 241 128.75 241.422C128.583 241.839 128.349 242.219 128.047 242.562C127.745 242.906 127.391 243.182 126.984 243.391C126.578 243.594 126.135 243.695 125.656 243.695C125.094 243.695 124.607 243.586 124.195 243.367C123.784 243.148 123.445 242.857 123.18 242.492C122.919 242.128 122.724 241.721 122.594 241.273C122.469 240.82 122.406 240.362 122.406 239.898C122.406 239.357 122.482 238.849 122.633 238.375C122.784 237.901 123.008 237.484 123.305 237.125C123.602 236.76 123.969 236.477 124.406 236.273C124.849 236.07 125.359 235.969 125.938 235.969C126.589 235.969 127.143 236.099 127.602 236.359C128.06 236.62 128.432 236.969 128.719 237.406C129.01 237.844 129.224 238.336 129.359 238.883C129.495 239.43 129.562 239.992 129.562 240.57V241.094C129.562 241.682 129.523 242.281 129.445 242.891C129.372 243.495 129.229 244.073 129.016 244.625C128.807 245.177 128.503 245.672 128.102 246.109C127.701 246.542 127.177 246.885 126.531 247.141C125.891 247.391 125.099 247.516 124.156 247.516H124.008V246.289ZM140.68 246.055V241.703C140.68 241.37 140.612 241.081 140.477 240.836C140.346 240.586 140.148 240.393 139.883 240.258C139.617 240.122 139.289 240.055 138.898 240.055C138.534 240.055 138.214 240.117 137.938 240.242C137.667 240.367 137.453 240.531 137.297 240.734C137.146 240.938 137.07 241.156 137.07 241.391H135.625C135.625 241.089 135.703 240.789 135.859 240.492C136.016 240.195 136.24 239.927 136.531 239.688C136.828 239.443 137.182 239.25 137.594 239.109C138.01 238.964 138.474 238.891 138.984 238.891C139.599 238.891 140.141 238.995 140.609 239.203C141.083 239.411 141.453 239.727 141.719 240.148C141.99 240.565 142.125 241.089 142.125 241.719V245.656C142.125 245.938 142.148 246.237 142.195 246.555C142.247 246.872 142.323 247.146 142.422 247.375V247.5H140.914C140.841 247.333 140.784 247.112 140.742 246.836C140.701 246.555 140.68 246.294 140.68 246.055ZM140.93 242.375L140.945 243.391H139.484C139.073 243.391 138.706 243.424 138.383 243.492C138.06 243.555 137.789 243.651 137.57 243.781C137.352 243.911 137.185 244.076 137.07 244.273C136.956 244.466 136.898 244.693 136.898 244.953C136.898 245.219 136.958 245.461 137.078 245.68C137.198 245.898 137.378 246.073 137.617 246.203C137.862 246.328 138.161 246.391 138.516 246.391C138.958 246.391 139.349 246.297 139.688 246.109C140.026 245.922 140.294 245.693 140.492 245.422C140.695 245.151 140.805 244.888 140.82 244.633L141.438 245.328C141.401 245.547 141.302 245.789 141.141 246.055C140.979 246.32 140.763 246.576 140.492 246.82C140.227 247.06 139.909 247.26 139.539 247.422C139.174 247.578 138.763 247.656 138.305 247.656C137.732 247.656 137.229 247.544 136.797 247.32C136.37 247.096 136.036 246.797 135.797 246.422C135.562 246.042 135.445 245.617 135.445 245.148C135.445 244.695 135.534 244.297 135.711 243.953C135.888 243.604 136.143 243.315 136.477 243.086C136.81 242.852 137.211 242.674 137.68 242.555C138.148 242.435 138.672 242.375 139.25 242.375H140.93ZM145.844 240.852V247.5H144.398V239.047H145.766L145.844 240.852ZM145.5 242.953L144.898 242.93C144.904 242.352 144.99 241.818 145.156 241.328C145.323 240.833 145.557 240.404 145.859 240.039C146.161 239.674 146.521 239.393 146.938 239.195C147.359 238.992 147.826 238.891 148.336 238.891C148.753 238.891 149.128 238.948 149.461 239.062C149.794 239.172 150.078 239.349 150.312 239.594C150.552 239.839 150.734 240.156 150.859 240.547C150.984 240.932 151.047 241.404 151.047 241.961V247.5H149.594V241.945C149.594 241.503 149.529 241.148 149.398 240.883C149.268 240.612 149.078 240.417 148.828 240.297C148.578 240.172 148.271 240.109 147.906 240.109C147.547 240.109 147.219 240.185 146.922 240.336C146.63 240.487 146.378 240.695 146.164 240.961C145.956 241.227 145.792 241.531 145.672 241.875C145.557 242.214 145.5 242.573 145.5 242.953ZM152.859 243.367V243.188C152.859 242.578 152.948 242.013 153.125 241.492C153.302 240.966 153.557 240.51 153.891 240.125C154.224 239.734 154.628 239.432 155.102 239.219C155.576 239 156.107 238.891 156.695 238.891C157.289 238.891 157.823 239 158.297 239.219C158.776 239.432 159.182 239.734 159.516 240.125C159.854 240.51 160.112 240.966 160.289 241.492C160.466 242.013 160.555 242.578 160.555 243.188V243.367C160.555 243.977 160.466 244.542 160.289 245.062C160.112 245.583 159.854 246.039 159.516 246.43C159.182 246.815 158.779 247.117 158.305 247.336C157.836 247.549 157.305 247.656 156.711 247.656C156.117 247.656 155.583 247.549 155.109 247.336C154.635 247.117 154.229 246.815 153.891 246.43C153.557 246.039 153.302 245.583 153.125 245.062C152.948 244.542 152.859 243.977 152.859 243.367ZM154.305 243.188V243.367C154.305 243.789 154.354 244.188 154.453 244.562C154.552 244.932 154.701 245.26 154.898 245.547C155.102 245.833 155.354 246.06 155.656 246.227C155.958 246.388 156.31 246.469 156.711 246.469C157.107 246.469 157.453 246.388 157.75 246.227C158.052 246.06 158.302 245.833 158.5 245.547C158.698 245.26 158.846 244.932 158.945 244.562C159.049 244.188 159.102 243.789 159.102 243.367V243.188C159.102 242.771 159.049 242.378 158.945 242.008C158.846 241.633 158.695 241.302 158.492 241.016C158.294 240.724 158.044 240.495 157.742 240.328C157.445 240.161 157.096 240.078 156.695 240.078C156.299 240.078 155.951 240.161 155.648 240.328C155.352 240.495 155.102 240.724 154.898 241.016C154.701 241.302 154.552 241.633 154.453 242.008C154.354 242.378 154.305 242.771 154.305 243.188ZM168.906 246.195L171.219 239.047H172.695L169.656 247.5H168.688L168.906 246.195ZM166.977 239.047L169.359 246.234L169.523 247.5H168.555L165.492 239.047H166.977ZM173.578 243.367V243.188C173.578 242.578 173.667 242.013 173.844 241.492C174.021 240.966 174.276 240.51 174.609 240.125C174.943 239.734 175.346 239.432 175.82 239.219C176.294 239 176.826 238.891 177.414 238.891C178.008 238.891 178.542 239 179.016 239.219C179.495 239.432 179.901 239.734 180.234 240.125C180.573 240.51 180.831 240.966 181.008 241.492C181.185 242.013 181.273 242.578 181.273 243.188V243.367C181.273 243.977 181.185 244.542 181.008 245.062C180.831 245.583 180.573 246.039 180.234 246.43C179.901 246.815 179.497 247.117 179.023 247.336C178.555 247.549 178.023 247.656 177.43 247.656C176.836 247.656 176.302 247.549 175.828 247.336C175.354 247.117 174.948 246.815 174.609 246.43C174.276 246.039 174.021 245.583 173.844 245.062C173.667 244.542 173.578 243.977 173.578 243.367ZM175.023 243.188V243.367C175.023 243.789 175.073 244.188 175.172 244.562C175.271 244.932 175.419 245.26 175.617 245.547C175.82 245.833 176.073 246.06 176.375 246.227C176.677 246.388 177.029 246.469 177.43 246.469C177.826 246.469 178.172 246.388 178.469 246.227C178.771 246.06 179.021 245.833 179.219 245.547C179.417 245.26 179.565 244.932 179.664 244.562C179.768 244.188 179.82 243.789 179.82 243.367V243.188C179.82 242.771 179.768 242.378 179.664 242.008C179.565 241.633 179.414 241.302 179.211 241.016C179.013 240.724 178.763 240.495 178.461 240.328C178.164 240.161 177.815 240.078 177.414 240.078C177.018 240.078 176.669 240.161 176.367 240.328C176.07 240.495 175.82 240.724 175.617 241.016C175.419 241.302 175.271 241.633 175.172 242.008C175.073 242.378 175.023 242.771 175.023 243.188ZM184.656 235.5V247.5H183.203V235.5H184.656ZM192.148 245.547V239.047H193.602V247.5H192.219L192.148 245.547ZM192.422 243.766L193.023 243.75C193.023 244.312 192.964 244.833 192.844 245.312C192.729 245.786 192.542 246.198 192.281 246.547C192.021 246.896 191.68 247.169 191.258 247.367C190.836 247.56 190.323 247.656 189.719 247.656C189.307 247.656 188.93 247.596 188.586 247.477C188.247 247.357 187.956 247.172 187.711 246.922C187.466 246.672 187.276 246.346 187.141 245.945C187.01 245.544 186.945 245.062 186.945 244.5V239.047H188.391V244.516C188.391 244.896 188.432 245.211 188.516 245.461C188.604 245.706 188.721 245.901 188.867 246.047C189.018 246.188 189.185 246.286 189.367 246.344C189.555 246.401 189.747 246.43 189.945 246.43C190.56 246.43 191.047 246.312 191.406 246.078C191.766 245.839 192.023 245.518 192.18 245.117C192.341 244.711 192.422 244.26 192.422 243.766ZM197.242 240.727V247.5H195.789V239.047H197.164L197.242 240.727ZM196.945 242.953L196.273 242.93C196.279 242.352 196.354 241.818 196.5 241.328C196.646 240.833 196.862 240.404 197.148 240.039C197.435 239.674 197.792 239.393 198.219 239.195C198.646 238.992 199.141 238.891 199.703 238.891C200.099 238.891 200.464 238.948 200.797 239.062C201.13 239.172 201.419 239.346 201.664 239.586C201.909 239.826 202.099 240.133 202.234 240.508C202.37 240.883 202.438 241.336 202.438 241.867V247.5H200.992V241.938C200.992 241.495 200.917 241.141 200.766 240.875C200.62 240.609 200.411 240.417 200.141 240.297C199.87 240.172 199.552 240.109 199.188 240.109C198.76 240.109 198.404 240.185 198.117 240.336C197.831 240.487 197.602 240.695 197.43 240.961C197.258 241.227 197.133 241.531 197.055 241.875C196.982 242.214 196.945 242.573 196.945 242.953ZM202.422 242.156L201.453 242.453C201.458 241.99 201.534 241.544 201.68 241.117C201.831 240.69 202.047 240.31 202.328 239.977C202.615 239.643 202.966 239.38 203.383 239.188C203.799 238.99 204.276 238.891 204.812 238.891C205.266 238.891 205.667 238.951 206.016 239.07C206.37 239.19 206.667 239.375 206.906 239.625C207.151 239.87 207.336 240.185 207.461 240.57C207.586 240.956 207.648 241.414 207.648 241.945V247.5H206.195V241.93C206.195 241.456 206.12 241.089 205.969 240.828C205.823 240.562 205.615 240.378 205.344 240.273C205.078 240.164 204.76 240.109 204.391 240.109C204.073 240.109 203.792 240.164 203.547 240.273C203.302 240.383 203.096 240.534 202.93 240.727C202.763 240.914 202.635 241.13 202.547 241.375C202.464 241.62 202.422 241.88 202.422 242.156ZM213.344 247.656C212.755 247.656 212.221 247.557 211.742 247.359C211.268 247.156 210.859 246.872 210.516 246.508C210.177 246.143 209.917 245.711 209.734 245.211C209.552 244.711 209.461 244.164 209.461 243.57V243.242C209.461 242.555 209.562 241.943 209.766 241.406C209.969 240.865 210.245 240.406 210.594 240.031C210.943 239.656 211.339 239.372 211.781 239.18C212.224 238.987 212.682 238.891 213.156 238.891C213.76 238.891 214.281 238.995 214.719 239.203C215.161 239.411 215.523 239.703 215.805 240.078C216.086 240.448 216.294 240.885 216.43 241.391C216.565 241.891 216.633 242.438 216.633 243.031V243.68H210.32V242.5H215.188V242.391C215.167 242.016 215.089 241.651 214.953 241.297C214.823 240.943 214.615 240.651 214.328 240.422C214.042 240.193 213.651 240.078 213.156 240.078C212.828 240.078 212.526 240.148 212.25 240.289C211.974 240.424 211.737 240.628 211.539 240.898C211.341 241.169 211.188 241.5 211.078 241.891C210.969 242.281 210.914 242.732 210.914 243.242V243.57C210.914 243.971 210.969 244.349 211.078 244.703C211.193 245.052 211.357 245.359 211.57 245.625C211.789 245.891 212.052 246.099 212.359 246.25C212.672 246.401 213.026 246.477 213.422 246.477C213.932 246.477 214.365 246.372 214.719 246.164C215.073 245.956 215.383 245.677 215.648 245.328L216.523 246.023C216.341 246.299 216.109 246.562 215.828 246.812C215.547 247.062 215.201 247.266 214.789 247.422C214.383 247.578 213.901 247.656 213.344 247.656ZM229.82 243.672V244.859H221.602V244.008L226.695 236.125H227.875L226.609 238.406L223.242 243.672H229.82ZM228.234 236.125V247.5H226.789V236.125H228.234Z" fill="#0B1F4D"/>
</g>
<defs>
<clipPath id="clip0_360_1016">
<rect width="360" height="641" fill="white"/>
</clipPath>
</defs>
</svg>
