<svg width="38" height="38" viewBox="0 0 38 38" fill="none" xmlns="http://www.w3.org/2000/svg">
<path d="M18.9994 14.2504C17.7396 14.2504 16.5314 14.7508 15.6406 15.6416C14.7498 16.5324 14.2494 17.7406 14.2494 19.0004C14.2494 20.2601 14.7498 21.4683 15.6406 22.3591C16.5314 23.2499 17.7396 23.7504 18.9994 23.7504C20.2591 23.7504 21.4673 23.2499 22.3581 22.3591C23.2489 21.4683 23.7494 20.2601 23.7494 19.0004C23.7494 17.7406 23.2489 16.5324 22.3581 15.6416C21.4673 14.7508 20.2591 14.2504 18.9994 14.2504ZM18.9994 11.0837C21.099 11.0837 23.1126 11.9178 24.5973 13.4024C26.0819 14.8871 26.916 16.9007 26.916 19.0004C26.916 21.1 26.0819 23.1136 24.5973 24.5983C23.1126 26.083 21.099 26.917 18.9994 26.917C16.8997 26.917 14.8861 26.083 13.4014 24.5983C11.9168 23.1136 11.0827 21.1 11.0827 19.0004C11.0827 16.9007 11.9168 14.8871 13.4014 13.4024C14.8861 11.9178 16.8997 11.0837 18.9994 11.0837ZM29.291 10.6879C29.291 11.2128 29.0825 11.7162 28.7113 12.0873C28.3402 12.4585 27.8368 12.667 27.3119 12.667C26.7869 12.667 26.2835 12.4585 25.9124 12.0873C25.5412 11.7162 25.3327 11.2128 25.3327 10.6879C25.3327 10.163 25.5412 9.6595 25.9124 9.28834C26.2835 8.91717 26.7869 8.70865 27.3119 8.70865C27.8368 8.70865 28.3402 8.91717 28.7113 9.28834C29.0825 9.6595 29.291 10.163 29.291 10.6879ZM18.9994 6.33365C15.0822 6.33365 14.4425 6.34474 12.6201 6.42549C11.3788 6.48407 10.5459 6.65032 9.77327 6.95115C9.0861 7.21715 8.59052 7.5354 8.06327 8.06424C7.56769 8.54303 7.18666 9.12758 6.9486 9.77424C6.64777 10.5501 6.48152 11.3814 6.42452 12.6211C6.34218 14.3691 6.33268 14.9803 6.33268 19.0004C6.33268 22.9175 6.34377 23.5572 6.42452 25.3796C6.4831 26.6194 6.64935 27.4538 6.9486 28.2249C7.21777 28.9136 7.53443 29.4092 8.0601 29.9349C8.59368 30.4669 9.08927 30.7851 9.7701 31.0479C10.5523 31.3504 11.3851 31.5182 12.6201 31.5752C14.3681 31.6575 14.9793 31.667 18.9994 31.667C22.9165 31.667 23.5562 31.6559 25.3786 31.5752C26.6168 31.5166 27.4512 31.3504 28.2239 31.0511C28.9094 30.7835 29.4082 30.4653 29.9339 29.9396C30.4674 29.406 30.7857 28.9104 31.0485 28.2296C31.3494 27.449 31.5172 26.6146 31.5742 25.3796C31.6565 23.6316 31.666 23.0204 31.666 19.0004C31.666 15.0832 31.6549 14.4435 31.5742 12.6211C31.5156 11.3829 31.3494 10.5469 31.0485 9.77424C30.8099 9.12824 30.4296 8.54392 29.9354 8.06424C29.4568 7.56841 28.8722 7.18733 28.2254 6.94957C27.4496 6.64874 26.6168 6.48249 25.3786 6.42549C23.6306 6.34315 23.0194 6.33365 18.9994 6.33365ZM18.9994 3.16699C23.3013 3.16699 23.838 3.18282 25.5259 3.26199C27.2121 3.34115 28.36 3.60557 29.3702 3.99824C30.4152 4.4004 31.2955 4.94507 32.1759 5.82382C32.981 6.61532 33.6039 7.57275 34.0014 8.62949C34.3925 9.63807 34.6585 10.7876 34.7377 12.4739C34.8121 14.1617 34.8327 14.6984 34.8327 19.0004C34.8327 23.3023 34.8169 23.839 34.7377 25.5269C34.6585 27.2131 34.3925 28.361 34.0014 29.3712C33.6051 30.4285 32.982 31.3862 32.1759 32.1769C31.3841 32.9817 30.4268 33.6046 29.3702 34.0024C28.3616 34.3935 27.2121 34.6595 25.5259 34.7387C23.838 34.8131 23.3013 34.8337 18.9994 34.8337C14.6974 34.8337 14.1607 34.8179 12.4728 34.7387C10.7866 34.6595 9.63868 34.3935 8.62852 34.0024C7.57137 33.6058 6.61377 32.9827 5.82285 32.1769C5.01758 31.3855 4.39457 30.428 3.99727 29.3712C3.6046 28.3626 3.34018 27.2131 3.26102 25.5269C3.1866 23.839 3.16602 23.3023 3.16602 19.0004C3.16602 14.6984 3.18185 14.1617 3.26102 12.4739C3.34018 10.786 3.6046 9.63965 3.99727 8.62949C4.39347 7.5721 5.01662 6.61441 5.82285 5.82382C6.61399 5.01827 7.57153 4.39522 8.62852 3.99824C9.63868 3.60557 10.785 3.34115 12.4728 3.26199C14.1607 3.18757 14.6974 3.16699 18.9994 3.16699Z" fill="#F8F9FB"/>
</svg>
