<svg width="500" height="500" viewBox="0 0 500 500" fill="none" xmlns="http://www.w3.org/2000/svg">
<g clip-path="url(#clip0_334_2)">
<path d="M246.95 409.4C250.25 410.133 253.183 410.683 255.75 411.05C258.317 411.05 261.25 411.05 264.55 411.05C274.45 411.05 283.617 409.217 292.05 405.55C300.483 401.883 307.817 396.75 314.05 390.15C320.65 383.55 325.783 375.85 329.45 367.05C333.117 358.25 334.95 348.533 334.95 337.9C334.95 325.067 332.2 313.883 326.7 304.35C321.567 294.45 314.233 286.383 304.7 280.15C295.533 273.55 284.533 268.6 271.7 265.3C259.233 262 245.85 260.35 231.55 260.35H172.15V449H112.75V54.65C136.217 50.25 156.933 47.1333 174.9 45.3C192.867 43.1 211.75 42 231.55 42C255.383 42 276.1 44.75 293.7 50.25C311.667 55.75 326.517 63.2666 338.25 72.8C350.35 82.3333 359.333 93.7 365.2 106.9C371.433 120.1 374.55 134.4 374.55 149.8C374.55 156.4 373.45 163.55 371.25 171.25C369.417 178.583 366.667 185.733 363 192.7C359.333 199.667 354.75 206.267 349.25 212.5C344.117 218.367 338.25 223.5 331.65 227.9L315.7 235.6L331.1 239.45C352 248.617 368.317 261.633 380.05 278.5C392.15 295.367 398.2 314.617 398.2 336.25C398.2 350.55 395.267 364.85 389.4 379.15C383.533 393.083 374.917 405.733 363.55 417.1C352.183 428.467 338.433 437.817 322.3 445.15C306.167 452.117 287.833 455.6 267.3 455.6C256.667 455.6 245.85 454.867 234.85 453.4C224.217 452.3 210.65 449.733 194.15 445.7C196.717 440.933 199.65 436.35 202.95 431.95C206.617 427.183 210.467 422.967 214.5 419.3C218.9 415.633 223.667 412.883 228.8 411.05C234.3 409.217 240.35 408.667 246.95 409.4ZM172.15 218.55H231.55C256.85 218.55 276.65 212.133 290.95 199.3C305.617 186.467 312.95 170.15 312.95 150.35C312.95 141.917 311.3 133.85 308 126.15C304.7 118.45 299.567 111.85 292.6 106.35C286 100.483 277.567 95.9 267.3 92.6C257.033 88.9333 245.117 87.1 231.55 87.1C211.75 87.1 191.95 88.2 172.15 90.4V218.55Z" fill="#3179C8"/>
</g>
<defs>
<clipPath id="clip0_334_2">
<rect width="500" height="500" fill="white"/>
</clipPath>
</defs>
</svg>
