<svg width="30" height="30" viewBox="0 0 30 30" fill="none" xmlns="http://www.w3.org/2000/svg">
<path d="M5.10417 0.75C2.71351 0.75 0.75 2.71351 0.75 5.10417V24.8958C0.75 27.2865 2.71351 29.25 5.10417 29.25H24.8958C27.2865 29.25 29.25 27.2865 29.25 24.8958V5.10417C29.25 2.71351 27.2865 0.75 24.8958 0.75H5.10417ZM5.10417 3.125H24.8958C26.0028 3.125 26.875 3.99724 26.875 5.10417V24.8958C26.875 26.0028 26.0028 26.875 24.8958 26.875H5.10417C3.99724 26.875 3.125 26.0028 3.125 24.8958V5.10417C3.125 3.99724 3.99724 3.125 5.10417 3.125ZM8.27083 6.29167C7.74593 6.29167 7.24252 6.50019 6.87135 6.87135C6.50019 7.24252 6.29167 7.74593 6.29167 8.27083C6.29167 8.79574 6.50019 9.29915 6.87135 9.67032C7.24252 10.0415 7.74593 10.25 8.27083 10.25C8.79574 10.25 9.29915 10.0415 9.67032 9.67032C10.0415 9.29915 10.25 8.79574 10.25 8.27083C10.25 7.74593 10.0415 7.24252 9.67032 6.87135C9.29915 6.50019 8.79574 6.29167 8.27083 6.29167ZM7.08333 11.8333C6.64554 11.8333 6.29167 12.1872 6.29167 12.625V22.9167C6.29167 23.3545 6.64554 23.7083 7.08333 23.7083H9.45833C9.89613 23.7083 10.25 23.3545 10.25 22.9167V12.625C10.25 12.1872 9.89613 11.8333 9.45833 11.8333H7.08333ZM12.625 11.8333C12.1872 11.8333 11.8333 12.1872 11.8333 12.625V22.9167C11.8333 23.3545 12.1872 23.7083 12.625 23.7083H15C15.4378 23.7083 15.7917 23.3545 15.7917 22.9167V16.9792C15.7917 15.8875 16.6791 15 17.7708 15C18.8625 15 19.75 15.8875 19.75 16.9792V22.9167C19.75 23.3545 20.1039 23.7083 20.5417 23.7083H22.9167C23.3545 23.7083 23.7083 23.3545 23.7083 22.9167V16.5833C23.7083 13.9637 21.578 11.8333 18.9583 11.8333C17.7408 11.8333 16.6332 12.2973 15.7917 13.0533V12.625C15.7917 12.1872 15.4378 11.8333 15 11.8333H12.625Z" fill="#F0A22E"/>
</svg>
