<svg width="38" height="38" viewBox="0 0 38 38" fill="none" xmlns="http://www.w3.org/2000/svg">
<path d="M18.9994 14.25C17.7396 14.25 16.5314 14.7504 15.6406 15.6412C14.7498 16.532 14.2494 17.7402 14.2494 19C14.2494 20.2597 14.7498 21.4679 15.6406 22.3587C16.5314 23.2495 17.7396 23.75 18.9994 23.75C20.2591 23.75 21.4673 23.2495 22.3581 22.3587C23.2489 21.4679 23.7494 20.2597 23.7494 19C23.7494 17.7402 23.2489 16.532 22.3581 15.6412C21.4673 14.7504 20.2591 14.25 18.9994 14.25ZM18.9994 11.0833C21.099 11.0833 23.1126 11.9174 24.5973 13.402C26.0819 14.8867 26.916 16.9003 26.916 19C26.916 21.0996 26.0819 23.1132 24.5973 24.5979C23.1126 26.0826 21.099 26.9166 18.9994 26.9166C16.8997 26.9166 14.8861 26.0826 13.4014 24.5979C11.9168 23.1132 11.0827 21.0996 11.0827 19C11.0827 16.9003 11.9168 14.8867 13.4014 13.402C14.8861 11.9174 16.8997 11.0833 18.9994 11.0833V11.0833ZM29.291 10.6875C29.291 11.2124 29.0825 11.7158 28.7113 12.0869C28.3402 12.4581 27.8368 12.6666 27.3119 12.6666C26.7869 12.6666 26.2835 12.4581 25.9124 12.0869C25.5412 11.7158 25.3327 11.2124 25.3327 10.6875C25.3327 10.1626 25.5412 9.65914 25.9124 9.28798C26.2835 8.91681 26.7869 8.70829 27.3119 8.70829C27.8368 8.70829 28.3402 8.91681 28.7113 9.28798C29.0825 9.65914 29.291 10.1626 29.291 10.6875V10.6875ZM18.9994 6.33329C15.0822 6.33329 14.4425 6.34438 12.6201 6.42513C11.3788 6.48371 10.5459 6.64996 9.77327 6.95079C9.0861 7.21679 8.59052 7.53504 8.06327 8.06388C7.56769 8.54267 7.18666 9.12722 6.9486 9.77388C6.64777 10.5497 6.48152 11.381 6.42452 12.6207C6.34218 14.3687 6.33268 14.9799 6.33268 19C6.33268 22.9171 6.34377 23.5568 6.42452 25.3792C6.4831 26.619 6.64935 27.4534 6.9486 28.2245C7.21777 28.9132 7.53443 29.4088 8.0601 29.9345C8.59368 30.4665 9.08927 30.7847 9.7701 31.0475C10.5523 31.35 11.3851 31.5178 12.6201 31.5748C14.3681 31.6571 14.9793 31.6666 18.9994 31.6666C22.9165 31.6666 23.5562 31.6555 25.3786 31.5748C26.6168 31.5162 27.4512 31.35 28.2239 31.0507C28.9094 30.7831 29.4082 30.4649 29.9339 29.9392C30.4674 29.4056 30.7857 28.91 31.0485 28.2292C31.3494 27.4486 31.5172 26.6142 31.5742 25.3792C31.6565 23.6312 31.666 23.02 31.666 19C31.666 15.0828 31.6549 14.4431 31.5742 12.6207C31.5156 11.3825 31.3494 10.5465 31.0485 9.77388C30.8099 9.12788 30.4296 8.54356 29.9354 8.06388C29.4568 7.56805 28.8722 7.18697 28.2254 6.94921C27.4496 6.64838 26.6168 6.48213 25.3786 6.42513C23.6306 6.34279 23.0194 6.33329 18.9994 6.33329ZM18.9994 3.16663C23.3013 3.16663 23.838 3.18246 25.5259 3.26163C27.2121 3.34079 28.36 3.60521 29.3702 3.99788C30.4152 4.40004 31.2955 4.94471 32.1759 5.82346C32.981 6.61496 33.6039 7.57239 34.0014 8.62913C34.3925 9.63771 34.6585 10.7872 34.7377 12.4735C34.8121 14.1613 34.8327 14.698 34.8327 19C34.8327 23.3019 34.8169 23.8386 34.7377 25.5265C34.6585 27.2127 34.3925 28.3606 34.0014 29.3708C33.6051 30.4281 32.982 31.3858 32.1759 32.1765C31.3841 32.9813 30.4268 33.6042 29.3702 34.002C28.3616 34.3931 27.2121 34.6591 25.5259 34.7383C23.838 34.8127 23.3013 34.8333 18.9994 34.8333C14.6974 34.8333 14.1607 34.8175 12.4728 34.7383C10.7866 34.6591 9.63868 34.3931 8.62852 34.002C7.57137 33.6054 6.61377 32.9823 5.82285 32.1765C5.01758 31.3851 4.39457 30.4276 3.99727 29.3708C3.6046 28.3622 3.34018 27.2127 3.26102 25.5265C3.1866 23.8386 3.16602 23.3019 3.16602 19C3.16602 14.698 3.18185 14.1613 3.26102 12.4735C3.34018 10.7856 3.6046 9.63929 3.99727 8.62913C4.39347 7.57174 5.01662 6.61405 5.82285 5.82346C6.61399 5.01791 7.57153 4.39486 8.62852 3.99788C9.63868 3.60521 10.785 3.34079 12.4728 3.26163C14.1607 3.18721 14.6974 3.16663 18.9994 3.16663Z" fill="#F0A22E"/>
</svg>
