<svg width="800" height="800" viewBox="0 0 800 800" fill="none" xmlns="http://www.w3.org/2000/svg">
<g clip-path="url(#clip0_69_4)">
<path d="M400 695C406 696.333 411.333 697.333 416 698C420.667 698 426 698 432 698C450 698 466.667 694.667 482 688C497.333 681.333 510.667 672 522 660C534 648 543.333 634 550 618C556.667 602 560 584.333 560 565C560 541.667 555 521.333 545 504C535.667 486 522.333 471.333 505 460C488.333 448 468.333 439 445 433C422.333 427 398 424 372 424H264V767H156V50C198.667 42 236.333 36.3333 269 33C301.667 29 336 27 372 27C415.333 27 453 32 485 42C517.667 52 544.667 65.6666 566 83C588 100.333 604.333 121 615 145C626.333 169 632 195 632 223C632 235 630 248 626 262C622.667 275.333 617.667 288.333 611 301C604.333 313.667 596 325.667 586 337C576.667 347.667 566 357 554 365L525 379L553 386C591 402.667 620.667 426.333 642 457C664 487.667 675 522.667 675 562C675 588 669.667 614 659 640C648.333 665.333 632.667 688.333 612 709C591.333 729.667 566.333 746.667 537 760C507.667 772.667 474.333 779 437 779C417.667 779 398 777.667 378 775C358.667 773 334 768.333 304 761C308.667 752.333 314 744 320 736C326.667 727.333 333.667 719.667 341 713C349 706.333 357.667 701.333 367 698C377 694.667 388 693.667 400 695ZM264 348H372C418 348 454 336.333 480 313C506.667 289.667 520 260 520 224C520 208.667 517 194 511 180C505 166 495.667 154 483 144C471 133.333 455.667 125 437 119C418.333 112.333 396.667 109 372 109C336 109 300 111 264 115V348Z" fill="#F8F9FB"/>
</g>
<defs>
<clipPath id="clip0_69_4">
<rect width="800" height="800" fill="white"/>
</clipPath>
</defs>
</svg>
