<svg width="364" height="264" viewBox="0 0 364 264" fill="none" xmlns="http://www.w3.org/2000/svg">
<rect width="364" height="264" fill="#FF9900"/>
<path d="M322.32 241.24C322.8 241.347 323.227 241.427 323.6 241.48C323.973 241.48 324.4 241.48 324.88 241.48C326.32 241.48 327.653 241.213 328.88 240.68C330.107 240.147 331.173 239.4 332.08 238.44C333.04 237.48 333.787 236.36 334.32 235.08C334.853 233.8 335.12 232.387 335.12 230.84C335.12 228.973 334.72 227.347 333.92 225.96C333.173 224.52 332.107 223.347 330.72 222.44C329.387 221.48 327.787 220.76 325.92 220.28C324.107 219.8 322.16 219.56 320.08 219.56H311.44V247H302.8V189.64C306.213 189 309.227 188.547 311.84 188.28C314.453 187.96 317.2 187.8 320.08 187.8C323.547 187.8 326.56 188.2 329.12 189C331.733 189.8 333.893 190.893 335.6 192.28C337.36 193.667 338.667 195.32 339.52 197.24C340.427 199.16 340.88 201.24 340.88 203.48C340.88 204.44 340.72 205.48 340.4 206.6C340.133 207.667 339.733 208.707 339.2 209.72C338.667 210.733 338 211.693 337.2 212.6C336.453 213.453 335.6 214.2 334.64 214.84L332.32 215.96L334.56 216.52C337.6 217.853 339.973 219.747 341.68 222.2C343.44 224.653 344.32 227.453 344.32 230.6C344.32 232.68 343.893 234.76 343.04 236.84C342.187 238.867 340.933 240.707 339.28 242.36C337.627 244.013 335.627 245.373 333.28 246.44C330.933 247.453 328.267 247.96 325.28 247.96C323.733 247.96 322.16 247.853 320.56 247.64C319.013 247.48 317.04 247.107 314.64 246.52C315.013 245.827 315.44 245.16 315.92 244.52C316.453 243.827 317.013 243.213 317.6 242.68C318.24 242.147 318.933 241.747 319.68 241.48C320.48 241.213 321.36 241.133 322.32 241.24ZM311.44 213.48H320.08C323.76 213.48 326.64 212.547 328.72 210.68C330.853 208.813 331.92 206.44 331.92 203.56C331.92 202.333 331.68 201.16 331.2 200.04C330.72 198.92 329.973 197.96 328.96 197.16C328 196.307 326.773 195.64 325.28 195.16C323.787 194.627 322.053 194.36 320.08 194.36C317.2 194.36 314.32 194.52 311.44 194.84V213.48Z" fill="#955900"/>
<path d="M91.3154 100.507C91.3154 99.5693 90.9834 98.8467 90.3193 98.3389C89.665 97.8311 88.4785 97.3184 86.7598 96.8008C85.041 96.2832 83.6738 95.707 82.6582 95.0723C80.7148 93.8516 79.7432 92.2598 79.7432 90.2969C79.7432 88.5781 80.4414 87.1621 81.8379 86.0488C83.2441 84.9355 85.0654 84.3789 87.3018 84.3789C88.7861 84.3789 90.1094 84.6523 91.2715 85.1992C92.4336 85.7461 93.3467 86.5273 94.0107 87.543C94.6748 88.5488 95.0068 89.667 95.0068 90.8975H91.3154C91.3154 89.7842 90.9639 88.915 90.2607 88.29C89.5674 87.6553 88.5713 87.3379 87.2725 87.3379C86.0615 87.3379 85.1191 87.5967 84.4453 88.1143C83.7812 88.6318 83.4492 89.3545 83.4492 90.2822C83.4492 91.0635 83.8105 91.7178 84.5332 92.2451C85.2559 92.7627 86.4473 93.2705 88.1074 93.7686C89.7676 94.2568 91.1006 94.8184 92.1064 95.4531C93.1123 96.0781 93.8496 96.8008 94.3184 97.6211C94.7871 98.4316 95.0215 99.3838 95.0215 100.478C95.0215 102.255 94.3379 103.671 92.9707 104.726C91.6133 105.771 89.7676 106.293 87.4336 106.293C85.8906 106.293 84.4697 106.01 83.1709 105.443C81.8818 104.867 80.876 104.076 80.1533 103.07C79.4404 102.064 79.084 100.893 79.084 99.5547H82.79C82.79 100.766 83.1904 101.703 83.9912 102.367C84.792 103.031 85.9395 103.363 87.4336 103.363C88.7227 103.363 89.6895 103.104 90.334 102.587C90.9883 102.06 91.3154 101.366 91.3154 100.507ZM104.909 106.293C102.653 106.293 100.822 105.585 99.416 104.169C98.0195 102.743 97.3213 100.849 97.3213 98.4854V98.0459C97.3213 96.4639 97.624 95.0527 98.2295 93.8125C98.8447 92.5625 99.7041 91.5908 100.808 90.8975C101.911 90.2041 103.142 89.8574 104.499 89.8574C106.657 89.8574 108.322 90.5459 109.494 91.9229C110.676 93.2998 111.267 95.248 111.267 97.7676V99.2031H100.91C101.018 100.512 101.452 101.547 102.214 102.309C102.985 103.07 103.952 103.451 105.114 103.451C106.745 103.451 108.073 102.792 109.099 101.474L111.018 103.305C110.383 104.252 109.533 104.989 108.469 105.517C107.414 106.034 106.228 106.293 104.909 106.293ZM104.484 92.7139C103.508 92.7139 102.717 93.0557 102.111 93.7393C101.516 94.4229 101.135 95.375 100.969 96.5957H107.751V96.332C107.673 95.1406 107.355 94.2422 106.799 93.6367C106.242 93.0215 105.471 92.7139 104.484 92.7139ZM117.756 90.1504V107.406C117.756 109.027 117.351 110.263 116.54 111.112C115.739 111.972 114.562 112.401 113.01 112.401C112.355 112.401 111.726 112.318 111.12 112.152V109.34C111.491 109.428 111.911 109.472 112.38 109.472C113.562 109.472 114.167 108.827 114.196 107.538V90.1504H117.756ZM113.889 86.0342C113.889 85.4873 114.06 85.0332 114.401 84.6719C114.753 84.3105 115.251 84.1299 115.896 84.1299C116.54 84.1299 117.038 84.3105 117.39 84.6719C117.741 85.0332 117.917 85.4873 117.917 86.0342C117.917 86.5713 117.741 87.0205 117.39 87.3818C117.038 87.7334 116.54 87.9092 115.896 87.9092C115.251 87.9092 114.753 87.7334 114.401 87.3818C114.06 87.0205 113.889 86.5713 113.889 86.0342ZM131.042 106C130.886 105.697 130.749 105.204 130.632 104.521C129.499 105.702 128.112 106.293 126.472 106.293C124.88 106.293 123.581 105.839 122.575 104.931C121.569 104.022 121.066 102.899 121.066 101.562C121.066 99.8721 121.691 98.5781 122.941 97.6797C124.201 96.7715 125.998 96.3174 128.332 96.3174H130.515V95.2773C130.515 94.457 130.285 93.8027 129.826 93.3145C129.367 92.8164 128.669 92.5674 127.731 92.5674C126.921 92.5674 126.257 92.7725 125.739 93.1826C125.222 93.583 124.963 94.0957 124.963 94.7207H121.403C121.403 93.8516 121.691 93.041 122.268 92.2891C122.844 91.5273 123.625 90.9316 124.611 90.502C125.607 90.0723 126.716 89.8574 127.937 89.8574C129.792 89.8574 131.271 90.3262 132.375 91.2637C133.479 92.1914 134.045 93.5 134.074 95.1895V102.338C134.074 103.764 134.274 104.901 134.675 105.751V106H131.042ZM127.131 103.437C127.834 103.437 128.493 103.266 129.108 102.924C129.733 102.582 130.202 102.123 130.515 101.547V98.5586H128.596C127.277 98.5586 126.286 98.7881 125.622 99.2471C124.958 99.7061 124.626 100.355 124.626 101.195C124.626 101.879 124.851 102.426 125.3 102.836C125.759 103.236 126.369 103.437 127.131 103.437ZM159.182 98.2363C159.182 100.697 158.63 102.655 157.526 104.11C156.433 105.565 154.924 106.293 153 106.293C151.145 106.293 149.699 105.624 148.664 104.286L148.488 106H145.266V83.5H148.825V91.6738C149.851 90.4629 151.232 89.8574 152.971 89.8574C154.904 89.8574 156.423 90.5752 157.526 92.0107C158.63 93.4463 159.182 95.4531 159.182 98.0312V98.2363ZM155.622 97.9287C155.622 96.21 155.319 94.9209 154.714 94.0615C154.108 93.2021 153.229 92.7725 152.077 92.7725C150.534 92.7725 149.45 93.4463 148.825 94.7939V101.327C149.46 102.704 150.554 103.393 152.106 103.393C153.22 103.393 154.079 102.978 154.685 102.147C155.29 101.317 155.603 100.062 155.622 98.3828V97.9287ZM169.157 106.293C166.901 106.293 165.07 105.585 163.664 104.169C162.268 102.743 161.569 100.849 161.569 98.4854V98.0459C161.569 96.4639 161.872 95.0527 162.478 93.8125C163.093 92.5625 163.952 91.5908 165.056 90.8975C166.159 90.2041 167.39 89.8574 168.747 89.8574C170.905 89.8574 172.57 90.5459 173.742 91.9229C174.924 93.2998 175.515 95.248 175.515 97.7676V99.2031H165.158C165.266 100.512 165.7 101.547 166.462 102.309C167.233 103.07 168.2 103.451 169.362 103.451C170.993 103.451 172.321 102.792 173.347 101.474L175.266 103.305C174.631 104.252 173.781 104.989 172.717 105.517C171.662 106.034 170.476 106.293 169.157 106.293ZM168.732 92.7139C167.756 92.7139 166.965 93.0557 166.359 93.7393C165.764 94.4229 165.383 95.375 165.217 96.5957H171.999V96.332C171.921 95.1406 171.604 94.2422 171.047 93.6367C170.49 93.0215 169.719 92.7139 168.732 92.7139ZM181.638 90.1504L181.74 91.8057C182.854 90.5068 184.377 89.8574 186.311 89.8574C188.43 89.8574 189.88 90.668 190.661 92.2891C191.813 90.668 193.435 89.8574 195.524 89.8574C197.272 89.8574 198.571 90.3408 199.421 91.3076C200.28 92.2744 200.72 93.7002 200.739 95.585V106H197.18V95.6875C197.18 94.6816 196.96 93.9443 196.521 93.4756C196.081 93.0068 195.354 92.7725 194.338 92.7725C193.527 92.7725 192.863 92.9922 192.346 93.4316C191.838 93.8613 191.481 94.4277 191.276 95.1309L191.291 106H187.731V95.5703C187.683 93.7051 186.73 92.7725 184.875 92.7725C183.449 92.7725 182.438 93.3535 181.843 94.5156V106H178.283V90.1504H181.638ZM217.453 101.488L220.808 90.1504H224.484L218.991 106H215.9L210.363 90.1504H214.055L217.453 101.488ZM230.505 106H226.945V90.1504H230.505V106ZM226.726 86.0342C226.726 85.4873 226.896 85.0332 227.238 84.6719C227.59 84.3105 228.088 84.1299 228.732 84.1299C229.377 84.1299 229.875 84.3105 230.227 84.6719C230.578 85.0332 230.754 85.4873 230.754 86.0342C230.754 86.5713 230.578 87.0205 230.227 87.3818C229.875 87.7334 229.377 87.9092 228.732 87.9092C228.088 87.9092 227.59 87.7334 227.238 87.3818C226.896 87.0205 226.726 86.5713 226.726 86.0342ZM237.697 90.1504L237.8 91.9814C238.972 90.5654 240.51 89.8574 242.414 89.8574C245.715 89.8574 247.395 91.7471 247.453 95.5264V106H243.894V95.7314C243.894 94.7256 243.674 93.9834 243.234 93.5049C242.805 93.0166 242.097 92.7725 241.11 92.7725C239.675 92.7725 238.605 93.4219 237.902 94.7207V106H234.343V90.1504H237.697ZM250.427 97.958C250.427 95.5166 250.993 93.5586 252.126 92.084C253.259 90.5996 254.777 89.8574 256.682 89.8574C258.361 89.8574 259.719 90.4434 260.754 91.6152V83.5H264.313V106H261.091L260.915 104.359C259.851 105.648 258.43 106.293 256.652 106.293C254.797 106.293 253.293 105.546 252.141 104.052C250.998 102.558 250.427 100.526 250.427 97.958ZM253.986 98.2656C253.986 99.877 254.294 101.137 254.909 102.045C255.534 102.943 256.418 103.393 257.561 103.393C259.016 103.393 260.08 102.743 260.754 101.444V94.6768C260.1 93.4072 259.045 92.7725 257.59 92.7725C256.438 92.7725 255.549 93.2314 254.924 94.1494C254.299 95.0576 253.986 96.4297 253.986 98.2656ZM267.36 97.9287C267.36 96.376 267.668 94.9795 268.283 93.7393C268.898 92.4893 269.763 91.5322 270.876 90.8682C271.989 90.1943 273.269 89.8574 274.714 89.8574C276.853 89.8574 278.586 90.5459 279.914 91.9229C281.252 93.2998 281.975 95.126 282.082 97.4014L282.097 98.2363C282.097 99.7988 281.794 101.195 281.188 102.426C280.593 103.656 279.733 104.608 278.61 105.282C277.497 105.956 276.208 106.293 274.743 106.293C272.507 106.293 270.715 105.551 269.367 104.066C268.029 102.572 267.36 100.585 267.36 98.1045V97.9287ZM270.92 98.2363C270.92 99.8672 271.257 101.146 271.931 102.074C272.604 102.992 273.542 103.451 274.743 103.451C275.944 103.451 276.877 102.982 277.541 102.045C278.215 101.107 278.552 99.7354 278.552 97.9287C278.552 96.3271 278.205 95.0576 277.512 94.1201C276.828 93.1826 275.896 92.7139 274.714 92.7139C273.552 92.7139 272.629 93.1777 271.945 94.1055C271.262 95.0234 270.92 96.4004 270.92 98.2363Z" fill="#4E2F00"/>
<path d="M78.1064 137.034H69.8447L68.1162 142H64.2637L72.3203 120.672H75.6455L83.7168 142H79.8496L78.1064 137.034ZM70.8848 134.046H77.0664L73.9756 125.198L70.8848 134.046ZM84.9619 133.929C84.9619 132.376 85.2695 130.979 85.8848 129.739C86.5 128.489 87.3643 127.532 88.4775 126.868C89.5908 126.194 90.8701 125.857 92.3154 125.857C94.4541 125.857 96.1875 126.546 97.5156 127.923C98.8535 129.3 99.5762 131.126 99.6836 133.401L99.6982 134.236C99.6982 135.799 99.3955 137.195 98.79 138.426C98.1943 139.656 97.335 140.608 96.2119 141.282C95.0986 141.956 93.8096 142.293 92.3447 142.293C90.1084 142.293 88.3164 141.551 86.9688 140.066C85.6309 138.572 84.9619 136.585 84.9619 134.104V133.929ZM88.5215 134.236C88.5215 135.867 88.8584 137.146 89.5322 138.074C90.2061 138.992 91.1436 139.451 92.3447 139.451C93.5459 139.451 94.4785 138.982 95.1426 138.045C95.8164 137.107 96.1533 135.735 96.1533 133.929C96.1533 132.327 95.8066 131.058 95.1133 130.12C94.4297 129.183 93.4971 128.714 92.3154 128.714C91.1533 128.714 90.2305 129.178 89.5469 130.105C88.8633 131.023 88.5215 132.4 88.5215 134.236ZM113.526 126.15L113.629 127.806C114.742 126.507 116.266 125.857 118.199 125.857C120.318 125.857 121.769 126.668 122.55 128.289C123.702 126.668 125.323 125.857 127.413 125.857C129.161 125.857 130.46 126.341 131.31 127.308C132.169 128.274 132.608 129.7 132.628 131.585V142H129.068V131.688C129.068 130.682 128.849 129.944 128.409 129.476C127.97 129.007 127.242 128.772 126.227 128.772C125.416 128.772 124.752 128.992 124.234 129.432C123.727 129.861 123.37 130.428 123.165 131.131L123.18 142H119.62V131.57C119.571 129.705 118.619 128.772 116.764 128.772C115.338 128.772 114.327 129.354 113.731 130.516V142H110.172V126.15H113.526ZM143.263 142.293C141.007 142.293 139.176 141.585 137.77 140.169C136.373 138.743 135.675 136.849 135.675 134.485V134.046C135.675 132.464 135.978 131.053 136.583 129.812C137.198 128.562 138.058 127.591 139.161 126.897C140.265 126.204 141.495 125.857 142.853 125.857C145.011 125.857 146.676 126.546 147.848 127.923C149.029 129.3 149.62 131.248 149.62 133.768V135.203H139.264C139.371 136.512 139.806 137.547 140.567 138.309C141.339 139.07 142.306 139.451 143.468 139.451C145.099 139.451 146.427 138.792 147.452 137.474L149.371 139.305C148.736 140.252 147.887 140.989 146.822 141.517C145.768 142.034 144.581 142.293 143.263 142.293ZM142.838 128.714C141.861 128.714 141.07 129.056 140.465 129.739C139.869 130.423 139.488 131.375 139.322 132.596H146.104V132.332C146.026 131.141 145.709 130.242 145.152 129.637C144.596 129.021 143.824 128.714 142.838 128.714ZM161.998 140.447C160.953 141.678 159.469 142.293 157.545 142.293C155.826 142.293 154.522 141.79 153.634 140.784C152.755 139.778 152.315 138.323 152.315 136.419V126.15H155.875V136.375C155.875 138.387 156.71 139.393 158.38 139.393C160.108 139.393 161.275 138.772 161.881 137.532V126.15H165.44V142H162.086L161.998 140.447ZM180.587 134.075V142H176.881V120.672H185.04C187.423 120.672 189.312 121.292 190.709 122.532C192.115 123.772 192.818 125.413 192.818 127.454C192.818 129.544 192.13 131.17 190.753 132.332C189.386 133.494 187.467 134.075 184.996 134.075H180.587ZM180.587 131.102H185.04C186.358 131.102 187.364 130.794 188.058 130.179C188.751 129.554 189.098 128.655 189.098 127.483C189.098 126.331 188.746 125.413 188.043 124.729C187.34 124.036 186.373 123.68 185.143 123.66H180.587V131.102ZM194.854 133.929C194.854 132.376 195.162 130.979 195.777 129.739C196.393 128.489 197.257 127.532 198.37 126.868C199.483 126.194 200.763 125.857 202.208 125.857C204.347 125.857 206.08 126.546 207.408 127.923C208.746 129.3 209.469 131.126 209.576 133.401L209.591 134.236C209.591 135.799 209.288 137.195 208.683 138.426C208.087 139.656 207.228 140.608 206.104 141.282C204.991 141.956 203.702 142.293 202.237 142.293C200.001 142.293 198.209 141.551 196.861 140.066C195.523 138.572 194.854 136.585 194.854 134.104V133.929ZM198.414 134.236C198.414 135.867 198.751 137.146 199.425 138.074C200.099 138.992 201.036 139.451 202.237 139.451C203.438 139.451 204.371 138.982 205.035 138.045C205.709 137.107 206.046 135.735 206.046 133.929C206.046 132.327 205.699 131.058 205.006 130.12C204.322 129.183 203.39 128.714 202.208 128.714C201.046 128.714 200.123 129.178 199.439 130.105C198.756 131.023 198.414 132.4 198.414 134.236ZM220.899 129.402C220.431 129.324 219.947 129.285 219.449 129.285C217.818 129.285 216.72 129.91 216.153 131.16V142H212.594V126.15H215.992L216.08 127.923C216.939 126.546 218.131 125.857 219.654 125.857C220.162 125.857 220.582 125.926 220.914 126.062L220.899 129.402ZM228.341 122.298V126.15H231.139V128.787H228.341V137.635C228.341 138.24 228.458 138.68 228.692 138.953C228.937 139.217 229.366 139.349 229.981 139.349C230.392 139.349 230.807 139.3 231.227 139.202V141.956C230.416 142.181 229.635 142.293 228.883 142.293C226.148 142.293 224.781 140.784 224.781 137.767V128.787H222.174V126.15H224.781V122.298H228.341ZM237.657 142H234.098V126.15H237.657V142ZM233.878 122.034C233.878 121.487 234.049 121.033 234.391 120.672C234.742 120.311 235.24 120.13 235.885 120.13C236.529 120.13 237.027 120.311 237.379 120.672C237.73 121.033 237.906 121.487 237.906 122.034C237.906 122.571 237.73 123.021 237.379 123.382C237.027 123.733 236.529 123.909 235.885 123.909C235.24 123.909 234.742 123.733 234.391 123.382C234.049 123.021 233.878 122.571 233.878 122.034ZM242.799 142V128.787H240.382V126.15H242.799V124.7C242.799 122.942 243.287 121.585 244.264 120.628C245.24 119.671 246.607 119.192 248.365 119.192C248.99 119.192 249.654 119.28 250.357 119.456L250.27 122.239C249.879 122.161 249.425 122.122 248.907 122.122C247.208 122.122 246.358 122.996 246.358 124.744V126.15H249.581V128.787H246.358V142H242.799ZM251.515 133.929C251.515 132.376 251.822 130.979 252.438 129.739C253.053 128.489 253.917 127.532 255.03 126.868C256.144 126.194 257.423 125.857 258.868 125.857C261.007 125.857 262.74 126.546 264.068 127.923C265.406 129.3 266.129 131.126 266.236 133.401L266.251 134.236C266.251 135.799 265.948 137.195 265.343 138.426C264.747 139.656 263.888 140.608 262.765 141.282C261.651 141.956 260.362 142.293 258.897 142.293C256.661 142.293 254.869 141.551 253.521 140.066C252.184 138.572 251.515 136.585 251.515 134.104V133.929ZM255.074 134.236C255.074 135.867 255.411 137.146 256.085 138.074C256.759 138.992 257.696 139.451 258.897 139.451C260.099 139.451 261.031 138.982 261.695 138.045C262.369 137.107 262.706 135.735 262.706 133.929C262.706 132.327 262.359 131.058 261.666 130.12C260.982 129.183 260.05 128.714 258.868 128.714C257.706 128.714 256.783 129.178 256.1 130.105C255.416 131.023 255.074 132.4 255.074 134.236ZM259.85 119.5H263.907L259.85 123.938H256.993L259.85 119.5ZM273.048 142H269.488V119.5H273.048V142ZM280.724 142H277.164V126.15H280.724V142ZM276.944 122.034C276.944 121.487 277.115 121.033 277.457 120.672C277.809 120.311 278.307 120.13 278.951 120.13C279.596 120.13 280.094 120.311 280.445 120.672C280.797 121.033 280.973 121.487 280.973 122.034C280.973 122.571 280.797 123.021 280.445 123.382C280.094 123.733 279.596 123.909 278.951 123.909C278.307 123.909 277.809 123.733 277.457 123.382C277.115 123.021 276.944 122.571 276.944 122.034ZM283.946 133.929C283.946 132.376 284.254 130.979 284.869 129.739C285.484 128.489 286.349 127.532 287.462 126.868C288.575 126.194 289.854 125.857 291.3 125.857C293.438 125.857 295.172 126.546 296.5 127.923C297.838 129.3 298.561 131.126 298.668 133.401L298.683 134.236C298.683 135.799 298.38 137.195 297.774 138.426C297.179 139.656 296.319 140.608 295.196 141.282C294.083 141.956 292.794 142.293 291.329 142.293C289.093 142.293 287.301 141.551 285.953 140.066C284.615 138.572 283.946 136.585 283.946 134.104V133.929ZM287.506 134.236C287.506 135.867 287.843 137.146 288.517 138.074C289.19 138.992 290.128 139.451 291.329 139.451C292.53 139.451 293.463 138.982 294.127 138.045C294.801 137.107 295.138 135.735 295.138 133.929C295.138 132.327 294.791 131.058 294.098 130.12C293.414 129.183 292.481 128.714 291.3 128.714C290.138 128.714 289.215 129.178 288.531 130.105C287.848 131.023 287.506 132.4 287.506 134.236Z" fill="#4E2F00"/>
<path d="M68 157H300" stroke="#955900" stroke-width="5" stroke-linejoin="round"/>
</svg>
